<?xml version="1.0" standalone="no"?>
<!DOCTYPE svg PUBLIC "-//W3C//DTD SVG 1.1//EN" "http://www.w3.org/Graphics/SVG/1.1/DTD/svg11.dtd" >
<svg xmlns="http://www.w3.org/2000/svg">
<metadata></metadata>
<defs>
<font id="ancona-cdregular" horiz-adv-x="751" >
<font-face units-per-em="2048" ascent="1638" descent="-410" />
<missing-glyph horiz-adv-x="378" />
<glyph horiz-adv-x="2048" />
<glyph horiz-adv-x="2048" />
<glyph unicode="&#xd;" horiz-adv-x="378" />
<glyph unicode=" "  horiz-adv-x="378" />
<glyph unicode="&#x09;" horiz-adv-x="378" />
<glyph unicode="&#xa0;" horiz-adv-x="378" />
<glyph unicode="!" horiz-adv-x="403" d="M123 0v260h158v-260h-158zM123 836v530h158v-520l-39 -410h-80z" />
<glyph unicode="&#x22;" horiz-adv-x="608" d="M96 1366h168l-24 -494h-119zM346 1366h168l-25 -494h-118z" />
<glyph unicode="#" d="M45 385l21 111h79l64 354h-88l22 108h84l72 408h107l-72 -408h184l70 408h112l-71 -408h80l-19 -108h-82l-61 -354h88l-19 -111h-90l-67 -385h-109l68 385h-182l-68 -385h-109l68 385h-82zM254 496h182l64 354h-185z" />
<glyph unicode="$" d="M102 1071q0 211 211 254v111h84v-111q125 -23 173 -85t48 -202v-98h-157v98q0 150 -99 150q-98 0 -98 -107q0 -113 117 -262l80 -102q188 -242 188 -424q0 -143 -69 -223q-53 -61 -183 -90v-138h-84v138q-125 37 -167 107.5t-42 240.5v145h158v-145q0 -209 111 -209 t110 160q0 139 -86 241l-84 101q-211 252 -211 450z" />
<glyph unicode="%" horiz-adv-x="1083" d="M55 827v347q0 106 29 145q39 53 129 53q100 0 135 -61q23 -40 23 -140v-340q0 -102 -23 -141q-35 -61 -135 -61q-121 0 -147 90q-10 33 -11 108zM158 834q0 -102 24 -115q10 -4 31 -4q43 0 53 41q2 14 2 78v335q0 100 -24 113q-10 4 -31 4q-43 0 -51 -41q-4 -13 -4 -76 v-335zM195 0l616 1366h70l-617 -1366h-69zM711 193v344q0 109 28 147q39 53 129 53q100 0 136 -61q22 -39 22 -141v-340q0 -102 -22 -142q-35 -61 -136 -61q-121 0 -147 92q-10 31 -10 109zM813 197q0 -102 25 -115q10 -4 30 -4q43 0 54 41q2 14 2 78v335q0 102 -25 115 q-10 4 -31 4q-43 0 -53 -41q-2 -15 -2 -78v-335z" />
<glyph unicode="&#x26;" horiz-adv-x="880" d="M78 360q0 193 168 392q-66 131 -66 292q0 150 74 244t192 94q100 0 161 -65.5t61 -175.5q0 -141 -113 -283q-23 -29 -113 -135q16 -49 138 -307l14 -31q41 104 59 307h152q0 -217 -105 -459q59 -59 156 -90v-166q-143 12 -252 115q-88 -100 -225 -100q-131 0 -216 103.5 t-85 264.5zM240 371q0 -90 42 -152.5t105 -62.5q59 0 107 61q-11 25 -17 35l-71 135q-41 76 -87 199q-80 -106 -79 -215zM342 1077q0 -79 31 -194q84 104 111.5 157.5t27.5 110.5q0 92 -72 92q-98 0 -98 -166z" />
<glyph unicode="'" horiz-adv-x="358" d="M96 1366h168l-24 -494h-119z" />
<glyph unicode="(" horiz-adv-x="579" d="M88 553q0 303 104.5 531.5t299.5 349.5l47 -58q-129 -119 -177 -246q-88 -233 -88 -577q0 -346 88 -578q50 -126 177 -245l-47 -58q-195 125 -299.5 352.5t-104.5 528.5z" />
<glyph unicode=")" horiz-adv-x="579" d="M41 -270q129 121 176 245q88 236 88 578t-88 577q-47 125 -176 246l47 58q195 -125 299.5 -352.5t104.5 -528.5q0 -303 -104.5 -531.5t-299.5 -349.5z" />
<glyph unicode="*" d="M82 1116l43 133l180 -59v188h141v-188l181 59l43 -133l-181 -59l111 -154l-113 -82l-110 154l-113 -154l-112 82l110 154z" />
<glyph unicode="+" d="M68 594v137h239v238h139v-238h236v-137h-236v-240h-139v240h-239z" />
<glyph unicode="," horiz-adv-x="348" d="M96 0v246h158v-207q0 -135 -57 -217q-43 -61 -101 -76v43q70 37 74 148l-2 8l-4 55h-68z" />
<glyph unicode="-" horiz-adv-x="256" d="M0 444v162h256v-162h-256z" />
<glyph unicode="." horiz-adv-x="348" d="M96 0v246h158v-246h-158z" />
<glyph unicode="/" horiz-adv-x="739" d="M27 -328l452 1694h150l-453 -1694h-149z" />
<glyph unicode="0" d="M96 354v631q0 195 51 268q68 98 230 99q178 0 239 -111q39 -72 39 -262v-621q0 -190 -39 -262q-61 -111 -239 -110q-162 0 -230 98q-51 74 -51 270zM262 362q0 -152 19 -186q27 -51 96 -51q72 0 98 55q14 31 14 182v615q0 152 -18 186q-27 49 -94 49q-76 0 -101 -55 q-14 -33 -14 -180v-615z" />
<glyph unicode="1" d="M162 995v138q72 0 130 54t73 138h112v-1325h-166v995h-149z" />
<glyph unicode="2" d="M90 0v23q0 156 53 280q35 80 160 264l66 97q59 86 73 124q20 51 21 138v121q0 88 -22.5 123.5t-80.5 35.5q-53 0 -78.5 -30.5t-25.5 -122.5v-174h-166v170q0 164 49 219q70 78 232 78q172 0 231 -105q33 -57 33 -192v-123q0 -102 -25.5 -171t-107.5 -188l-80 -116 q-137 -203 -150 -293h363v-158h-545z" />
<glyph unicode="3" d="M92 238v174h166v-152q0 -135 100 -135q106 0 107 135v258q0 78 -38 112t-128 34h-76v161h53q166 0 166 136v143q0 59 -10 80q-18 37 -80 37q-53 0 -73.5 -29t-20.5 -102v-60h-166v80q0 242 266 242q125 0 195 -62q55 -49 55 -166v-137q0 -109 -24.5 -150.5t-100.5 -68.5 q88 -25 118 -78t30 -184v-219q0 -176 -58 -234q-68 -68 -211 -67q-135 0 -208 63q-61 53 -62 189z" />
<glyph unicode="4" d="M43 283v145l291 897h250v-897h96v-145h-96v-283h-166v283h-375zM213 428h217v705z" />
<glyph unicode="5" d="M106 258v168h166v-182q0 -119 99 -119q68 0 92 45q14 27 14 106v402q0 82 -16 108q-25 39 -88 39q-102 0 -109 -110l-2 -37h-156v647h498v-158h-332v-247q88 53 160 53q137 0 184 -92q27 -53 27 -187v-405q0 -92 -6 -125q-10 -68 -51 -109q-70 -70 -201 -69 q-141 0 -215 65q-63 57 -64 207z" />
<glyph unicode="6" d="M111 301v700q0 135 9 180.5t44 86.5q72 84 221 84q178 0 242 -119q29 -51 28 -172v-125h-166v125q0 145 -110 145q-102 0 -103 -145v-330q78 72 166 72q129 0 181 -92q33 -57 32 -172v-269q0 -158 -71.5 -221t-204.5 -63q-145 0 -217 84q-51 59 -51 231zM270 281 q0 -90 22.5 -123t82.5 -33q61 0 83.5 32.5t22.5 123.5v219q0 90 -22.5 123.5t-83.5 33.5q-59 0 -82 -33.5t-23 -123.5v-219z" />
<glyph unicode="7" d="M106 1167v158h512v-158q-96 -221 -151 -465q-84 -375 -84 -675q0 -6 2 -27h-199q35 700 279 1167h-359z" />
<glyph unicode="8" d="M98 293v156q0 121 30 172t112 77q-90 39 -115 111q-14 41 -14 164v94q0 285 264 285t264 -285v-94q0 -123 -14 -164q-25 -72 -115 -111q82 -27 111.5 -78t29.5 -171v-156q0 -162 -57 -223q-78 -84 -219 -84t-219 84q-57 61 -58 223zM264 254q0 -74 23.5 -101.5 t87.5 -27.5q61 0 85.5 28.5t24.5 100.5v238q0 72 -24.5 100.5t-85.5 28.5q-63 0 -87 -27.5t-24 -101.5v-238zM276 891q0 -121 99 -121q98 0 98 121v207q0 123 -98 123q-99 0 -99 -123v-207z" />
<glyph unicode="9" d="M96 276v125h166v-125q0 -145 111 -145q102 0 102 145v330q-78 -72 -166 -71q-127 0 -180 92q-33 57 -33 172v270q0 156 73 219.5t204 63.5q127 0 202 -72q66 -63 66 -244v-700q0 -135 -9 -180t-44 -86q-72 -84 -221 -84q-197 0 -252 139q-18 45 -19 151zM270 838 q0 -90 22.5 -124t82.5 -34q61 0 83.5 34t22.5 124v221q0 88 -22.5 120.5t-81.5 32.5q-61 0 -84 -32.5t-23 -120.5v-221z" />
<glyph unicode=":" horiz-adv-x="348" d="M96 0v246h158v-246h-158zM96 793v245h158v-245h-158z" />
<glyph unicode=";" horiz-adv-x="350" d="M96 0v246h160v-207q0 -139 -57 -217q-45 -61 -103 -76v43q68 45 68 156v55h-68zM96 793v245h160v-245h-160z" />
<glyph unicode="&#x3c;" horiz-adv-x="1024" d="M68 623v135l886 418v-156l-718 -330l718 -330v-155z" />
<glyph unicode="=" d="M68 457v137h614v-137h-614zM68 729v137h614v-137h-614z" />
<glyph unicode="&#x3e;" horiz-adv-x="1024" d="M70 203v157l718 330l-718 330v156l886 -418v-137z" />
<glyph unicode="?" horiz-adv-x="636" d="M61 987v96q0 143 50 211q61 86 194 86q117 0 187.5 -77.5t70.5 -206.5q0 -141 -92 -314l-49 -92q-45 -84 -55.5 -122t-18.5 -138h-139q0 100 12 157.5t55 147.5l58 123q61 131 61 242q0 135 -92 135q-94 0 -94 -172v-76h-148zM209 0v260h147v-260h-147z" />
<glyph unicode="@" d="M61 332v712q0 164 82 253t234 89q147 0 230 -88t83 -243v-693h-106l-19 56q-55 -76 -125 -76q-133 0 -133 170v385q0 186 144 186q55 0 100 -53v45q0 84 -48 135.5t-126 51.5q-119 0 -162 -109q-16 -43 -16 -139v-637q0 -123 32 -180q51 -92 154 -93q94 0 166 91l84 -95 q-94 -121 -250 -120q-145 0 -229 83q-94 94 -95 269zM449 555q0 -78 51 -78t51 78v309q0 78 -51 78t-51 -78v-309z" />
<glyph unicode="A" horiz-adv-x="679" d="M27 0l188 1366h217l219 -1366h-178l-41 256h-199l-32 -256h-174zM254 426h156l-72 592q-4 41 -10 112q-4 -55 -11 -108l-16 -141z" />
<glyph unicode="B" horiz-adv-x="720" d="M92 0v1366h318q139 0 182 -53.5t43 -225.5v-141q0 -111 -14 -145q-27 -57 -119 -80q84 -16 108.5 -52t24.5 -167v-240q0 -160 -52.5 -211t-213.5 -51h-277zM276 170h105q57 0 70 41q6 16 6 90v211q0 113 -33 125q-14 6 -43 6h-105v-473zM276 797h105q57 0 70 41 q6 16 6 90v137q0 113 -33 125q-14 6 -43 6h-105v-399z" />
<glyph unicode="C" horiz-adv-x="737" d="M78 406v555q0 121 6 161q10 90 53 152q77 112 231 112h3q152 0 233 -112q43 -61 55 -150q6 -45 7 -163v-87h-187v183q0 94 -24.5 133t-83.5 39t-84 -39t-25 -133v-748q0 -94 24.5 -133t84.5 -39q59 0 83.5 39t24.5 133v264h187v-167q0 -121 -7 -162q-10 -90 -55 -152 q-79 -112 -230 -112h-3q-156 0 -234 112q-43 61 -55 152q-4 39 -4 162z" />
<glyph unicode="D" horiz-adv-x="716" d="M92 0v1366h322q131 0 178 -48t47 -185v-900q0 -135 -47 -184t-178 -49h-322zM276 170h89q59 0 75 31q14 23 15 88v788q0 66 -15 88q-16 31 -75 31h-89v-1026z" />
<glyph unicode="E" horiz-adv-x="595" d="M92 0v1366h451v-170h-267v-399h238v-170h-238v-457h267v-170h-451z" />
<glyph unicode="F" horiz-adv-x="600" d="M92 0v1366h471v-170h-287v-399h261v-170h-261v-627h-184z" />
<glyph unicode="G" horiz-adv-x="696" d="M78 362v637q0 197 57 281q72 106 219 106q160 0 215 -108q31 -61 31 -215v-123h-168v158q0 131 -80 131q-51 0 -70.5 -36t-19.5 -130v-707q0 -150 21.5 -184.5t66.5 -34.5q82 0 82 135v291h-76v170h260v-733h-104l-18 55q-77 -75 -166 -75h-2q-139 0 -203 112 q-45 80 -45 270z" />
<glyph unicode="H" horiz-adv-x="710" d="M92 0v1366h184v-551h158v551h184v-1366h-184v645h-158v-645h-184z" />
<glyph unicode="I" horiz-adv-x="370" d="M92 0v1366h184v-1366h-184z" />
<glyph unicode="J" horiz-adv-x="579" d="M14 0v162q102 -25 176 -25q66 0 91.5 34t25.5 126v1069h185v-1049q0 -188 -69 -262.5t-224 -74.5q-115 0 -185 20z" />
<glyph unicode="K" horiz-adv-x="706" d="M92 0v1366h184v-608l191 608h180l-219 -678l264 -688h-178l-238 618v-618h-184z" />
<glyph unicode="L" horiz-adv-x="591" d="M92 0v1366h184v-1196h293v-170h-477z" />
<glyph unicode="M" horiz-adv-x="985" d="M92 0v1366h254l123 -731q16 -102 25 -250q14 170 26 254l105 727h266v-1366h-168v866q0 2 2 135l2 134l-29 -189l-24 -180l-107 -766h-147l-152 1057l-12 78q4 -104 4 -261v-874h-168z" />
<glyph unicode="N" horiz-adv-x="755" d="M92 0v1366h191l198 -831q8 -33 17 -78l14 -76q4 -14 10 -47l-4 78l-12 170q-2 33 -4 104l-17 680h179v-1366h-203l-234 1057q2 -37 6 -88l9 -127q4 -49 4 -86l18 -756h-172z" />
<glyph unicode="O" horiz-adv-x="743" d="M78 406v555q0 121 6 161q10 90 53 152q77 112 231 112h3q154 0 233 -112q45 -63 55 -150q7 -42 7 -163v-555q0 -121 -7 -164q-10 -86 -55 -150q-77 -112 -230 -112h-3q-156 0 -234 112q-43 61 -53 152q-6 41 -6 162zM262 309q0 -94 24.5 -133t84.5 -39q61 0 85.5 38 t24.5 134v748q0 96 -24.5 134t-85.5 38q-59 0 -84 -39t-25 -133v-748z" />
<glyph unicode="P" horiz-adv-x="679" d="M92 0v1366h338q74 0 98 -6q51 -12 79 -57.5t28 -188.5v-258q0 -154 -42 -198t-169 -44h-148v-614h-184zM276 784h109q43 0 57 21q8 14 9 59v252q0 55 -14.5 67.5t-51.5 12.5h-109v-412z" />
<glyph unicode="Q" horiz-adv-x="743" d="M78 406v555q0 121 4 161q12 90 55 152q77 112 231 112h3q154 0 233 -112q45 -63 55 -150q6 -43 7 -163v-555q0 -193 -29 -259q-51 -119 -176 -153q2 -49 18.5 -72.5t98.5 -23.5h43v-144h-52q-147 0 -205.5 50.5t-64.5 183.5q-78 20 -127 65q-66 61 -84 154 q-10 49 -10 199zM262 309q0 -172 111 -172q59 0 83.5 39t24.5 133v748q0 94 -24.5 133t-83.5 39q-111 0 -111 -172v-748z" />
<glyph unicode="R" horiz-adv-x="718" d="M92 0v1366h305q127 0 172 -39q66 -55 66 -274v-101q0 -139 -28.5 -191t-110.5 -67q78 -23 102 -65q37 -66 37 -221v-170q0 -139 35 -238h-191q-28 95 -28 253v11v123q0 131 -20.5 185.5t-72.5 54.5h-82v-627h-184zM276 780h109q49 0 61 51q4 16 5 93v129q0 76 -5 92 q-12 51 -61 51h-109v-416z" />
<glyph unicode="S" horiz-adv-x="630" d="M53 313v187h168v-211q0 -90 19.5 -126t66.5 -36q88 0 88 143q0 96 -27.5 172t-105.5 185l-55 78q-143 203 -144 376q0 305 275 305q143 0 199 -94q30 -49 30 -183v-9v-189h-168v230q0 98 -71 98q-84 0 -84 -117q0 -147 114 -317l84 -125q137 -205 138 -383 q0 -147 -71 -232t-194 -85q-164 0 -225 120q-37 72 -37 213z" />
<glyph unicode="T" horiz-adv-x="624" d="M6 1196v170h610v-170h-213v-1196h-184v1196h-213z" />
<glyph unicode="U" horiz-adv-x="759" d="M86 406v960h184v-1057q0 -94 24.5 -133t84.5 -39q61 0 85.5 38t24.5 134v1057h185v-960q0 -121 -6 -164q-10 -86 -56 -150q-77 -112 -230 -112h-3q-156 0 -234 112q-43 61 -53 152q-6 41 -6 162z" />
<glyph unicode="V" horiz-adv-x="686" d="M27 1366h180l117 -879q8 -68 22 -235l25 233l108 881h178l-206 -1366h-211z" />
<glyph unicode="W" horiz-adv-x="956" d="M25 1366h180l80 -844q2 -23 16 -252l12 252l76 844h166l100 -872q6 -59 21 -224l4 103q4 98 8 149l64 844h180l-146 -1366h-208l-82 731q-8 78 -21 240l-12 -240l-62 -731h-208z" />
<glyph unicode="X" horiz-adv-x="681" d="M27 0l206 707l-206 659h178l96 -301q20 -68 35 -147q6 66 29 147l81 301h181l-193 -659l221 -707h-184l-96 311q-12 37 -41 168q-8 -70 -37 -168l-92 -311h-178z" />
<glyph unicode="Y" horiz-adv-x="614" d="M-6 1366h186l76 -311q31 -129 49 -238q16 113 51 238l86 311h181l-230 -807v-559h-184v559z" />
<glyph unicode="Z" horiz-adv-x="600" d="M43 0v123l313 1073h-243v170h440v-119l-315 -1077h292v-170h-487z" />
<glyph unicode="[" horiz-adv-x="579" d="M109 -328v1694h409v-102h-258v-1489h258v-103h-409z" />
<glyph unicode="\" horiz-adv-x="739" d="M109 1366h149l453 -1694h-148z" />
<glyph unicode="]" horiz-adv-x="579" d="M61 -225h258v1489h-258v102h410v-1694h-410v103z" />
<glyph unicode="^" horiz-adv-x="1024" d="M49 743l361 627h206l359 -627h-170l-293 502l-293 -502h-170z" />
<glyph unicode="_" horiz-adv-x="1024" d="M0 -131h1024v-143h-1024v143z" />
<glyph unicode="`" horiz-adv-x="1024" d="M283 1430h180l115 -238h-95z" />
<glyph unicode="a" horiz-adv-x="608" d="M63 209v129q0 88 21.5 132t93.5 89l123 78q49 31 59.5 46t10.5 58v113q0 80 -68 80q-45 0 -67 -29q-14 -18 -15 -82v-110h-158v127q0 106 50 157q63 68 182 68q145 0 205 -94q28 -44 28 -141v-7v-655q0 -90 31 -168h-168q-6 23 -22 84q-61 -98 -154 -98q-100 0 -133 75 q-18 43 -19 148zM221 219q0 -100 64 -100q35 0 60.5 40t25.5 97v260l-99 -72q-35 -27 -45 -59q-6 -20 -6 -74v-92z" />
<glyph unicode="b" horiz-adv-x="612" d="M80 0v1366h158v-389q57 88 147 88q104 0 141 -84q18 -43 19 -180v-555q0 -115 -31 -170q-51 -90 -160 -90q-104 0 -149 106q-18 -45 -33 -92h-92zM238 258q0 -66 8 -90q16 -43 67 -43t66 43q8 25 8 90v535q0 66 -8 90q-14 43 -66 43q-51 0 -67 -43q-8 -24 -8 -90v-535z " />
<glyph unicode="c" horiz-adv-x="591" d="M70 266v518q0 162 47 213q61 68 186 68t184 -68q47 -53 48 -213v-112h-158v127q0 68 -8 92q-16 43 -68 43q-51 0 -65 -45q-8 -25 -9 -90v-547q0 -76 16.5 -104.5t59.5 -28.5q51 0 66 43q8 25 8 90v166h158v-152q0 -160 -48 -213q-58 -67 -180 -67h-4q-125 0 -186 67 q-47 51 -47 213z" />
<glyph unicode="d" horiz-adv-x="612" d="M70 213v600q0 125 24 172q41 80 139 80q74 0 144 -88v389h158v-1366h-158v74q-51 -88 -139 -88q-92 0 -140 67q-28 40 -28 152v8zM227 258q0 -66 9 -90q14 -43 65 -43t68 43q8 25 8 90v535q0 66 -8 90q-14 43 -66 43q-51 0 -67 -43q-9 -24 -9 -90v-535z" />
<glyph unicode="e" horiz-adv-x="604" d="M70 268v516q0 162 47 213q61 68 186 68t184 -68q47 -53 48 -213v-295h-308v-241q0 -66 9 -88q16 -41 67 -41t66 41q8 25 8 88v143h158v-123q0 -164 -48 -215q-60 -67 -182 -67h-4q-123 0 -184 67q-47 51 -47 215zM227 618h150v181q0 66 -8 90q-14 43 -66 43 q-51 0 -67 -43q-8 -25 -9 -90v-181z" />
<glyph unicode="f" horiz-adv-x="354" d="M14 913v138h88v151q0 68 4 90q10 49 48 70q29 16 137 16h57v-137h-31q-57 0 -57 -65v-125h88v-138h-88v-913h-158v913h-88z" />
<glyph unicode="g" horiz-adv-x="612" d="M70 -113h157q2 -82 72 -82q78 0 78 82v174q-54 -75 -148 -75h-2q-88 0 -131 71q-26 43 -26 163v9v592q0 119 24 168q39 76 135 76q82 0 148 -88v74h158v-1127q0 -129 -58 -186q-66 -66 -174 -66q-86 0 -149.5 41t-77.5 109q-6 18 -6 65zM227 258q0 -66 9 -90 q14 -43 65 -43t68 43q8 25 8 90v535q0 66 -8 90q-14 43 -66 43q-51 0 -67 -43q-9 -24 -9 -90v-535z" />
<glyph unicode="h" horiz-adv-x="622" d="M80 0v1366h158v-385q70 84 151 84q98 0 135 -84q20 -47 21 -158v-823h-158v793q0 66 -8 90q-16 43 -68 43q-51 0 -65 -43q-8 -25 -8 -90v-793h-158z" />
<glyph unicode="i" horiz-adv-x="315" d="M80 0v1051h158v-1051h-158zM80 1149v217h158v-217h-158z" />
<glyph unicode="j" horiz-adv-x="315" d="M-43 -188q29 -2 45 -2q55 0 66.5 24.5t11.5 149.5v1067h158v-1067q0 -119 -7 -152q-14 -90 -69 -129q-47 -31 -174 -31h-31v140zM80 1102v217h158v-217h-158z" />
<glyph unicode="k" horiz-adv-x="575" d="M80 0v1366h158v-735l155 420h166l-180 -402l180 -649h-166l-123 471l-32 -74v-397h-158z" />
<glyph unicode="l" horiz-adv-x="315" d="M80 0v1366h158v-1366h-158z" />
<glyph unicode="m" horiz-adv-x="929" d="M80 0v1051h158v-70q63 84 145 84q96 0 145 -102q63 102 166 102q90 0 129 -66q29 -47 29 -211v-788h-158v793q0 66 -8 90q-16 43 -68 43q-51 0 -65 -43q-8 -25 -8 -90v-793h-158v793q0 66 -8 90q-16 43 -68 43q-51 0 -65 -43q-8 -25 -8 -90v-793h-158z" />
<glyph unicode="n" horiz-adv-x="622" d="M80 0v1051h158v-70q68 84 151 84q98 0 135 -84q20 -47 21 -158v-823h-158v793q0 66 -8 90q-16 43 -68 43q-51 0 -65 -43q-8 -25 -8 -90v-793h-158z" />
<glyph unicode="o" horiz-adv-x="604" d="M70 268v547q0 250 237 250q127 0 185 -76q43 -57 43 -192v-529q0 -164 -48 -215q-60 -67 -180 -67h-4q-127 0 -186 67q-47 53 -47 215zM227 252q0 -66 9 -90q14 -43 65 -43t68 43q8 25 8 90v547q0 66 -8 90q-14 43 -66 43q-51 0 -67 -43q-9 -24 -9 -90v-547z" />
<glyph unicode="p" horiz-adv-x="612" d="M80 -328v1379h158v-74q51 88 141 88t137 -68q29 -41 29 -159v-600q0 -125 -25 -172q-41 -80 -139 -80q-74 0 -143 88v-402h-158zM238 258q0 -66 8 -90q16 -43 67 -43t66 45q8 24 8 90v533q0 66 -8 90q-14 43 -66 43q-51 0 -67 -43q-8 -25 -8 -90v-535z" />
<glyph unicode="q" horiz-adv-x="612" d="M70 250v555q0 117 28 170q49 90 160 90q104 0 152 -104q18 43 32 90h93v-1379h-158v402q-57 -88 -150 -88q-102 0 -141 84q-16 37 -16 180zM227 258q0 -74 9 -94q16 -39 65 -39q51 0 68 43q8 24 8 92v533q0 66 -8 90q-16 43 -68 43q-49 0 -65 -39q-8 -20 -9 -96v-533z " />
<glyph unicode="r" horiz-adv-x="448" d="M80 0v1051h158v-119q70 125 161 125q16 0 43 -6v-172q-49 28 -87 28h-3q-115 0 -114 -155v-752h-158z" />
<glyph unicode="s" horiz-adv-x="555" d="M39 309v80h149v-80q0 -182 93 -182q84 0 84 123q0 100 -82 182l-70 70q-94 94 -127 157.5t-33 149.5q0 256 232 256q221 0 221 -274v-52h-150v52q0 133 -80 133q-74 0 -73 -95q0 -98 71 -163l82 -76q90 -82 125 -155t35 -173q0 -131 -62.5 -203.5t-177.5 -72.5 q-238 0 -237 323z" />
<glyph unicode="t" horiz-adv-x="382" d="M14 913v138h88v219h158v-219h88v-138h-88v-723q0 -47 14.5 -58t67.5 -13l14 -2v-117q-57 -14 -94 -14q-84 0 -127 41q-33 31 -33 133v753h-88z" />
<glyph unicode="u" horiz-adv-x="622" d="M80 227v824h158v-793q0 -66 8 -90q16 -43 67 -43t66 45q8 25 8 90v791h158v-1051h-158v70q-59 -84 -154 -84q-100 0 -135 84q-18 43 -18 157z" />
<glyph unicode="v" horiz-adv-x="559" d="M27 1051h157l68 -559q4 -33 10 -89l10 -102q0 -12 7 -61q10 174 20 252l72 559h161l-161 -1051h-187z" />
<glyph unicode="w" horiz-adv-x="770" d="M14 1051h152l47 -541q6 -66 12 -264q8 88 29 264l72 541h118l64 -541q2 -12 29 -264q6 88 8 146.5t8 117.5l47 541h158l-135 -1051h-179l-47 387q-8 70 -16 277q-10 -215 -19 -277l-51 -387h-174z" />
<glyph unicode="x" horiz-adv-x="577" d="M14 0l179 565l-158 486h158l55 -197q29 -104 45 -192q18 131 35 192l51 197h156l-156 -486l186 -565h-164l-88 342q0 2 -20 90q-10 -47 -37 -149l-86 -283h-156z" />
<glyph unicode="y" horiz-adv-x="524" d="M6 1051h158l51 -416q14 -115 49 -414q4 37 8 84l15 178q8 94 14 148l53 420h162l-186 -1155q-20 -131 -64.5 -177.5t-144.5 -46.5h-74v158q10 -2 29 -2q61 0 80 43q12 27 12 100q0 68 -8 119z" />
<glyph unicode="z" horiz-adv-x="555" d="M35 0v150l311 751h-248v150h422v-150l-311 -751h311v-150h-485z" />
<glyph unicode="{" horiz-adv-x="647" d="M119 469v104q117 31 117 187v330q0 170 94 233q57 39 250 43v-102q-115 -4 -155 -43.5t-40 -145.5v-325q0 -98 -24.5 -148.5t-88.5 -83.5q63 -35 88 -88t25 -149v-310q0 -113 40 -152.5t155 -43.5v-103q-205 2 -265 52q-80 66 -79 253v297q0 90 -26 133.5t-91 61.5z" />
<glyph unicode="|" horiz-adv-x="1024" d="M434 -342v1708h158v-1708h-158z" />
<glyph unicode="}" horiz-adv-x="647" d="M68 -225q115 4 154.5 43.5t39.5 152.5v310q0 96 24.5 149t88.5 88q-63 33 -88 83t-25 149v325q0 106 -40 145.5t-154 43.5v102q203 -4 260 -49q84 -66 84 -227v-330q0 -156 116 -187v-104q-63 -18 -89.5 -61t-26.5 -134v-297q0 -197 -93 -262q-55 -41 -251 -43v103z" />
<glyph unicode="~" horiz-adv-x="1366" d="M190 1249q66 133 128.5 186.5t154.5 53.5q78 0 227 -70q139 -66 199 -65q100 0 182 139l95 -55q-55 -111 -115 -164q-80 -70 -182 -70q-68 0 -287 99q-78 35 -131 34q-96 0 -178 -147z" />
<glyph unicode="&#xa1;" horiz-adv-x="403" d="M123 207l39 409h80l39 -399v-530h-158v520zM123 791v260h158v-260h-158z" />
<glyph unicode="&#xa2;" d="M143 446v568q0 82 9 114q12 61 57 97q55 43 131 49v112h80v-112q102 -20 146 -80.5t44 -179.5v-140h-157v140q0 66 -9 88q-16 39 -67 39t-68 -39q-8 -25 -8 -88v-568q0 -66 10 -88q14 -39 68 -39q51 0 65 39q8 20 9 86v181h157v-179q0 -119 -44 -178t-146 -82v-125h-80 v125q-88 8 -147 66q-49 47 -50 194z" />
<glyph unicode="&#xa3;" d="M-61 135q0 72 57 120t141 48q70 0 139 -43l3 14l6 39q2 12 2 41q0 76 -62 236h-202v127h153q-76 213 -76 325q0 135 87 223.5t221 88.5q162 0 229 -109q51 -82 51 -217v-84h-166v60q0 197 -112 196q-127 0 -127 -158q0 -112 88 -325h198v-127h-151q23 -86 22 -156 q0 -100 -51 -231q115 -63 156 -64q68 0 67 121v125h158v-125q0 -129 -37 -184q-49 -76 -160 -76q-94 0 -243 109q-100 -123 -221 -123q-74 0 -122 42t-48 107zM49 141q0 -59 57 -59q77 0 134 90q-2 2 -7 4q-45 31 -102 31q-82 0 -82 -66z" />
<glyph unicode="&#xa4;" horiz-adv-x="909" d="M96 618l33 125h98v218q0 121 4 161q12 90 56 152q78 113 233 112q154 0 234 -112q43 -61 55 -150q6 -45 6 -163v-87h-186v183q0 94 -24.5 133t-84.5 39q-59 0 -83.5 -39t-24.5 -133v-314h284l-32 -125h-252v-309q0 -94 24.5 -133t83.5 -39t84 39t25 133v244h186v-147 q0 -121 -6 -162q-10 -90 -55 -152q-80 -113 -234 -112q-156 0 -233 112q-43 61 -54 152q-6 41 -6 162v212h-131z" />
<glyph unicode="&#xa5;" d="M55 768v162h115l-115 395h191l78 -291q25 -92 47 -237q16 111 53 237l86 291h184l-123 -395h123v-162h-172l-49 -160h154v-162h-176v-446h-166v446h-162v162h141l-47 160h-162z" />
<glyph unicode="&#xa6;" horiz-adv-x="1024" d="M434 313h158v-655h-158v655zM434 682v684h158v-684h-158z" />
<glyph unicode="&#xa7;" d="M106 737q0 141 136 211l-19 23q-80 98 -80 194t66.5 158.5t171.5 62.5q111 0 176.5 -70.5t65.5 -187.5q-1 -32 -5 -61h-149q2 20 2 47q0 168 -90 168q-37 0 -62.5 -29.5t-25.5 -72.5q0 -39 45 -103l227 -317q45 -63 60 -94q20 -45 20 -105q0 -152 -115 -219l21 -25 q49 -59 49 -141q0 -111 -70.5 -181.5t-179.5 -70.5t-170 67.5t-61 188.5q0 27 2 47h153q-4 -23 -4 -43q0 -158 101 -157q35 0 58.5 30.5t23.5 79.5q0 57 -45 119l-179 240q-76 100 -82 112q-41 68 -41 129zM256 743q0 -47 33 -92l149 -205q59 41 60 111q0 50 -45 113 l-129 180q-68 -47 -68 -107z" />
<glyph unicode="&#xa8;" horiz-adv-x="1024" d="M328 1219v184h129v-184h-129zM565 1219v184h129v-184h-129z" />
<glyph unicode="&#xa9;" horiz-adv-x="1323" d="M68 692q0 285 175 489.5t419 204.5q248 0 420.5 -205.5t172.5 -498.5q0 -291 -174 -496.5t-419 -205.5q-250 0 -422 206.5t-172 505.5zM170 690q0 -254 142.5 -431t349.5 -177q203 0 347 176t144 424t-144 425t-347 177q-201 0 -346.5 -175t-145.5 -419zM483 524v318 q0 129 37 180q49 68 144 68q94 0 143 -68q37 -51 37 -180v-58h-123v111q0 92 -57 92t-58 -92v-426q0 -92 58 -92q57 0 57 92v158h123v-103q0 -131 -37 -182q-49 -68 -143 -68t-144 68q-37 51 -37 182z" />
<glyph unicode="&#xaa;" horiz-adv-x="499" d="M37 608v68h426v-68h-426zM121 934v67q0 47 12 71t51 48l64 41q35 23 35 51v60q0 37 -31 37q-39 0 -39 -54v-63h-92v72q0 125 127 125t127 -134v-342q0 -49 18 -94h-100q-2 12 -8 37q-27 -45 -80 -45q-84 0 -84 123zM211 942q0 -53 31 -53q43 0 43 74v137l-47 -35 q-27 -20 -27 -70v-53z" />
<glyph unicode="&#xab;" horiz-adv-x="761" d="M61 422v205l258 225v-190l-151 -138l151 -135v-190zM414 422v205l258 227v-192l-152 -138l152 -135v-190z" />
<glyph unicode="&#xac;" horiz-adv-x="1024" d="M68 399v148h886v-547h-157v399h-729z" />
<glyph unicode="&#xad;" horiz-adv-x="256" d="M0 444v162h256v-162h-256z" />
<glyph unicode="&#xae;" horiz-adv-x="1323" d="M68 692q0 285 175 489.5t419 204.5q248 0 420.5 -205.5t172.5 -498.5q0 -291 -174 -496.5t-419 -205.5q-250 0 -422 206.5t-172 505.5zM170 690q0 -254 142.5 -431t349.5 -177q203 0 347 176t144 424t-144 425t-347 177q-201 0 -346.5 -175t-145.5 -419zM498 287v792h186 q90 0 118.5 -35.5t28.5 -150.5v-55q0 -63 -6 -88q-12 -43 -55 -62q61 -25 61 -162v-96q0 -80 25 -143h-129q-18 61 -18 157v70q0 131 -47 131h-41v-358h-123zM621 745h57q25 0 31 27v49v72v49q-6 27 -31 27h-57v-224z" />
<glyph unicode="&#xaf;" horiz-adv-x="1024" d="M0 1630v142h1024v-142h-1024z" />
<glyph unicode="&#xb0;" d="M94 1083q0 123 82 210t199 87q119 0 199.5 -86t80.5 -213q0 -119 -83 -204.5t-197 -85.5q-117 0 -199 86t-82 206zM209 1085q0 -76 49 -129t115 -53t116 53.5t50 122.5q0 78 -48 131.5t-118 53.5q-66 0 -115 -53.5t-49 -125.5z" />
<glyph unicode="&#xb1;" d="M68 102v138h614v-138h-614zM68 594v137h239v238h139v-238h236v-137h-236v-240h-139v240h-239z" />
<glyph unicode="&#xb2;" horiz-adv-x="518" d="M72 547v20q0 88 26.5 151.5t108.5 174.5l41 55q39 51 48 77t9 75v71q0 86 -55 86q-59 0 -60 -83v-109h-118v106q0 98 32 134q45 49 150 49q174 0 174 -183v-71q0 -92 -86 -215l-49 -70q-47 -66 -62 -92q-25 -41 -28 -70h225v-106h-356z" />
<glyph unicode="&#xb3;" horiz-adv-x="518" d="M74 694v109h119v-96q0 -72 55 -72q59 0 59 72v151q0 80 -96 80h-55v109h43q94 0 94 71v86q0 45 -13.5 53.5t-35.5 8.5q-51 0 -51 -72v-41h-119v53q0 152 174 152q164 0 164 -144v-79q0 -102 -64 -127q53 -25 68 -64q10 -25 10 -92v-129q0 -106 -39 -143q-45 -41 -137 -41 q-176 0 -176 155z" />
<glyph unicode="&#xb4;" horiz-adv-x="1024" d="M446 1192l115 238h180l-200 -238h-95z" />
<glyph unicode="&#xb5;" horiz-adv-x="622" d="M80 -328v1379h158v-791q0 -68 8 -92q16 -43 67 -43t66 45q8 25 8 90v791h158v-1051h-158v31q-37 -45 -76 -45q-35 0 -73 45v-359h-158z" />
<glyph unicode="&#xb6;" d="M29 1008q0 158 97 258t249 100h407v-88h-94v-1606h-113v1606h-129v-1606h-112v983q-129 4 -217 106.5t-88 246.5z" />
<glyph unicode="&#xb7;" horiz-adv-x="348" d="M96 383v246h158v-246h-158z" />
<glyph unicode="&#xb8;" horiz-adv-x="1024" d="M365 -274l36 45q68 -33 105 -33q68 0 67 59q0 51 -102 76v127h96v-68q133 -43 133 -141q0 -125 -161 -125q-94 0 -174 60z" />
<glyph unicode="&#xb9;" horiz-adv-x="518" d="M119 1133v94q109 0 129 114h84v-794h-119v586h-94z" />
<glyph unicode="&#xba;" horiz-adv-x="499" d="M37 608v68h426v-68h-426zM123 965v288q0 135 131 136q123 -1 123 -146v-278q0 -86 -27 -115q-33 -37 -100 -37q-92 0 -117 64q-10 25 -10 88zM215 956q0 -63 35 -63t35 63v287q0 66 -35 66t-35 -66v-287z" />
<glyph unicode="&#xbb;" horiz-adv-x="761" d="M88 199v190l152 137l-152 138v190l258 -225v-203zM442 199v190l152 137l-152 138v190l256 -225v-203z" />
<glyph unicode="&#xbc;" horiz-adv-x="1226" d="M119 1133v94q109 0 129 114h84v-794h-119v586h-94zM322 0l489 1346h94l-489 -1346h-94zM760 166v92l186 537h168v-531h60v-98h-60v-166h-119v166h-235zM868 264h123v369z" />
<glyph unicode="&#xbd;" horiz-adv-x="1226" d="M119 1133v94q109 0 129 114h84v-794h-119v586h-94zM322 0l489 1346h94l-489 -1346h-94zM780 0v20q0 88 27 152t108 174l41 55q39 51 48.5 77t9.5 75v72q0 86 -56 86q-59 0 -59 -84v-109h-119v107q0 98 33 133q45 49 150 49q174 0 174 -182v-72q0 -92 -86 -215l-50 -70 q-47 -66 -61 -92q-25 -41 -29 -70h226v-106h-357z" />
<glyph unicode="&#xbe;" horiz-adv-x="1226" d="M74 694v109h119v-96q0 -72 57 -72q59 0 59 72v151q0 80 -96 80h-57v109h43q96 0 96 71v86q0 45 -13.5 53.5t-35.5 8.5q-53 0 -53 -72v-41h-119v53q0 152 176 152q164 0 164 -144v-79q0 -102 -64 -127q53 -25 68 -64q8 -23 8 -92v-129q0 -109 -37 -143q-45 -41 -139 -41 q-176 0 -176 155zM319 0l490 1346h96l-489 -1346h-97zM758 166v92l186 537h168v-531h62v-98h-62v-166h-119v166h-235zM866 264h123v369z" />
<glyph unicode="&#xbf;" horiz-adv-x="636" d="M76 -45q0 141 92 313l49 92q45 84 55.5 122.5t18.5 138.5h139q0 -100 -12 -157.5t-56 -148.5l-57 -122q-61 -131 -61 -242q0 -133 92 -133q94 0 94 170v75h148v-94q0 -145 -50 -211q-66 -86 -194 -86q-117 0 -187.5 78t-70.5 205zM281 791v260h147v-260h-147z" />
<glyph unicode="&#xc0;" horiz-adv-x="679" d="M27 0l188 1366h217l219 -1366h-178l-41 256h-199l-32 -256h-174zM82 1757h180l115 -237h-94zM254 426h156l-72 592q-4 41 -10 112q-4 -55 -11 -108l-16 -141z" />
<glyph unicode="&#xc1;" horiz-adv-x="679" d="M27 0l188 1366h217l219 -1366h-178l-41 256h-199l-32 -256h-174zM254 426h156l-72 592q-4 41 -10 112q-4 -55 -11 -108l-16 -141zM301 1520l115 237h180l-201 -237h-94z" />
<glyph unicode="&#xc2;" horiz-adv-x="679" d="M27 0l188 1366h217l219 -1366h-178l-41 256h-199l-32 -256h-174zM117 1524l176 229h106l176 -229h-108l-119 129l-125 -129h-106zM254 426h156l-72 592q-4 41 -10 112q-4 -55 -11 -108l-16 -141z" />
<glyph unicode="&#xc3;" horiz-adv-x="679" d="M27 0l188 1366h217l219 -1366h-178l-41 256h-199l-32 -256h-174zM129 1546q31 182 162 183q45 0 86 -19l51 -22q33 -14 51 -15q35 0 66 45l8 13h51q-57 -170 -158 -170q-27 0 -67 18l-51 23q-41 18 -68 18q-59 0 -84 -74h-47zM254 426h156l-72 592q-4 41 -10 112 q-4 -55 -11 -108l-16 -141z" />
<glyph unicode="&#xc4;" horiz-adv-x="679" d="M27 0l188 1366h217l219 -1366h-178l-41 256h-199l-32 -256h-174zM125 1542v195h143v-195h-143zM254 426h156l-72 592q-4 41 -10 112q-4 -55 -11 -108l-16 -141zM381 1542v195h143v-195h-143z" />
<glyph unicode="&#xc5;" horiz-adv-x="679" d="M27 0l188 1366h217l219 -1366h-178l-41 256h-199l-32 -256h-174zM174 1638q0 70 47 117t117 47t117 -48t47 -118q0 -68 -48 -114.5t-116 -46.5q-70 0 -117 47t-47 116zM240 1638q0 -41 28.5 -69.5t69.5 -28.5t69.5 28.5t28.5 67.5q0 43 -28.5 72t-69.5 29t-69.5 -29 t-28.5 -70zM254 426h156l-72 592q-4 41 -10 112q-4 -55 -11 -108l-16 -141z" />
<glyph unicode="&#xc6;" horiz-adv-x="989" d="M27 0l280 1366h604v-170h-266v-416h232v-153h-232v-457h291v-170h-475v627h-137l-117 -627h-180zM354 780h107v416h-29z" />
<glyph unicode="&#xc7;" horiz-adv-x="737" d="M78 406v555q0 121 6 161q10 90 53 152q78 113 234 112q152 0 233 -112q43 -61 55 -150q6 -45 7 -163v-87h-187v183q0 96 -23.5 134t-82.5 38q-61 0 -86 -39t-25 -133v-748q0 -94 24.5 -133t86.5 -39q59 0 82.5 39t23.5 133v264h187v-167q0 -195 -29 -261 q-58 -130 -205 -159v-54q131 -45 131 -141q0 -125 -174 -125q-100 0 -182 60l39 45q66 -33 104 -33q66 0 66 59q0 51 -101 76v111q-86 16 -143 69q-66 59 -84 154q-10 49 -10 199z" />
<glyph unicode="&#xc8;" horiz-adv-x="595" d="M76 1757h180l115 -237h-95zM92 0v1366h451v-170h-267v-399h240v-170h-240v-457h267v-170h-451z" />
<glyph unicode="&#xc9;" horiz-adv-x="595" d="M92 0v1366h451v-170h-267v-399h238v-170h-238v-457h267v-170h-451zM287 1520l114 237h181l-201 -237h-94z" />
<glyph unicode="&#xca;" horiz-adv-x="595" d="M88 1524l176 229h107l176 -229h-109l-119 129l-124 -129h-107zM92 0v1366h451v-170h-267v-399h238v-170h-238v-457h267v-170h-451z" />
<glyph unicode="&#xcb;" horiz-adv-x="595" d="M92 0v1366h451v-170h-267v-399h238v-170h-238v-457h267v-170h-451zM117 1542v195h143v-195h-143zM373 1542v195h143v-195h-143z" />
<glyph unicode="&#xcc;" horiz-adv-x="370" d="M-57 1757h180l115 -237h-95zM92 0v1366h184v-1366h-184z" />
<glyph unicode="&#xcd;" horiz-adv-x="370" d="M92 0v1366h184v-1366h-184zM154 1520l114 237h181l-201 -237h-94z" />
<glyph unicode="&#xce;" horiz-adv-x="370" d="M-6 1524l145 229h107l145 -229h-108l-88 129l-95 -129h-106zM94 0v1366h185v-1366h-185z" />
<glyph unicode="&#xcf;" horiz-adv-x="370" d="M12 1542v195h144v-195h-144zM92 0v1366h184v-1366h-184zM227 1542v195h144v-195h-144z" />
<glyph unicode="&#xd0;" horiz-adv-x="716" d="M-2 629v170h96v567h318q133 0 180 -48t47 -185v-900q0 -135 -48 -184t-179 -49h-318v629h-96zM279 170h83q59 0 78 29q14 23 15 90v788q0 68 -16.5 93.5t-76.5 25.5h-83v-397h94v-170h-94v-459z" />
<glyph unicode="&#xd1;" horiz-adv-x="755" d="M92 0v1366h191l198 -831q8 -33 17 -78l14 -76q4 -14 10 -47l-4 78l-12 170q-2 33 -4 104l-17 680h179v-1366h-203l-234 1057q2 -37 6 -88l9 -127q4 -49 4 -86l18 -756h-172zM195 1546q31 182 161 183q45 0 86 -19l52 -22q33 -14 51 -15q35 0 65 45l8 13h52 q-57 -170 -158 -170q-27 0 -68 18l-51 23q-41 18 -67 18q-59 0 -84 -74h-47z" />
<glyph unicode="&#xd2;" horiz-adv-x="743" d="M78 406v555q0 121 6 161q10 90 53 152q78 113 234 112q154 0 233 -112q45 -63 55 -150q7 -42 7 -163v-555q0 -121 -7 -164q-10 -86 -55 -150q-78 -113 -233 -112q-156 0 -234 112q-43 61 -53 152q-6 41 -6 162zM123 1757h180l115 -237h-94zM262 309q0 -94 24.5 -133 t84.5 -39q61 0 85.5 38t24.5 134v748q0 96 -24.5 134t-85.5 38q-59 0 -84 -39t-25 -133v-748z" />
<glyph unicode="&#xd3;" horiz-adv-x="743" d="M78 406v555q0 121 6 161q10 90 53 152q78 113 234 112q154 0 233 -112q45 -63 55 -150q7 -42 7 -163v-555q0 -121 -7 -164q-10 -86 -55 -150q-78 -113 -233 -112q-156 0 -234 112q-43 61 -53 152q-6 41 -6 162zM262 309q0 -94 24.5 -133t84.5 -39q61 0 85.5 38t24.5 134 v748q0 96 -24.5 134t-85.5 38q-59 0 -84 -39t-25 -133v-748zM334 1520l115 237h180l-201 -237h-94z" />
<glyph unicode="&#xd4;" horiz-adv-x="743" d="M78 406v555q0 121 6 161q10 90 53 152q78 113 234 112q154 0 233 -112q45 -63 55 -150q7 -42 7 -163v-555q0 -121 -7 -164q-10 -86 -55 -150q-78 -113 -233 -112q-156 0 -234 112q-43 61 -53 152q-6 41 -6 162zM150 1524l176 229h106l176 -229h-108l-119 129l-125 -129 h-106zM262 309q0 -94 24.5 -133t84.5 -39q61 0 85.5 38t24.5 134v748q0 96 -24.5 134t-85.5 38q-59 0 -84 -39t-25 -133v-748z" />
<glyph unicode="&#xd5;" horiz-adv-x="743" d="M78 406v555q0 121 6 161q10 90 53 152q78 113 234 112q154 0 233 -112q45 -63 55 -150q7 -42 7 -163v-555q0 -121 -7 -164q-10 -86 -55 -150q-78 -113 -233 -112q-156 0 -234 112q-43 61 -53 152q-6 41 -6 162zM188 1546q31 182 162 183q45 0 86 -19l51 -22 q33 -14 52 -15q35 0 65 45l8 13h52q-57 -170 -158 -170q-27 0 -68 18l-51 23q-41 18 -68 18q-59 0 -83 -74h-48zM262 309q0 -94 24.5 -133t84.5 -39q61 0 85.5 38t24.5 134v748q0 96 -24.5 134t-85.5 38q-59 0 -84 -39t-25 -133v-748z" />
<glyph unicode="&#xd6;" horiz-adv-x="743" d="M78 406v555q0 121 6 161q10 90 53 152q78 113 234 112q154 0 233 -112q43 -63 55 -152q7 -42 7 -161v-555q0 -119 -7 -162q-12 -88 -55 -152q-78 -113 -233 -112q-156 0 -234 112q-43 61 -53 152q-6 41 -6 162zM184 1542v195h144v-195h-144zM262 309q0 -94 24.5 -133 t84.5 -39q61 0 85.5 38t24.5 134v748q0 96 -24.5 134t-85.5 38q-59 0 -84 -39t-25 -133v-748zM442 1542v195h144v-195h-144z" />
<glyph unicode="&#xd7;" d="M80 467l196 197l-194 194l96 96l195 -194l198 198l101 -98l-199 -198l199 -199l-97 -96l-200 198l-197 -198z" />
<glyph unicode="&#xd8;" horiz-adv-x="741" d="M-20 0l106 221q-8 49 -8 185v555q0 121 6 161q10 90 55 152q80 113 232 112q143 0 225 -102l59 123l70 -33l-84 -174q23 -57 23 -239v-555q0 -121 -7 -164q-10 -86 -55 -150q-78 -113 -231 -112q-168 0 -250 139l-70 -150zM262 309q0 -94 24.5 -133t84.5 -39 q59 0 83.5 39t24.5 133v553l-217 -448v-105zM262 592l217 448v43q0 145 -108 146q-59 0 -84 -39t-25 -133v-465z" />
<glyph unicode="&#xd9;" horiz-adv-x="759" d="M86 406v960h184v-1057q0 -94 24.5 -133t84.5 -39q61 0 85.5 38t24.5 134v1057h185v-960q0 -121 -6 -164q-10 -86 -56 -150q-78 -113 -233 -112q-156 0 -234 112q-43 61 -53 152q-6 41 -6 162zM143 1757h181l114 -237h-94z" />
<glyph unicode="&#xda;" horiz-adv-x="759" d="M86 406v960h184v-1057q0 -94 24.5 -133t84.5 -39q61 0 85.5 38t24.5 134v1057h185v-960q0 -121 -6 -164q-10 -86 -56 -150q-78 -113 -233 -112q-156 0 -234 112q-43 61 -53 152q-6 41 -6 162zM356 1520l115 237h180l-200 -237h-95z" />
<glyph unicode="&#xdb;" horiz-adv-x="759" d="M86 406v960h184v-1057q0 -94 24.5 -133t84.5 -39q61 0 85.5 38t24.5 134v1057h185v-960q0 -121 -6 -164q-10 -86 -56 -150q-78 -113 -233 -112q-156 0 -234 112q-43 61 -53 152q-6 41 -6 162zM164 1524l176 229h106l177 -229h-109l-119 129l-125 -129h-106z" />
<glyph unicode="&#xdc;" horiz-adv-x="759" d="M86 406v960h184v-1057q0 -94 24.5 -133t84.5 -39q61 0 85.5 38t24.5 134v1057h185v-960q0 -121 -6 -164q-10 -86 -56 -150q-78 -113 -233 -112q-156 0 -234 112q-43 61 -53 152q-6 41 -6 162zM193 1542v195h143v-195h-143zM449 1542v195h143v-195h-143z" />
<glyph unicode="&#xdd;" horiz-adv-x="614" d="M-6 1366h186l76 -311q31 -129 49 -238q16 113 51 238l86 311h181l-230 -807v-559h-184v559zM276 1520l115 237h180l-200 -237h-95z" />
<glyph unicode="&#xde;" horiz-adv-x="681" d="M92 0v1366h184v-205h148q135 0 176 -51q35 -43 35 -192v-267q0 -156 -42 -199.5t-169 -43.5h-148v-408h-184zM276 578h109q45 0 57 20q8 14 9 61v250q0 57 -15.5 69.5t-50.5 12.5h-109v-413z" />
<glyph unicode="&#xdf;" horiz-adv-x="622" d="M80 0v1151q0 229 231 229q229 0 230 -206v-97q0 -94 -74 -129q57 -27 74 -59q12 -25 12 -92v-574q0 -133 -39 -176q-55 -61 -156 -61q-41 0 -71 14v129h18q90 0 90 109v522q0 72 -22.5 98.5t-85.5 26.5v119q8 -2 18 -3q78 0 78 99v51q0 96 -78 96q-68 0 -67 -96v-1151 h-158z" />
<glyph unicode="&#xe0;" horiz-adv-x="608" d="M61 1430h181l114 -238h-94zM63 209v129q0 88 21.5 132t93.5 89l123 78q49 31 59.5 46t10.5 58v113q0 80 -68 80q-45 0 -67 -29q-14 -18 -15 -82v-110h-158v127q0 106 50 157q63 68 182 68q145 0 205 -94q29 -45 28 -148v-655q0 -90 31 -168h-168q-6 23 -22 84 q-61 -98 -154 -98q-100 0 -133 75q-18 43 -19 148zM221 219q0 -100 64 -100q35 0 60.5 40t25.5 97v260l-99 -72q-35 -27 -45 -59q-6 -20 -6 -74v-92z" />
<glyph unicode="&#xe1;" horiz-adv-x="608" d="M63 209v129q0 88 21.5 132t93.5 89l123 78q49 31 59.5 46t10.5 58v113q0 80 -68 80q-45 0 -67 -29q-14 -18 -15 -82v-110h-158v127q0 106 50 157q63 68 182 68q145 0 205 -94q29 -45 28 -148v-655q0 -90 31 -168h-168q-6 23 -22 84q-61 -98 -154 -98q-100 0 -133 75 q-18 43 -19 148zM221 219q0 -100 64 -100q35 0 60.5 40t25.5 97v260l-99 -72q-35 -27 -45 -59q-6 -20 -6 -74v-92zM260 1192l115 238h180l-201 -238h-94z" />
<glyph unicode="&#xe2;" horiz-adv-x="608" d="M63 209v129q0 88 21.5 132t93.5 89l123 78q49 31 59.5 46t10.5 58v113q0 80 -68 80q-45 0 -67 -29q-14 -18 -15 -82v-110h-158v127q0 106 50 157q63 68 182 68q145 0 205 -94q29 -45 28 -148v-655q0 -90 31 -168h-168q-6 23 -22 84q-61 -98 -154 -98q-100 0 -133 75 q-18 43 -19 148zM88 1196l176 229h107l176 -229h-109l-119 129l-124 -129h-107zM221 219q0 -100 64 -100q35 0 60.5 40t25.5 97v260l-99 -72q-35 -27 -45 -59q-6 -20 -6 -74v-92z" />
<glyph unicode="&#xe3;" horiz-adv-x="608" d="M63 209v129q0 88 21.5 132t93.5 89l123 78q49 31 59.5 46t10.5 58v113q0 80 -68 80q-45 0 -67 -29q-14 -18 -15 -82v-110h-158v127q0 106 50 157q63 68 182 68q145 0 205 -94q29 -45 28 -148v-655q0 -90 31 -168h-168q-6 23 -22 84q-61 -98 -154 -98q-100 0 -133 75 q-18 43 -19 148zM86 1219q31 182 162 182q45 0 86 -19l51 -22q29 -12 51 -12q37 0 66 43l8 12h51q-59 -170 -158 -170q-27 0 -67 18l-51 23q-41 18 -68 18q-59 0 -84 -73h-47zM221 219q0 -100 64 -100q35 0 60.5 40t25.5 97v260l-99 -72q-35 -27 -45 -59q-6 -20 -6 -74v-92z " />
<glyph unicode="&#xe4;" horiz-adv-x="608" d="M63 209v129q0 88 21.5 132t93.5 89l123 78q49 31 59.5 46t10.5 58v113q0 80 -68 80q-45 0 -67 -29q-14 -18 -15 -82v-110h-158v127q0 106 50 157q63 68 182 68q145 0 205 -94q29 -45 28 -148v-655q0 -90 31 -168h-168q-6 23 -22 84q-61 -98 -154 -98q-100 0 -133 75 q-18 43 -19 148zM123 1219v184h129v-184h-129zM221 219q0 -100 64 -100q35 0 60.5 40t25.5 97v260l-99 -72q-35 -27 -45 -59q-6 -20 -6 -74v-92zM360 1219v184h129v-184h-129z" />
<glyph unicode="&#xe5;" horiz-adv-x="608" d="M63 209v129q0 88 21.5 132t93.5 89l123 78q49 31 59.5 46t10.5 58v113q0 80 -68 80q-45 0 -67 -29q-14 -18 -15 -82v-110h-158v127q0 106 50 157q63 68 182 68q145 0 205 -94q29 -45 28 -148v-655q0 -90 31 -168h-168q-6 23 -22 84q-61 -98 -154 -98q-100 0 -133 75 q-18 43 -19 148zM143 1313q0 66 49 114t115 48q70 0 117 -47.5t47 -116.5q0 -68 -48 -116t-116 -48t-116 49t-48 117zM209 1313q0 -41 28.5 -71t69.5 -30t70 30t29 69q0 41 -29 69.5t-70 28.5q-39 0 -68.5 -28.5t-29.5 -67.5zM221 219q0 -100 64 -100q35 0 60.5 40t25.5 97 v260l-99 -72q-35 -27 -45 -59q-6 -20 -6 -74v-92z" />
<glyph unicode="&#xe6;" horiz-adv-x="903" d="M63 174v176q0 80 19.5 122t81.5 83l139 92l11 6q12 6 20 11q37 18 37 67v113q0 88 -80 88q-70 0 -70 -88v-137h-158v124q0 111 52 166q63 68 188 68q76 0 160 -47q68 47 155 47q104 0 168 -68q49 -53 50 -153v-359h-308v-233q0 -66 9 -90q16 -43 67 -43t66 43q8 25 8 90 v137h158v-151q0 -252 -222 -252q-160 0 -215 110q-51 -61 -80 -82q-41 -29 -106 -28q-82 0 -121 49q-29 37 -29 139zM221 227q0 -66 8 -77q16 -25 54 -25q88 0 88 131v262l-101 -72q-49 -35 -49 -106v-113zM528 623h150v176q0 66 -8 90q-16 43 -68 43q-51 0 -65 -43 q-8 -25 -9 -90v-176z" />
<glyph unicode="&#xe7;" horiz-adv-x="591" d="M70 266v518q0 162 47 213q61 68 184 68q127 0 186 -68q47 -53 48 -213v-112h-158v127q0 78 -16.5 106.5t-59.5 28.5q-51 0 -65 -45q-8 -23 -9 -90v-547q0 -66 9 -90q14 -43 65 -43t68 43q8 25 8 90v166h158v-152q0 -102 -11 -141q-18 -70 -84 -107q-37 -20 -92 -28v-58 q133 -43 133 -141q0 -125 -162 -125q-90 0 -174 60l39 45q63 -33 103 -33q66 0 65 59q0 51 -100 76v117q-66 12 -105 39q-55 37 -69 106q-8 35 -8 131z" />
<glyph unicode="&#xe8;" horiz-adv-x="604" d="M59 1430h181l114 -238h-94zM70 268v516q0 162 47 213q61 68 186 68t184 -68q47 -53 48 -213v-295h-308v-241q0 -66 9 -88q16 -41 67 -41t66 41q8 25 8 88v143h158v-123q0 -164 -48 -215q-61 -68 -186 -67q-123 0 -184 67q-47 51 -47 215zM227 618h150v181q0 66 -8 90 q-14 43 -66 43q-51 0 -67 -43q-8 -25 -9 -90v-181z" />
<glyph unicode="&#xe9;" horiz-adv-x="604" d="M70 268v516q0 162 47 213q61 68 186 68t184 -68q47 -53 48 -213v-295h-308v-241q0 -66 9 -88q16 -41 67 -41t66 41q8 25 8 88v143h158v-123q0 -164 -48 -215q-61 -68 -186 -67q-123 0 -184 67q-47 51 -47 215zM227 618h150v181q0 66 -8 90q-14 43 -66 43q-51 0 -67 -43 q-8 -25 -9 -90v-181zM270 1192l115 238h180l-200 -238h-95z" />
<glyph unicode="&#xea;" horiz-adv-x="604" d="M70 268v516q0 162 47 213q61 68 186 68t184 -68q47 -53 48 -213v-295h-308v-241q0 -66 9 -88q16 -41 67 -41t66 41q8 25 8 88v143h158v-123q0 -164 -48 -215q-61 -68 -186 -67q-123 0 -184 67q-47 51 -47 215zM86 1196l176 229h107l176 -229h-109l-119 129l-124 -129 h-107zM227 618h150v181q0 66 -8 90q-14 43 -66 43q-51 0 -67 -43q-8 -25 -9 -90v-181z" />
<glyph unicode="&#xeb;" horiz-adv-x="604" d="M70 268v516q0 162 47 213q61 68 186 68t184 -68q47 -53 48 -213v-295h-308v-241q0 -66 9 -88q16 -41 67 -41t66 41q8 25 8 88v143h158v-123q0 -164 -48 -215q-61 -68 -186 -67q-123 0 -184 67q-47 51 -47 215zM125 1219v184h129v-184h-129zM227 618h150v181q0 66 -8 90 q-14 43 -66 43q-51 0 -67 -43q-8 -25 -9 -90v-181zM362 1219v184h130v-184h-130z" />
<glyph unicode="&#xec;" horiz-adv-x="315" d="M-84 1430h180l115 -238h-94zM80 0v1051h158v-1051h-158z" />
<glyph unicode="&#xed;" horiz-adv-x="315" d="M80 0v1051h158v-1051h-158zM121 1192l115 238h180l-201 -238h-94z" />
<glyph unicode="&#xee;" horiz-adv-x="315" d="M-6 1196l119 229h106l117 -229h-111l-57 129l-64 -129h-110zM80 0v1051h158v-1051h-158z" />
<glyph unicode="&#xef;" horiz-adv-x="315" d="M2 1219v184h129v-184h-129zM80 0v1051h158v-1051h-158zM199 1219v184h129v-184h-129z" />
<glyph unicode="&#xf0;" horiz-adv-x="604" d="M70 268v549q0 248 254 248l-35 129l-164 -53l-33 108l170 58l-33 118l84 23l45 -111l177 45l32 -104l-164 -49l95 -234q27 -66 30 -90q6 -31 7 -106v-531q0 -160 -48 -213q-61 -70 -182 -69q-123 0 -188 69q-47 51 -47 213zM229 252q0 -66 9 -90q14 -43 65 -43t68 43 q8 25 8 90v547q0 66 -8 90q-14 43 -66 43q-51 0 -67 -43q-9 -24 -9 -90v-547z" />
<glyph unicode="&#xf1;" horiz-adv-x="622" d="M80 0v1051h158v-70q68 84 151 84q98 0 135 -84q20 -47 21 -158v-823h-158v793q0 66 -8 90q-16 43 -68 43q-51 0 -65 -43q-8 -25 -8 -90v-793h-158zM129 1219q31 182 162 182q45 0 86 -19l51 -22q29 -12 51 -12q37 0 66 43l8 12h51q-59 -170 -158 -170q-27 0 -67 18 l-51 23q-41 18 -68 18q-59 0 -84 -73h-47z" />
<glyph unicode="&#xf2;" horiz-adv-x="604" d="M66 1430h180l114 -238h-94zM70 268v547q0 250 237 250q123 0 182 -76q43 -55 43 -192v-529q0 -164 -47 -215q-61 -68 -184 -67q-125 0 -184 67q-47 53 -47 215zM227 252q0 -66 9 -90q14 -43 65 -43t66 43q8 25 8 90v547q0 66 -8 90q-14 43 -66 43q-51 0 -65 -43 q-9 -24 -9 -90v-547z" />
<glyph unicode="&#xf3;" horiz-adv-x="604" d="M70 268v547q0 250 237 250q127 0 185 -76q43 -57 43 -192v-529q0 -164 -48 -215q-61 -68 -184 -67q-127 0 -186 67q-47 53 -47 215zM227 252q0 -66 9 -90q14 -43 65 -43t68 43q8 25 8 90v547q0 66 -8 90q-14 43 -66 43q-51 0 -67 -43q-9 -24 -9 -90v-547zM264 1192 l115 238h180l-201 -238h-94z" />
<glyph unicode="&#xf4;" horiz-adv-x="604" d="M70 268v547q0 250 237 250q127 0 185 -76q43 -57 43 -192v-529q0 -164 -48 -215q-61 -68 -184 -67q-127 0 -186 67q-47 53 -47 215zM86 1196l176 229h107l176 -229h-109l-119 129l-124 -129h-107zM227 252q0 -66 9 -90q14 -43 65 -43t68 43q8 25 8 90v547q0 66 -8 90 q-14 43 -66 43q-51 0 -67 -43q-9 -24 -9 -90v-547z" />
<glyph unicode="&#xf5;" horiz-adv-x="604" d="M70 268v547q0 250 237 250q127 0 185 -76q43 -57 43 -192v-529q0 -164 -48 -215q-61 -68 -184 -67q-127 0 -186 67q-47 53 -47 215zM125 1219q31 182 162 182q45 0 86 -19l51 -22q29 -12 51 -12q37 0 66 43l8 12h51q-59 -170 -158 -170q-27 0 -67 18l-51 23 q-41 18 -68 18q-59 0 -84 -73h-47zM227 252q0 -66 9 -90q14 -43 65 -43t68 43q8 25 8 90v547q0 66 -8 90q-14 43 -66 43q-51 0 -67 -43q-9 -24 -9 -90v-547z" />
<glyph unicode="&#xf6;" horiz-adv-x="604" d="M70 268v547q0 250 237 250q127 0 185 -76q43 -57 43 -192v-529q0 -164 -48 -215q-61 -68 -184 -67q-127 0 -186 67q-47 53 -47 215zM131 1219v184h129v-184h-129zM227 252q0 -66 9 -90q14 -43 65 -43t68 43q8 25 8 90v547q0 66 -8 90q-14 43 -66 43q-51 0 -67 -43 q-9 -24 -9 -90v-547zM369 1219v184h129v-184h-129z" />
<glyph unicode="&#xf7;" d="M68 594v137h614v-137h-614zM305 246v221h141v-221h-141zM305 858v221h141v-221h-141z" />
<glyph unicode="&#xf8;" horiz-adv-x="604" d="M27 -25l59 131q-16 49 -16 162v547q0 250 235 250q115 0 178 -66l45 103l60 -27l-66 -143q12 -45 13 -135v-529q0 -164 -48 -215q-61 -68 -182 -67q-113 0 -178 59l-43 -96zM227 225q0 -106 74 -106q51 0 68 43q8 25 8 90v354l-150 -336v-45zM227 424l150 338v37 q0 66 -8 90q-14 43 -66 43q-51 0 -67 -43q-8 -25 -9 -90v-375z" />
<glyph unicode="&#xf9;" horiz-adv-x="622" d="M76 1430h180l115 -238h-95zM80 227v824h158v-793q0 -66 8 -90q16 -43 67 -43t66 43q8 25 8 90v793h156v-1051h-156v70q-59 -84 -154 -84q-98 0 -135 84q-18 43 -18 157z" />
<glyph unicode="&#xfa;" horiz-adv-x="622" d="M80 227v824h158v-793q0 -66 8 -90q16 -43 67 -43t66 45q8 25 8 90v791h158v-1051h-158v70q-59 -84 -154 -84q-100 0 -135 84q-18 43 -18 157zM274 1192l115 238h180l-200 -238h-95z" />
<glyph unicode="&#xfb;" horiz-adv-x="622" d="M80 227v824h158v-793q0 -66 8 -90q16 -43 67 -43t66 45q8 25 8 90v791h158v-1051h-158v70q-59 -84 -154 -84q-100 0 -135 84q-18 43 -18 157zM96 1196l176 229h107l176 -229h-109l-118 129l-125 -129h-107z" />
<glyph unicode="&#xfc;" horiz-adv-x="622" d="M80 227v824h158v-793q0 -66 8 -90q16 -43 67 -43t66 45q8 25 8 90v791h158v-1051h-158v70q-59 -84 -154 -84q-100 0 -135 84q-18 43 -18 157zM135 1219v184h129v-184h-129zM373 1219v184h129v-184h-129z" />
<glyph unicode="&#xfd;" horiz-adv-x="524" d="M6 1051h158l51 -416q14 -115 49 -414q4 37 8 84l15 178q8 94 14 148l53 420h162l-186 -1155q-20 -131 -64.5 -177.5t-144.5 -46.5h-74v158q10 -2 29 -2q61 0 80 43q12 27 12 100q0 68 -8 119zM231 1192l115 238h180l-200 -238h-95z" />
<glyph unicode="&#xfe;" horiz-adv-x="612" d="M80 -328v1694h158v-389q51 88 141 88t137 -68q29 -41 29 -159v-600q0 -125 -25 -172q-41 -80 -139 -80q-74 0 -143 88v-402h-158zM238 258q0 -66 8 -90q16 -43 67 -43t66 45q8 24 8 90v533q0 66 -8 90q-14 43 -66 43q-51 0 -67 -43q-8 -25 -8 -90v-535z" />
<glyph unicode="&#xff;" horiz-adv-x="524" d="M6 1051h158l51 -416q14 -115 49 -414q4 37 8 84l15 178q8 94 14 148l53 420h162l-186 -1155q-20 -131 -64.5 -177.5t-144.5 -46.5h-74v158q10 -2 29 -2q61 0 80 43q12 27 12 100q0 68 -8 119zM84 1219v184h129v-184h-129zM322 1219v184h129v-184h-129z" />
<glyph unicode="&#x152;" horiz-adv-x="956" d="M78 365v636q0 129 8 175q16 98 82 145q76 53 197 51l86 -2q20 0 39 -2l18 -2h397v-170h-276v-403h237v-170h-237v-453h276v-170h-397l-18 -2q-19 -2 -39 -2l-93 -2q-129 -2 -206 65q-53 47 -68 144q-6 39 -6 162zM262 285q0 -135 90 -135q92 0 92 135v796q0 135 -90 136 q-92 -1 -92 -136v-796z" />
<glyph unicode="&#x153;" horiz-adv-x="911" d="M70 236v573q0 147 69 205q63 53 162 53q80 0 162 -49q66 49 160 49q129 0 186 -86q33 -49 33 -172v-322h-307v-233q0 -68 8 -92q16 -43 67 -43t66 45q8 25 8 90v135h158v-139q0 -137 -56 -197q-63 -68 -168 -67q-90 0 -155 51q-98 -51 -164 -51q-109 0 -174 65 q-55 55 -55 185zM227 254q0 -68 9 -92q16 -43 67 -43t66 45q8 25 8 90v549q0 63 -8 88q-16 43 -66 43q-51 0 -67 -43q-9 -22 -9 -88v-549zM535 625h149v178q0 66 -8 88q-14 43 -66 43q-51 0 -67 -41q-8 -25 -8 -90v-178z" />
<glyph unicode="&#x178;" horiz-adv-x="614" d="M-6 1366h186l76 -311q31 -129 49 -238q16 113 51 238l86 311h181l-230 -807v-559h-184v559zM121 1542v195h143v-195h-143zM379 1542v195h143v-195h-143z" />
<glyph unicode="&#x2c6;" horiz-adv-x="1024" d="M283 1196l176 229h106l176 -229h-108l-119 129l-125 -129h-106z" />
<glyph unicode="&#x2dc;" horiz-adv-x="1024" d="M274 1219q31 182 162 182q45 0 86 -19l51 -22q29 -12 52 -12q37 0 65 43l8 12h52q-59 -170 -158 -170q-27 0 -68 18l-51 23q-41 18 -67 18q-59 0 -84 -73h-48z" />
<glyph unicode="&#x2000;" horiz-adv-x="901" />
<glyph unicode="&#x2001;" horiz-adv-x="1802" />
<glyph unicode="&#x2002;" horiz-adv-x="901" />
<glyph unicode="&#x2003;" horiz-adv-x="1802" />
<glyph unicode="&#x2004;" horiz-adv-x="600" />
<glyph unicode="&#x2005;" horiz-adv-x="450" />
<glyph unicode="&#x2006;" horiz-adv-x="300" />
<glyph unicode="&#x2007;" horiz-adv-x="300" />
<glyph unicode="&#x2008;" horiz-adv-x="225" />
<glyph unicode="&#x2009;" horiz-adv-x="360" />
<glyph unicode="&#x200a;" horiz-adv-x="100" />
<glyph unicode="&#x2010;" horiz-adv-x="256" d="M0 444v162h256v-162h-256z" />
<glyph unicode="&#x2011;" horiz-adv-x="256" d="M0 444v162h256v-162h-256z" />
<glyph unicode="&#x2012;" horiz-adv-x="256" d="M0 444v162h256v-162h-256z" />
<glyph unicode="&#x2013;" d="M96 444v162h559v-162h-559z" />
<glyph unicode="&#x2014;" horiz-adv-x="772" d="M0 444v162h772v-162h-772z" />
<glyph unicode="&#x2018;" horiz-adv-x="348" d="M96 887v207q0 135 58 217q43 61 100 78v-43q-70 -41 -74 -150l2 -6l4 -57h68v-246h-158z" />
<glyph unicode="&#x2019;" horiz-adv-x="348" d="M96 866v43q74 45 70 156l-2 55h-68v246h158v-207q0 -135 -57 -217q-43 -61 -101 -76z" />
<glyph unicode="&#x201a;" horiz-adv-x="348" d="M96 0v246h158v-207q0 -135 -57 -217q-41 -59 -101 -76v43q68 45 68 156v55h-68z" />
<glyph unicode="&#x201c;" horiz-adv-x="600" d="M96 879v221q0 139 56 217q43 61 102 76v-41q-74 -49 -74 -158v-55h74v-260h-158zM348 879v221q0 135 58 217q43 61 100 76v-41q-72 -49 -72 -156v-57h72v-260h-158z" />
<glyph unicode="&#x201d;" horiz-adv-x="600" d="M96 852v43q72 47 72 156v55h-72v260h158v-221q0 -135 -57 -217q-41 -59 -101 -76zM348 852v43q74 47 74 156v55h-74v260h158v-221q0 -252 -158 -293z" />
<glyph unicode="&#x201e;" horiz-adv-x="600" d="M96 0v260h158v-221q0 -135 -57 -217q-41 -59 -101 -76v43q72 47 72 156v55h-72zM348 0v260h158v-221q0 -252 -158 -293v43q74 45 74 156v55h-74z" />
<glyph unicode="&#x2022;" horiz-adv-x="1366" d="M401 692q0 119 84 202t205 83q113 0 196 -84t83 -199q0 -119 -83 -201.5t-200 -82.5t-201 82.5t-84 199.5z" />
<glyph unicode="&#x2026;" horiz-adv-x="1044" d="M96 0v246h158v-246h-158zM444 0v246h158v-246h-158zM793 0v246h157v-246h-157z" />
<glyph unicode="&#x202f;" horiz-adv-x="360" />
<glyph unicode="&#x2039;" horiz-adv-x="407" d="M61 422v205l258 227v-192l-151 -138l151 -135v-190z" />
<glyph unicode="&#x203a;" horiz-adv-x="407" d="M88 199v190l152 137l-152 138v190l258 -225v-203z" />
<glyph unicode="&#x205f;" horiz-adv-x="450" />
<glyph unicode="&#x20ac;" horiz-adv-x="909" d="M96 618l33 125h98v218q0 121 4 161q12 90 56 152q78 113 233 112q154 0 234 -112q43 -61 55 -150q6 -45 6 -163v-87h-186v183q0 94 -24.5 133t-84.5 39q-59 0 -83.5 -39t-24.5 -133v-314h284l-32 -125h-252v-309q0 -94 24.5 -133t83.5 -39t84 39t25 133v244h186v-147 q0 -121 -6 -162q-10 -90 -55 -152q-80 -113 -234 -112q-156 0 -233 112q-43 61 -54 152q-6 41 -6 162v212h-131z" />
<glyph unicode="&#x2122;" horiz-adv-x="1024" d="M20 1257v109h381v-109h-127v-669h-124v669h-130zM475 588v778h164l84 -477l74 477h172v-778h-115v569q-8 -94 -8 -76l-8 -59l-72 -434h-88l-78 489q-8 51 -8 60l-2 12v-561h-115z" />
<glyph unicode="&#x25fc;" horiz-adv-x="1054" d="M0 0v1055h1055v-1055h-1055z" />
<glyph unicode="&#xfb03;" horiz-adv-x="1001" d="M14 913v138h88v151q0 68 4 90q10 49 48 70q29 16 137 16h57v-137h-31q-57 0 -57 -65v-125h174v151q0 68 4 90q10 49 47 70q29 16 138 16h57v-137h-31q-57 0 -57 -65v-125h88v-138h-88v-913h-158v913h-174v-913h-158v913h-88zM766 0v1051h158v-1051h-158zM766 1149v217 h158v-217h-158z" />
<glyph unicode="&#xfb04;" horiz-adv-x="1001" d="M14 913v138h88v151q0 68 4 90q10 49 48 70q29 16 137 16h57v-137h-31q-57 0 -57 -65v-125h174v151q0 68 4 90q10 49 47 70q29 16 138 16h57v-137h-31q-57 0 -57 -65v-125h88v-138h-88v-913h-158v913h-174v-913h-158v913h-88zM766 0v1366h158v-1366h-158z" />
</font>
</defs>
</svg>
