<?xml version="1.0" standalone="no"?>
<!DOCTYPE svg PUBLIC "-//W3C//DTD SVG 1.1//EN" "http://www.w3.org/Graphics/SVG/1.1/DTD/svg11.dtd" >
<svg xmlns="http://www.w3.org/2000/svg">
<metadata></metadata>
<defs>
<font id="anconabolditalic" horiz-adv-x="1228" >
<font-face units-per-em="2048" ascent="1638" descent="-410" />
<missing-glyph horiz-adv-x="692" />
<glyph horiz-adv-x="2048" />
<glyph horiz-adv-x="2048" />
<glyph unicode="&#xd;" horiz-adv-x="692" />
<glyph unicode=" "  horiz-adv-x="692" />
<glyph unicode="&#x09;" horiz-adv-x="692" />
<glyph unicode="&#xa0;" horiz-adv-x="692" />
<glyph unicode="!" horiz-adv-x="573" d="M20 0l74 322h316l-76 -322h-314zM223 471l15 465l98 430h313l-90 -391l-209 -504h-127z" />
<glyph unicode="&#x22;" horiz-adv-x="911" d="M178 819l66 547h358l-188 -547h-236zM627 819l65 547h359l-189 -547h-235z" />
<glyph unicode="#" d="M96 432l58 180h196l58 168h-197l57 181h197l96 294h184l-96 -294h182l97 294h184l-96 -294h217l-57 -181h-218l-55 -168h217l-59 -180h-217l-105 -323h-184l104 323h-182l-104 -323h-185l105 323h-197zM535 612h184l55 168h-182z" />
<glyph unicode="$" d="M39 303l285 176q33 -170 186 -211l72 314l-70 30q-106 47 -135 68q-23 14 -60 59q-68 82 -67 201q0 188 133 305t350 117q8 0 29 -2l26 119h125l-30 -125q272 -33 399 -262l-270 -158q-41 133 -189 162l-55 -244l49 -27q55 -31 187 -94q45 -20 73 -53q86 -94 86 -232 q0 -205 -143 -328.5t-375 -123.5q-10 0 -76 4l-39 -168h-122l41 176q-287 43 -410 297zM537 987q-1 -67 114 -108l51 221q-166 -10 -165 -113zM631 256q6 -2 18 -2q86 -4 151.5 41t65.5 108q0 68 -106 119q-17 8 -62 31z" />
<glyph unicode="%" horiz-adv-x="1685" d="M176 895q0 219 156 387q116 127 276 127q131 0 210 -81t79 -216q0 -190 -135 -352q-123 -147 -289 -148q-131 0 -214 79t-83 204zM270 -39l1147 1516l94 -72l-1144 -1516zM379 903q0 -119 108 -119q78 0 140 109q66 117 65 221q0 127 -102 127q-78 0 -139 -106 q-72 -125 -72 -232zM885 246q0 221 155 387q119 127 277 127q131 0 210 -81t79 -218q0 -190 -136 -352q-123 -147 -288 -148q-131 0 -214 79t-83 206zM1087 252q0 -119 109 -119q78 0 139 109q66 117 66 223q-1 127 -103 127q-78 0 -139 -107q-72 -123 -72 -233z" />
<glyph unicode="&#x26;" horiz-adv-x="1345" d="M41 338q0 201 182 340q88 68 260 141q-41 104 -41 180q0 154 105.5 255.5t265.5 101.5q139 0 231.5 -79t92.5 -200q0 -211 -330 -354q25 -74 119 -264q76 94 141 215l217 -88q-100 -209 -233 -342q63 -51 123 -51q30 0 75 12l-47 -205q-111 -12 -145 -12q-127 0 -207 96 q-115 -70 -182 -92q-80 -27 -197 -27q-199 0 -314.5 100.5t-115.5 272.5zM342 371q0 -78 50 -127t128 -49q90 0 207 88q-86 159 -162 335q-223 -102 -223 -247zM698 1057q0 -44 31 -142q170 78 170 154q0 37 -28.5 62.5t-71.5 25.5q-100 0 -101 -100z" />
<glyph unicode="'" horiz-adv-x="473" d="M178 819l66 547h368l-188 -547h-246z" />
<glyph unicode="(" horiz-adv-x="798" d="M80 377q0 477 366 801q152 133 371 256l123 -107q-233 -164 -358 -344q-211 -305 -211 -682q0 -303 184 -559l-149 -96q-326 348 -326 731z" />
<glyph unicode=")" horiz-adv-x="798" d="M-111 -248q238 170 359 350q213 317 213 682q0 301 -187 553l150 97q328 -348 328 -723q0 -473 -367 -803q-150 -135 -373 -262z" />
<glyph unicode="*" d="M381 1120l82 135l221 -133l57 252l154 -35l-57 -252l258 23l12 -158l-256 -22l100 -238l-145 -61l-100 237l-197 -170l-102 119l194 170z" />
<glyph unicode="+" d="M152 580v204h409v398h205v-398h410v-204h-410v-396h-205v396h-409z" />
<glyph unicode="," horiz-adv-x="526" d="M-84 -334l31 129q133 74 176 205h-129l76 334h321l-57 -250q-41 -176 -140.5 -275.5t-277.5 -142.5z" />
<glyph unicode="-" horiz-adv-x="450" d="M-25 369l64 272h450l-63 -272h-451z" />
<glyph unicode="." horiz-adv-x="526" d="M-6 0l78 334h319l-76 -334h-321z" />
<glyph unicode="/" horiz-adv-x="544" d="M-150 -354l556 1720h276l-555 -1720h-277z" />
<glyph unicode="0" d="M82 467q0 176 57.5 359.5t149.5 306.5q168 223 465 223q229 0 355 -132t126 -376q0 -156 -56.5 -342.5t-136.5 -294.5q-176 -242 -475 -242q-229 0 -357 131t-128 367zM391 451q0 -111 52.5 -176.5t140.5 -65.5q154 0 247 224t93 429q-1 254 -187 254q-145 0 -229 -180 q-117 -250 -117 -485z" />
<glyph unicode="1" d="M322 932l49 211q180 -2 270 38t147 144h242l-305 -1325h-315l223 961q-125 -31 -246 -31q-37 0 -65 2z" />
<glyph unicode="2" d="M45 0l61 266q180 115 490 322q180 127 243.5 201.5t63.5 160.5q0 72 -50 119t-126 47q-96 0 -160.5 -69.5t-64.5 -174.5q0 -29 6 -75l-293 32q18 246 102 349q143 178 433 178q215 0 341 -106.5t126 -286.5q0 -242 -273 -447q-121 -90 -438 -270h594l-58 -246h-997z" />
<glyph unicode="3" d="M35 381q0 35 2 59l332 31q-8 -55 -9 -74q0 -84 62.5 -136t165.5 -52q100 0 164.5 59.5t64.5 151.5q0 160 -227 160q2 0 -72 -5l47 201q59 -8 99 -8q121 0 192.5 52t71.5 141q0 156 -187 155q-195 0 -219 -166q-4 -22 -4 -69l-305 45q16 203 145 309q145 121 390 121 q240 0 370.5 -97.5t130.5 -275.5q0 -127 -73 -213q-55 -63 -175 -104q154 -94 154 -254q0 -203 -153.5 -323t-411.5 -120q-244 0 -385 88q-78 47 -124 135.5t-46 188.5z" />
<glyph unicode="4" d="M72 313l59 254l674 758h375l-183 -790h193l-51 -222h-193l-72 -313h-315l74 313h-561zM360 535h324l113 493z" />
<glyph unicode="5" d="M82 414l324 14q-2 -16 -3 -35q0 -82 52.5 -133t136.5 -51q106 0 172.5 75.5t66.5 194.5q0 94 -53 149.5t-143 55.5q-106 0 -180 -104l-271 55l160 690h901l-57 -246h-643l-60 -252q121 96 275 97q186 0 298.5 -111t112.5 -295q0 -244 -168.5 -396.5t-437.5 -152.5 q-297 0 -418 183q-63 96 -65 262z" />
<glyph unicode="6" d="M106 518q0 182 66 359.5t174 289.5q182 188 459 189q225 0 352 -119q88 -84 119 -238l-313 -43q-35 160 -187 160q-121 0 -217 -108q-61 -70 -102 -230q156 121 305 121q184 0 298 -110.5t114 -290.5q0 -229 -159 -379t-401 -150q-233 0 -370.5 148.5t-137.5 400.5z M434 410q0 -88 52.5 -144.5t131.5 -56.5q94 0 162 76.5t68 181.5q0 88 -52.5 140t-138.5 52q-92 0 -157.5 -73.5t-65.5 -175.5z" />
<glyph unicode="7" d="M125 0q162 483 766 1073h-707l56 246h1056l-55 -246q-242 -197 -459 -507t-288 -566h-369z" />
<glyph unicode="8" d="M74 367q0 168 119 270q66 57 180 88q-145 92 -146 240q0 166 137.5 278.5t378.5 112.5q215 0 338 -93.5t123 -256.5q0 -230 -227 -308q190 -98 190 -286q0 -164 -112 -287q-143 -156 -457 -156q-240 0 -382 107.5t-142 290.5zM387 377q0 -78 61.5 -123t165.5 -45 q106 0 167 48t61 132q-1 174 -224 174q-104 0 -167.5 -51t-63.5 -135zM520 954q0 -74 52.5 -116.5t140.5 -42.5q90 0 144 47t54 125q0 74 -51 118.5t-135 44.5q-90 0 -147.5 -49t-57.5 -127z" />
<glyph unicode="9" d="M41 326l313 43q35 -160 189 -160q119 0 215 108q66 74 102 230q-156 -121 -305 -121q-184 0 -298 110.5t-114 290.5q0 229 159 379t400 150q233 0 370.5 -148.5t137.5 -400.5q0 -182 -65.5 -359.5t-173.5 -289.5q-182 -188 -457 -189q-225 0 -352 119q-88 82 -121 238z M467 858q0 -88 52 -140t138 -52q94 0 159 72.5t65 176.5q0 88 -52.5 144.5t-132.5 56.5q-94 0 -161.5 -76.5t-67.5 -181.5z" />
<glyph unicode=":" horiz-adv-x="526" d="M-6 0l78 334h319l-76 -334h-321zM150 676l77 334h322l-78 -334h-321z" />
<glyph unicode=";" horiz-adv-x="526" d="M-84 -334l31 129q133 74 176 205h-129l76 334h321l-57 -250q-41 -176 -140.5 -275.5t-277.5 -142.5zM150 676l77 334h320l-76 -334h-321z" />
<glyph unicode="&#x3c;" horiz-adv-x="1024" d="M102 553v276l887 476v-330l-536 -285l534 -284l2 -328z" />
<glyph unicode="=" d="M152 395v205h1024v-205h-1024zM152 766v205h1024v-205h-1024z" />
<glyph unicode="&#x3e;" horiz-adv-x="1024" d="M102 78v330l537 284l-535 285l-2 328l887 -476v-276z" />
<glyph unicode="?" horiz-adv-x="1095" d="M150 1006q106 395 559 395q186 0 315 -88q141 -96 141 -266q0 -236 -272 -357l-121 -53q-139 -62 -170 -162h-270q20 166 190 268l201 121q106 63 106 158q0 59 -43 96t-112 37q-168 0 -221 -219zM209 0l78 332h313l-76 -332h-315z" />
<glyph unicode="@" horiz-adv-x="1542" d="M135 670q0 287 201 485.5t489 198.5q256 0 439.5 -167t183.5 -403q0 -238 -188 -378q-125 -94 -252 -95q-100 0 -148 76q-123 -82 -209 -82q-113 0 -186.5 79t-73.5 200q0 166 123 302t272 136q121 0 199 -88l21 55h198l-155 -483q-4 -12 -11.5 -31.5t-7.5 -32.5 q0 -37 41 -36q76 0 160 104q94 117 94 264q0 190 -148.5 328.5t-353.5 138.5q-236 0 -396.5 -164t-160.5 -403q0 -242 164 -408t401 -166q135 0 259 67.5t202 182.5h140q-84 -168 -251 -268t-356 -100q-287 0 -488.5 200.5t-201.5 487.5zM610 512q0 -113 80 -113 q102 0 172 197l45 129q20 59 21 100q0 39 -21.5 64.5t-54.5 25.5q-102 0 -172 -150.5t-70 -252.5z" />
<glyph unicode="A" horiz-adv-x="1366" d="M-113 0l861 1366h360l170 -1366h-352l-17 262h-495l-146 -262h-381zM547 514h346l-35 526z" />
<glyph unicode="B" horiz-adv-x="1409" d="M20 0l316 1366h602q440 0 440 -330q0 -244 -274 -325q119 -49 167 -114t48 -173q0 -184 -139 -309q-129 -115 -404 -115h-756zM420 252h299q143 0 192.5 53t49.5 135q0 86 -68 119q-37 16 -168 16h-229zM553 827h272q211 0 211 160q0 72 -43 99.5t-157 27.5h-218z" />
<glyph unicode="C" horiz-adv-x="1478" d="M123 586q0 412 270 645q197 170 496 170q295 0 461 -144q108 -94 153 -268l-332 -94q-14 102 -53 152q-65 81 -211 81h-4q-217 0 -328 -184q-88 -145 -88 -366q0 -160 81 -250t223 -90q117 0 196.5 64.5t153.5 217.5l291 -153q-211 -401 -658 -402q-307 0 -479 164 t-172 457z" />
<glyph unicode="D" horiz-adv-x="1468" d="M20 0l316 1366h532q315 0 465 -158q123 -129 123 -358q0 -328 -180 -580q-102 -143 -248.5 -206.5t-374.5 -63.5h-633zM424 266h217q137 0 220 48t147 167q92 170 92 344q0 125 -64 195q-72 80 -245 80h-175z" />
<glyph unicode="E" horiz-adv-x="1277" d="M20 0l316 1366h1030l-61 -266h-689l-61 -262h625l-60 -252h-622l-74 -320h752l-62 -266h-1094z" />
<glyph unicode="F" d="M20 0l316 1366h1057l-62 -266h-715l-69 -301h672l-58 -252h-674l-125 -547h-342z" />
<glyph unicode="G" horiz-adv-x="1568" d="M123 578q0 336 186 559q221 264 596 264q291 0 459 -154q94 -86 135 -233l-325 -84q-39 106 -100.5 151t-170.5 45q-209 0 -319 -188q-88 -152 -88 -350q0 -139 69 -236q81 -112 247 -112h3q244 0 307 237h-313l59 260h648l-170 -737h-314l25 106q-100 -82 -174 -111.5 t-181 -29.5q-285 0 -448 199q-131 158 -131 414z" />
<glyph unicode="H" horiz-adv-x="1454" d="M20 0l316 1366h342l-117 -506h512l117 506h342l-315 -1366h-343l132 567h-512l-132 -567h-342z" />
<glyph unicode="I" horiz-adv-x="600" d="M20 0l316 1366h342l-316 -1366h-342z" />
<glyph unicode="J" horiz-adv-x="761" d="M-80 -6l64 272q61 -18 125 -18q82 0 117.5 34.5t60.5 141.5l217 942h340l-236 -1028q-31 -137 -61.5 -195.5t-91.5 -99.5q-117 -78 -308 -78q-98 0 -227 29z" />
<glyph unicode="K" horiz-adv-x="1388" d="M20 0l316 1366h342l-129 -557l590 557h442l-594 -522l334 -844h-356l-230 623l-286 -248l-87 -375h-342z" />
<glyph unicode="L" horiz-adv-x="1079" d="M20 0l316 1366h342l-252 -1085h575l-63 -281h-918z" />
<glyph unicode="M" horiz-adv-x="1773" d="M20 0l316 1366h498l40 -877l465 877h510l-315 -1366h-346l291 1094l-572 -1094h-270l-59 1094l-211 -1094h-347z" />
<glyph unicode="N" horiz-adv-x="1435" d="M20 0l316 1366h342l321 -885l175 885h339l-315 -1366h-356l-312 868l-168 -868h-342z" />
<glyph unicode="O" horiz-adv-x="1521" d="M115 539q0 188 67.5 362t188.5 293q209 207 520 207q291 0 454.5 -155.5t163.5 -430.5q0 -166 -65.5 -339t-173.5 -288q-209 -223 -551 -223q-293 0 -461 164q-143 141 -143 410zM469 547q0 -309 279 -309q190 0 303.5 184t113.5 383q0 323 -291 323q-201 0 -313 -204 q-92 -166 -92 -377z" />
<glyph unicode="P" horiz-adv-x="1353" d="M20 0l316 1366h569q244 0 373 -105.5t129 -304.5q0 -231 -158.5 -371.5t-478.5 -140.5h-305l-103 -444h-342zM522 696h244q168 0 231.5 76t63.5 166q0 168 -217 168h-228z" />
<glyph unicode="Q" horiz-adv-x="1540" d="M115 539q0 401 256 655q209 207 522 207q283 0 449.5 -153.5t166.5 -413.5q0 -305 -176 -564q115 -70 246 -88l-127 -258q-217 29 -319 152q-186 -111 -414 -111q-293 0 -461 164q-143 141 -143 410zM469 547q0 -309 279 -309q190 0 303.5 184t113.5 383q0 323 -291 323 q-201 0 -313 -204q-92 -166 -92 -377z" />
<glyph unicode="R" horiz-adv-x="1361" d="M20 0l316 1366h526q162 0 248 -21.5t150 -74.5q125 -109 124 -293q0 -360 -372 -447l215 -530h-361l-166 485h-227l-111 -485h-342zM532 737h252q145 0 205 68q51 59 51 160q0 141 -196 141h-228z" />
<glyph unicode="S" horiz-adv-x="1296" d="M-6 289l305 186q70 -237 336 -237h2q109 0 174.5 44t65.5 115q0 88 -170 148l-203 69q-164 55 -236.5 139.5t-72.5 213.5q0 201 150.5 317.5t410.5 116.5q240 0 395 -94q98 -60 182 -191l-291 -164q-80 176 -303 176q-90 0 -144 -32.5t-54 -85.5q0 -70 135 -117l155 -55 q219 -78 299 -154q102 -98 103 -254q0 -211 -157.5 -338t-446.5 -127q-274 0 -445 109q-104 68 -190 215z" />
<glyph unicode="T" horiz-adv-x="1067" d="M141 1090l64 276h1067l-64 -276h-350l-252 -1090h-340l250 1090h-375z" />
<glyph unicode="U" horiz-adv-x="1429" d="M121 379q0 84 22 182l185 805h342l-189 -817q-18 -80 -18 -127q0 -166 231 -166q123 0 186.5 64.5t100.5 228.5l188 817h342l-213 -920q-59 -258 -214.5 -369.5t-403.5 -111.5q-266 0 -412.5 108.5t-146.5 305.5z" />
<glyph unicode="V" horiz-adv-x="1253" d="M176 1366h350l80 -915l488 915h389l-797 -1366h-350z" />
<glyph unicode="W" horiz-adv-x="1900" d="M176 1366h334l8 -928l467 928h324l28 -928l428 928h365l-705 -1366h-360l-37 860l-440 -860h-361z" />
<glyph unicode="X" horiz-adv-x="1390" d="M-137 0l686 750l-313 616h393l170 -369l315 369h457l-604 -670l342 -696h-387l-211 446l-392 -446h-456z" />
<glyph unicode="Y" horiz-adv-x="1243" d="M137 1366h369l176 -459l379 459h442l-729 -766l-139 -600h-342l153 659z" />
<glyph unicode="Z" horiz-adv-x="1251" d="M-68 0l66 285l938 821h-709l60 260h1116l-68 -291l-927 -815h739l-60 -260h-1155z" />
<glyph unicode="[" horiz-adv-x="772" d="M-72 -354l398 1720h575l-49 -211h-299l-301 -1298h303l-49 -211h-578z" />
<glyph unicode="\" horiz-adv-x="940" d="M246 1366h276l297 -1366h-276z" />
<glyph unicode="]" horiz-adv-x="772" d="M-6 -354l49 211h299l301 1298h-303l49 211h578l-398 -1720h-575z" />
<glyph unicode="^" horiz-adv-x="1024" d="M59 709l303 665h367l303 -665h-291l-194 442l-195 -442h-293z" />
<glyph unicode="_" horiz-adv-x="1024" d="M35 -111h1024v-196h-1024v196z" />
<glyph unicode="`" horiz-adv-x="1024" d="M311 1415h314l100 -262h-199z" />
<glyph unicode="a" horiz-adv-x="1107" d="M18 252q0 162 119 256t420 121l178 16l13 47q6 25 6 56q0 94 -136 94q-68 0 -103.5 -32t-65.5 -118l-295 15q35 147 147.5 238t331.5 91q420 0 420 -266q0 -63 -15 -125l-118 -508q-14 -61 -15 -90q0 -20 13 -47h-289q-10 37 -11 59q0 18 9 64q-127 -139 -308 -139 q-137 0 -219 72.5t-82 195.5zM319 295q0 -96 121 -96q102 0 170 77q41 45 80 170l-108 -8q-262 -20 -263 -143z" />
<glyph unicode="b" horiz-adv-x="1220" d="M2 0l315 1366h304l-99 -432q152 102 283 102q166 0 268.5 -113.5t102.5 -295.5q0 -123 -45.5 -251t-118.5 -216q-147 -176 -375 -176q-199 0 -303 139l-29 -123h-303zM403 397q0 -82 53.5 -135t135.5 -53q127 0 205 131q74 125 73 264q0 207 -180 207q-121 0 -201 -129 q-86 -137 -86 -285z" />
<glyph unicode="c" horiz-adv-x="1120" d="M68 446q0 250 169 420t416 170q229 0 361 -135q67 -70 104 -203l-262 -55q-49 168 -194 168q-129 0 -210 -118t-81 -269q0 -104 56 -164.5t153 -60.5q80 0 128 41t87 139l272 -88q-154 -317 -496 -318q-225 0 -364 130t-139 343z" />
<glyph unicode="d" horiz-adv-x="1202" d="M68 412q0 252 143 438t373 186q170 0 301 -147l110 477h303l-315 -1366h-268l22 96q-128 -112 -277 -112h-3q-176 0 -282.5 116.5t-106.5 311.5zM373 430q0 -231 194 -231q129 0 195 137q61 127 61 278q0 90 -52 143.5t-140 53.5q-129 0 -201 -137q-57 -111 -57 -244z " />
<glyph unicode="e" horiz-adv-x="1138" d="M66 426q0 268 176 455q146 155 382 155h3q225 0 349 -118.5t124 -335.5q0 -27 -8 -136h-732q-2 -16 -2 -45q0 -94 56.5 -148t154.5 -54q154 0 230 149l250 -90q-145 -285 -486 -285q-229 0 -363 122t-134 331zM399 637h430q-14 192 -186 192h-2h-2q-185 0 -240 -192z" />
<glyph unicode="f" horiz-adv-x="647" d="M23 0l186 805h-162l47 205h162l12 55q74 330 365 330q96 0 209 -31l-54 -229q-63 10 -98 10q-98 0 -123 -101l-8 -34h201l-47 -205h-201l-186 -805h-303z" />
<glyph unicode="g" horiz-adv-x="1175" d="M-45 -78q0 33 10 90h316q-6 -35 -7 -59q0 -51 47.5 -82t122.5 -31q180 0 228 209l18 82q-123 -90 -250 -90q-168 0 -270 111.5t-102 291.5q0 121 49 243t129 204q133 135 346 135q170 0 276 -121l25 105h297l-219 -947q-31 -133 -64 -195.5t-98 -117.5 q-143 -119 -377 -119q-215 0 -346 80t-131 211zM367 438q0 -186 180 -186q123 0 198 143q55 104 56 221q0 185 -174 185q-109 0 -178 -105q-82 -121 -82 -258z" />
<glyph unicode="h" horiz-adv-x="1136" d="M2 0l315 1366h304l-109 -477q88 82 146.5 109.5t138.5 27.5q127 0 210 -67.5t83 -174.5q0 -59 -19 -139l-149 -645h-304l142 616q12 53 12 76q0 45 -33.5 73t-87.5 28q-160 0 -219 -252l-127 -541h-303z" />
<glyph unicode="i" horiz-adv-x="524" d="M2 0l234 1010h303l-234 -1010h-303zM264 1135l53 231h304l-54 -231h-303z" />
<glyph unicode="j" horiz-adv-x="524" d="M-207 -324l55 236q27 -2 33 -2q98 0 131 139l224 961h303l-234 -1010q-45 -199 -153 -272q-92 -63 -234 -64q-61 0 -125 12zM262 1135l55 231h304l-54 -231h-305z" />
<glyph unicode="k" horiz-adv-x="1142" d="M2 0l315 1366h304l-158 -686l381 330h405l-458 -379l270 -631h-324l-178 438l-188 -155l-66 -283h-303z" />
<glyph unicode="l" horiz-adv-x="524" d="M2 0l315 1366h304l-316 -1366h-303z" />
<glyph unicode="m" horiz-adv-x="1763" d="M2 0l231 1010h306l-33 -142q88 90 153.5 124t153.5 34q121 0 199 -57q45 -35 75 -119q139 176 320 176q131 0 214 -73.5t83 -192.5q0 -74 -25 -180l-133 -580h-303l139 602q12 53 13 80q0 41 -37 68.5t-92 27.5q-84 0 -144 -63q-43 -47 -69 -162l-129 -553h-303l139 602 q14 61 14 82q0 41 -37 68.5t-92 27.5q-86 0 -147 -65q-41 -43 -68 -162l-125 -553h-303z" />
<glyph unicode="n" horiz-adv-x="1136" d="M2 0l234 1010h303l-27 -121q88 82 145.5 109.5t139.5 27.5q127 0 210 -67.5t83 -174.5q0 -59 -19 -139l-149 -645h-304l142 616q12 53 12 76q0 45 -33.5 73t-87.5 28q-160 0 -219 -252l-127 -541h-303z" />
<glyph unicode="o" horiz-adv-x="1216" d="M70 446q0 250 168.5 420t418.5 170q231 0 369.5 -130t138.5 -349q0 -254 -190 -436q-156 -147 -397 -148q-231 0 -369.5 129t-138.5 344zM377 432q0 -233 207 -233q127 0 201.5 115.5t74.5 258.5q0 238 -209 238q-117 0 -195.5 -108.5t-78.5 -270.5z" />
<glyph unicode="p" horiz-adv-x="1202" d="M-80 -354l316 1364h270l-23 -97q129 113 281 113q176 0 281.5 -116.5t105.5 -311.5q0 -252 -143.5 -438.5t-372.5 -186.5q-170 0 -301 148l-111 -475h-303zM395 395q0 -90 52.5 -143t140.5 -53q131 0 200 137q57 113 58 244q0 231 -195 231q-129 0 -194 -137 q-61 -127 -62 -279z" />
<glyph unicode="q" horiz-adv-x="1218" d="M55 391q0 139 58.5 278.5t154.5 229.5q137 127 330 127t301 -139l29 123h303l-316 -1364h-303l101 432q-86 -61 -144.5 -83t-138.5 -22q-170 0 -272.5 114t-102.5 304zM362 403q0 -204 181 -204h2q127 0 205.5 131t78.5 272q0 88 -53 143.5t-137 55.5q-119 0 -198 -123 t-79 -275z" />
<glyph unicode="r" horiz-adv-x="753" d="M2 0l234 1010h305l-33 -138q90 84 147.5 113t137.5 29q16 0 65 -4l-61 -265q-182 0 -267.5 -73.5t-130.5 -265.5l-94 -406h-303z" />
<glyph unicode="s" horiz-adv-x="1011" d="M-29 227l256 125q51 -70 95 -94q78 -45 159 -45q127 0 127 86q0 57 -112 98l-125 45q-248 90 -248 275q0 143 114.5 231t301.5 88h3q317 0 459 -241l-237 -113q-66 129 -199 129q-125 0 -125 -70q0 -51 103 -86l129 -43q141 -47 202.5 -111.5t61.5 -166.5 q0 -158 -133 -259.5t-340 -101.5q-324 0 -492 254z" />
<glyph unicode="t" horiz-adv-x="661" d="M59 805l47 205h150l61 270h304l-62 -270h182l-47 -205h-182l-96 -416q-12 -53 -13 -82q0 -76 84 -76q33 0 91 21l-56 -242q-63 -24 -162 -24h-8q-274 0 -274 211q0 43 28 165l103 443h-150z" />
<glyph unicode="u" horiz-adv-x="1136" d="M61 225q0 59 19 140l149 645h303l-141 -617q-12 -53 -12 -76q0 -45 33.5 -72.5t87.5 -27.5q164 0 221 252l125 541h303l-234 -1010h-303l27 121q-88 -82 -145.5 -109.5t-139.5 -27.5q-127 0 -210 67.5t-83 173.5z" />
<glyph unicode="v" horiz-adv-x="980" d="M96 1010h295l43 -682l336 682h334l-578 -1010h-303z" />
<glyph unicode="w" horiz-adv-x="1527" d="M111 1010h274l23 -654l321 654h262l17 -662l313 662h332l-576 -1010h-293l-14 600l-297 -600h-297z" />
<glyph unicode="x" horiz-adv-x="970" d="M-137 0l473 537l-195 473h305l101 -258l207 258h352l-449 -500l220 -510h-314l-106 303l-252 -303h-342z" />
<glyph unicode="y" horiz-adv-x="1005" d="M-113 -332l52 244q74 -12 112 -12q102 0 154 86l-107 1024h301l29 -684l344 684h330l-631 -1088q-88 -152 -178 -207t-254 -55q-70 0 -152 8z" />
<glyph unicode="z" horiz-adv-x="1032" d="M-59 0l49 207l653 571h-500l54 232h888l-53 -230l-635 -549h547l-53 -231h-950z" />
<glyph unicode="{" horiz-adv-x="778" d="M12 -215q0 47 17 121l63 282q12 55 12 88q0 76 -84 95l62 266q68 14 101.5 50t52.5 116l67 293q35 152 125 221q61 47 145 59q47 8 162 8q100 0 162 -2l-70 -305q-129 0 -171.5 -27.5t-65.5 -127.5l-41 -177q-25 -106 -61.5 -157t-114.5 -92q76 -53 76 -138 q0 -53 -15 -114l-43 -187q-14 -61 -14 -88q0 -72 147 -71h31l-68 -287l-176 -4q-166 0 -221 33q-78 47 -78 145z" />
<glyph unicode="|" horiz-adv-x="1024" d="M379 -342v1708h334v-1708h-334z" />
<glyph unicode="}" horiz-adv-x="778" d="M-139 -389l69 303h29q100 0 142 28t67 130l41 176q25 104 62.5 156.5t113.5 93.5q-76 53 -76 137q0 51 15 113l43 186q14 61 14 88q0 51 -66 65q-49 6 -112 7l67 288q80 2 172 2q170 0 226 -32q78 -45 77 -146q0 -57 -14 -119l-65 -282q-12 -53 -13 -90q0 -76 84 -94 l-61 -265q-66 -16 -100.5 -52t-53.5 -116l-67 -292q-35 -154 -123 -222q-61 -47 -148 -59q-47 -8 -161 -8q-88 0 -162 4z" />
<glyph unicode="~" horiz-adv-x="1366" d="M223 1255q113 287 309 287q66 0 230 -67q113 -47 151 -48q78 0 142 121l159 -135q-63 -154 -135.5 -218.5t-185.5 -64.5q-63 0 -227 70q-100 43 -146 43q-69 0 -137 -123z" />
<glyph unicode="&#xa1;" horiz-adv-x="573" d="M20 0l91 391l211 504h124l-12 -465l-100 -430h-314zM262 1044l74 322h313l-74 -322h-313z" />
<glyph unicode="&#xa2;" d="M205 659q0 240 159.5 402t395.5 162h20l43 182h86l-45 -193q274 -51 342 -311l-250 -55q-37 137 -141 158l-133 -580q88 4 135 41t80 129l260 -84q-150 -301 -473 -301q-27 0 -51 2l-45 -195h-86l47 207q-162 37 -253 153t-91 283zM494 639q0 -144 106 -197l131 564 q-98 -18 -162 -111q-76 -109 -75 -256z" />
<glyph unicode="&#xa3;" d="M-10 182q0 113 70.5 180.5t191.5 67.5q49 0 141 -22q4 -2 33 -11q0 113 -37 217h-229l35 150h135q-16 90 -17 141q0 221 160 350q125 100 338 101q225 0 331.5 -116t106.5 -292q0 -6 -4 -59l-291 -37q4 49 4 61q0 96 -48 139.5t-109 43.5q-68 0 -126.5 -54.5 t-58.5 -171.5q0 -41 9 -69l10 -37h239l-34 -150h-162q27 -100 27 -145q0 -59 -46 -164q8 -4 19 -10l43 -33q35 -27 61 -26q45 0 78 77q16 37 27 131h287q-31 -223 -91 -321q-94 -154 -256 -154q-135 0 -303 152q-150 -152 -307 -152q-106 0 -166.5 57.5t-60.5 155.5z M164 182q0 -76 78 -76q88 0 164 121q-82 49 -142 49q-43 0 -71.5 -26.5t-28.5 -67.5z" />
<glyph unicode="&#xa4;" horiz-adv-x="1687" d="M82 578l127 200h121q59 295 256.5 459t490.5 164q295 0 461 -144q113 -96 154 -268l-332 -94q-14 104 -51 152q-66 82 -217 81q-312 0 -392 -350h465l-127 -200h-362q0 -160 81 -250t222 -90q117 0 196.5 64.5t153.5 217.5l291 -153q-209 -401 -657 -402q-399 0 -570 279 q-80 129 -82 334h-229z" />
<glyph unicode="&#xa5;" d="M190 920l35 149h111l-92 297h323l138 -465l337 465h355l-240 -297h88l-35 -149h-176l-211 -261h174l-34 -149h-209l-117 -510h-328l117 510h-176l35 149h176l-80 261h-191z" />
<glyph unicode="&#xa6;" horiz-adv-x="1024" d="M379 313h334v-655h-334v655zM379 639v727h334v-727h-334z" />
<glyph unicode="&#xa7;" d="M37 51l213 152q154 -125 330 -125q49 0 83.5 25.5t34.5 62.5q0 39 -120 96l-211 100q-139 66 -196.5 132.5t-57.5 162.5q0 209 268 365q-41 68 -41 129q0 127 121 233.5t330 106.5q249 0 495 -164l-213 -147q-170 106 -319 106q-55 0 -92 -23.5t-37 -58.5q0 -20 14 -30.5 t90 -47.5l236 -114q254 -123 254 -289q0 -119 -95 -236q-57 -70 -178 -147q33 -76 33 -119q0 -125 -105 -225q-129 -123 -346 -123q-285 0 -491 178zM381 743q0 -68 119 -127l315 -159q125 102 125 182q0 69 -152 145l-272 136q-135 -98 -135 -177z" />
<glyph unicode="&#xa8;" horiz-adv-x="1024" d="M274 1167l54 232h311l-53 -232h-312zM733 1167l53 232h312l-54 -232h-311z" />
<glyph unicode="&#xa9;" horiz-adv-x="1570" d="M125 682q0 299 209 506t510 207q287 0 492.5 -211t205.5 -502q0 -293 -208 -502t-498 -209q-293 0 -502 209t-209 502zM276 682q0 -236 165 -403.5t395 -167.5q229 0 392 167.5t163 403.5t-162 404.5t-387 168.5q-238 0 -402 -165.5t-164 -407.5zM449 688 q0 182 109.5 297t283.5 115q143 0 242.5 -84t107.5 -211h-148q-35 127 -200 127q-92 0 -146.5 -66.5t-54.5 -179.5q0 -111 54.5 -176.5t144.5 -65.5q182 0 209 162h149q-12 -152 -110.5 -241t-253.5 -89q-174 0 -280.5 114t-106.5 298z" />
<glyph unicode="&#xaa;" horiz-adv-x="819" d="M145 608l17 68h631l-17 -68h-631zM285 954q0 184 288 205l91 6l4 23q4 23 4 29q0 47 -68 47q-59 0 -84 -74l-164 8q39 176 256 176q225 0 226 -143q0 -33 -9 -68l-61 -268q-8 -35 -8 -45q0 -12 8 -31h-162q-6 25 -6 33q0 14 2 25q-59 -66 -156 -66q-74 0 -117.5 39 t-43.5 104zM451 979q0 -47 61 -47q84 0 125 123l-51 -4q-135 -10 -135 -72z" />
<glyph unicode="&#xab;" horiz-adv-x="804" d="M45 369l70 303l348 223l-62 -262l-215 -139l148 -152l-51 -225zM397 369l70 303l346 223l-59 -262l-217 -139l149 -152l-53 -225z" />
<glyph unicode="&#xac;" horiz-adv-x="1024" d="M102 309v291h887v-600h-323v309h-564z" />
<glyph unicode="&#xad;" horiz-adv-x="450" d="M-25 369l64 272h450l-63 -272h-451z" />
<glyph unicode="&#xae;" horiz-adv-x="1570" d="M125 682q0 299 209 506t510 207q287 0 492.5 -211t205.5 -502q0 -293 -208 -502t-498 -209q-293 0 -502 209t-209 502zM276 682q0 -236 165 -403.5t395 -167.5q229 0 392 167.5t163 403.5t-162 404.5t-387 168.5q-238 0 -402 -165.5t-164 -407.5zM535 297v786h333 q117 0 183 -36q106 -61 106 -185q0 -131 -131 -190q68 -27 91.5 -79t27.5 -177q2 -80 20 -119h-186q-10 25 -16 102q-10 143 -39 174q-37 41 -115 41h-80v-317h-194zM729 727h96q139 0 140 121q0 117 -127 117h-109v-238z" />
<glyph unicode="&#xaf;" horiz-adv-x="1024" d="M35 1608v194h1024v-194h-1024z" />
<glyph unicode="&#xb0;" d="M401 1042q0 143 100.5 245t243.5 102q145 0 245 -101.5t100 -249.5q0 -139 -101.5 -239.5t-243.5 -100.5q-143 0 -243.5 100.5t-100.5 243.5zM555 1042q0 -80 56.5 -137t133.5 -57q76 0 133.5 57.5t57.5 132.5q0 84 -56.5 142.5t-136.5 58.5q-76 0 -132 -58.5t-56 -138.5 z" />
<glyph unicode="&#xb1;" d="M76 -76v205h1024v-205h-1024zM76 580v204h409v398h205v-398h410v-204h-410v-369h-205v369h-409z" />
<glyph unicode="&#xb2;" horiz-adv-x="819" d="M117 547l39 166q119 72 311 192q111 72 149.5 115t38.5 90q0 41 -30.5 67.5t-77.5 26.5q-57 0 -95 -37t-38 -96q0 -10 8 -55l-205 20q10 152 64 215q92 109 280 109q143 0 226 -65.5t83 -176.5q0 -143 -174 -266q-68 -47 -252 -147h361l-37 -158h-651z" />
<glyph unicode="&#xb3;" horiz-adv-x="819" d="M117 784v35l227 19q-4 -37 -4 -50q0 -47 39 -77.5t102 -30.5q59 0 97 31.5t38 83.5q0 92 -141 92q-18 0 -53 -2l33 133q49 -6 69 -6q158 0 158 104q0 88 -117 88q-131 0 -131 -117v-22l-211 29q8 125 94 192q94 74 252 74t245 -60.5t87 -169.5q0 -137 -145 -186 q92 -57 92 -153q0 -121 -99.5 -193t-265.5 -72q-367 0 -366 258z" />
<glyph unicode="&#xb4;" horiz-adv-x="1024" d="M496 1153l127 262h313l-242 -262h-198z" />
<glyph unicode="&#xb5;" horiz-adv-x="1024" d="M90 -350v1333h281v-508q0 -123 30 -174q53 -88 144 -88q174 0 174 268v502h280v-983h-280v129q-57 -150 -178 -149q-106 0 -170 120v-450h-281z" />
<glyph unicode="&#xb6;" d="M197 918q0 94 44 187t117.5 153.5t160.5 84t243 23.5h579l-34 -147h-97l-364 -1573h-205l365 1573h-156l-365 -1573h-204l235 1016h-27q-133 0 -212.5 69.5t-79.5 186.5z" />
<glyph unicode="&#xb7;" horiz-adv-x="526" d="M72 338l78 334h319l-76 -334h-321z" />
<glyph unicode="&#xb8;" horiz-adv-x="1024" d="M213 -381l39 90q106 -39 166 -39q96 0 96 68q0 70 -84 69q-27 0 -70 -18l-47 43l99 168h102l-68 -119q51 10 84 10q76 0 125.5 -40.5t49.5 -104.5q0 -78 -66 -128t-170 -50q-129 0 -256 51z" />
<glyph unicode="&#xb9;" horiz-adv-x="802" d="M293 1096l33 137l26 2q111 8 159 28.5t81 77.5h166l-183 -794h-215l132 565q-72 -16 -150 -16h-49z" />
<glyph unicode="&#xba;" horiz-adv-x="819" d="M137 608l17 68h630l-16 -68h-631zM266 1059q0 133 90.5 224t223.5 91q123 0 196.5 -69.5t73.5 -186.5q0 -131 -90 -222t-223 -91q-123 0 -197 69.5t-74 184.5zM436 1053q0 -121 107 -121q59 0 99 55t40 137q-1 123 -107 123q-59 0 -99 -56t-40 -138z" />
<glyph unicode="&#xbb;" horiz-adv-x="804" d="M6 117l62 262l215 139l-150 150l53 227l238 -254l-72 -301zM358 117l60 262l217 139l-150 150l52 227l237 -254l-69 -301z" />
<glyph unicode="&#xbc;" horiz-adv-x="2093" d="M293 1096l33 137l26 2q111 8 159 28.5t81 77.5h166l-183 -794h-215l132 565q-72 -16 -150 -16h-49zM467 -39l1147 1516l94 -72l-1147 -1516zM1286 184l37 158l428 453h250l-107 -467h123l-35 -144h-122l-43 -184h-213l43 184h-361zM1493 328h186l60 262z" />
<glyph unicode="&#xbd;" horiz-adv-x="2093" d="M293 1096l33 137l26 2q111 8 159 28.5t81 77.5h166l-183 -794h-215l132 565q-72 -16 -150 -16h-49zM467 -39l1147 1516l94 -72l-1147 -1516zM1274 0l39 166q233 141 311 192q113 74 150.5 116t37.5 89q0 41 -30.5 68.5t-77.5 27.5q-57 0 -95 -37.5t-38 -97.5q0 -20 6 -55 l-205 20q10 152 66 216q94 109 280 108q141 0 225.5 -65.5t84.5 -176.5q0 -143 -175 -266q-70 -49 -254 -147h363l-37 -158h-651z" />
<glyph unicode="&#xbe;" horiz-adv-x="2109" d="M117 784v35l227 19q-4 -37 -4 -50q0 -47 39 -77.5t102 -30.5q59 0 97 31.5t38 83.5q0 92 -141 92q-18 0 -53 -2l33 133q49 -6 69 -6q158 0 158 104q0 88 -117 88q-131 0 -131 -117v-22l-211 29q8 125 94 192q94 74 252 74t245 -60.5t87 -169.5q0 -137 -145 -186 q92 -57 92 -153q0 -121 -99.5 -193t-265.5 -72q-367 0 -366 258zM483 -39l1147 1516l94 -72l-1146 -1516zM1303 184l36 158l428 453h250l-106 -467h123l-35 -144h-123l-43 -184h-213l43 184h-360zM1509 328h187l59 262z" />
<glyph unicode="&#xbf;" horiz-adv-x="1095" d="M27 319q0 236 272 357l121 53q139 62 170 162h270q-20 -164 -192 -268l-199 -121q-106 -66 -107 -158q0 -59 43.5 -96t112.5 -37q168 0 219 219l305 -70q-106 -395 -559 -395q-184 0 -315 88q-141 96 -141 266zM592 1034l76 332h313l-76 -332h-313z" />
<glyph unicode="&#xc0;" horiz-adv-x="1366" d="M-113 0l861 1366h360l170 -1366h-352l-17 262h-495l-146 -262h-381zM547 514h346l-35 526zM602 1772h324l102 -267h-199z" />
<glyph unicode="&#xc1;" horiz-adv-x="1366" d="M-113 0l861 1366h360l170 -1366h-352l-17 262h-495l-146 -262h-381zM547 514h346l-35 526zM877 1505l129 267h323l-254 -267h-198z" />
<glyph unicode="&#xc2;" horiz-adv-x="1366" d="M-113 0l861 1366h360l170 -1366h-352l-17 262h-495l-146 -262h-381zM547 514h346l-35 526zM602 1511l232 250h333l150 -250h-252l-70 138l-116 -138h-277z" />
<glyph unicode="&#xc3;" horiz-adv-x="1366" d="M-113 0l861 1366h360l170 -1366h-352l-17 262h-495l-146 -262h-381zM547 514h346l-35 526zM616 1516q35 117 84 170q70 76 177 75q49 0 110 -20l55 -19q74 -25 103 -24q45 0 82 59h153q-90 -242 -260 -241q-57 0 -141 28l-59 21q-47 16 -74 16q-41 0 -76 -65h-154z" />
<glyph unicode="&#xc4;" horiz-adv-x="1366" d="M-113 0l861 1366h360l170 -1366h-352l-17 262h-495l-146 -262h-381zM547 514h346l-35 526zM582 1528l51 221h293l-52 -221h-292zM1032 1528l51 221h295l-51 -221h-295z" />
<glyph unicode="&#xc5;" horiz-adv-x="1366" d="M-113 0l861 1366h360l170 -1366h-352l-17 262h-495l-146 -262h-381zM547 514h346l-35 526zM786 1638q0 80 56.5 136.5t136.5 56.5t136 -56.5t56 -138.5q0 -76 -57 -132t-135 -56q-80 0 -136.5 56.5t-56.5 133.5zM885 1640q0 -39 27.5 -66.5t66.5 -27.5t66.5 28t27.5 64 q0 39 -27.5 67t-66.5 28t-66.5 -27t-27.5 -66z" />
<glyph unicode="&#xc6;" horiz-adv-x="1921" d="M-137 0l1067 1366h1081l-61 -266h-537l-61 -260h473l-60 -252h-471l-73 -322h598l-62 -266h-934l74 317h-395l-228 -317h-411zM678 569h278l127 553z" />
<glyph unicode="&#xc7;" horiz-adv-x="1478" d="M123 588q0 410 270 643q197 170 496 170q295 0 461 -144q109 -94 153 -268l-332 -94q-14 102 -53 152q-66 82 -215 81q-217 0 -328 -184q-88 -145 -88 -366q0 -160 81 -250t223 -90q117 0 196.5 64.5t153.5 217.5l291 -153q-111 -211 -272 -306.5t-402 -95.5h-8l-56 -88 q49 12 84 12q74 0 123 -39.5t49 -101.5q0 -84 -66.5 -132t-181.5 -48t-243 51l43 90q96 -39 170 -39q90 0 90 68t-92 67q-29 0 -64 -16l-49 43l84 141q-154 25 -260 93q-258 164 -258 522z" />
<glyph unicode="&#xc8;" horiz-adv-x="1277" d="M20 0l316 1366h1030l-61 -266h-689l-61 -262h625l-60 -252h-622l-74 -320h752l-62 -266h-1094zM539 1772h323l103 -267h-199z" />
<glyph unicode="&#xc9;" horiz-adv-x="1277" d="M20 0l316 1366h1030l-61 -266h-689l-61 -262h625l-60 -252h-622l-74 -320h752l-62 -266h-1094zM770 1505l129 267h324l-254 -267h-199z" />
<glyph unicode="&#xca;" horiz-adv-x="1277" d="M20 0l316 1366h1030l-61 -266h-689l-61 -262h625l-60 -252h-622l-74 -320h752l-62 -266h-1094zM524 1511l232 250h334l149 -250h-252l-69 138l-117 -138h-277z" />
<glyph unicode="&#xcb;" horiz-adv-x="1277" d="M20 0l316 1366h1030l-61 -266h-689l-61 -262h625l-60 -252h-622l-74 -320h752l-62 -266h-1094zM504 1528l51 221h293l-51 -221h-293zM954 1528l52 221h294l-51 -221h-295z" />
<glyph unicode="&#xcc;" horiz-adv-x="600" d="M20 0l316 1366h342l-316 -1366h-342zM289 1772h282l62 -267h-199z" />
<glyph unicode="&#xcd;" horiz-adv-x="600" d="M20 0l316 1366h342l-316 -1366h-342zM438 1505l129 267h324l-254 -267h-199z" />
<glyph unicode="&#xce;" horiz-adv-x="600" d="M20 0l316 1366h342l-316 -1366h-342zM246 1511l192 250h293l107 -250h-252l-29 138l-74 -138h-237z" />
<glyph unicode="&#xcf;" horiz-adv-x="600" d="M20 0l316 1366h342l-316 -1366h-342zM246 1528l51 221h252l-51 -221h-252zM588 1528l51 221h252l-51 -221h-252z" />
<glyph unicode="&#xd0;" horiz-adv-x="1468" d="M20 0l136 586h-86l59 252h84l123 528h532q315 0 465 -158q123 -129 123 -360q0 -326 -180 -578q-102 -143 -248.5 -206.5t-374.5 -63.5h-633zM424 266h217q137 0 220 48t147 167q92 170 92 342q0 127 -64 197q-72 80 -248 80h-172l-61 -262h238l-58 -252h-237z" />
<glyph unicode="&#xd1;" horiz-adv-x="1435" d="M20 0l316 1366h342l321 -885l175 885h339l-315 -1366h-356l-312 868l-168 -868h-342zM625 1516q35 117 84 170q70 76 176 75q49 0 110 -20l56 -19q74 -25 102 -24q45 0 82 59h154q-90 -242 -261 -241q-57 0 -141 28l-59 21q-47 16 -74 16q-41 0 -76 -65h-153z" />
<glyph unicode="&#xd2;" horiz-adv-x="1521" d="M115 539q0 188 67.5 362t188.5 293q209 207 520 207q291 0 454.5 -155.5t163.5 -430.5q0 -166 -65.5 -339t-173.5 -288q-209 -223 -551 -223q-293 0 -461 164q-143 141 -143 410zM469 547q0 -309 279 -309q190 0 303.5 184t113.5 383q0 323 -291 323q-201 0 -313 -204 q-92 -166 -92 -377zM612 1772h324l102 -267h-198z" />
<glyph unicode="&#xd3;" horiz-adv-x="1521" d="M115 539q0 188 67.5 362t188.5 293q209 207 520 207q291 0 454.5 -155.5t163.5 -430.5q0 -166 -65.5 -339t-173.5 -288q-209 -223 -551 -223q-293 0 -461 164q-143 141 -143 410zM469 547q0 -309 279 -309q190 0 303.5 184t113.5 383q0 323 -291 323q-201 0 -313 -204 q-92 -166 -92 -377zM887 1505l129 267h323l-254 -267h-198z" />
<glyph unicode="&#xd4;" horiz-adv-x="1521" d="M115 539q0 188 67.5 362t188.5 293q209 207 520 207q291 0 454.5 -155.5t163.5 -430.5q0 -166 -65.5 -339t-173.5 -288q-209 -223 -551 -223q-293 0 -461 164q-143 141 -143 410zM469 547q0 -309 279 -309q190 0 303.5 184t113.5 383q0 323 -291 323q-201 0 -313 -204 q-92 -166 -92 -377zM618 1511l232 250h334l149 -250h-252l-69 138l-117 -138h-277z" />
<glyph unicode="&#xd5;" horiz-adv-x="1521" d="M115 539q0 188 67.5 362t188.5 293q209 207 520 207q291 0 454.5 -155.5t163.5 -430.5q0 -166 -65.5 -339t-173.5 -288q-209 -223 -551 -223q-293 0 -461 164q-143 141 -143 410zM469 547q0 -309 279 -309q190 0 303.5 184t113.5 383q0 323 -291 323q-201 0 -313 -204 q-92 -166 -92 -377zM629 1516q35 117 84 170q70 76 176 75q49 0 110 -20l56 -19q74 -25 102 -24q45 0 82 59h154q-90 -242 -260 -241q-57 0 -142 28l-59 21q-47 16 -74 16q-41 0 -76 -65h-153z" />
<glyph unicode="&#xd6;" horiz-adv-x="1521" d="M115 539q0 188 67.5 362t188.5 293q209 207 520 207q291 0 454.5 -155.5t163.5 -430.5q0 -166 -65.5 -339t-173.5 -288q-209 -223 -551 -223q-293 0 -461 164q-143 141 -143 410zM469 547q0 -309 279 -309q190 0 303.5 184t113.5 383q0 323 -291 323q-201 0 -313 -204 q-92 -166 -92 -377zM618 1528l52 221h293l-52 -221h-293zM1069 1528l51 221h295l-51 -221h-295z" />
<glyph unicode="&#xd7;" d="M209 375l309 307l-299 299l143 145l302 -299l307 310l145 -146l-309 -309l299 -299l-143 -143l-299 299l-310 -310z" />
<glyph unicode="&#xd8;" horiz-adv-x="1480" d="M94 539q0 399 256 655q207 207 518 207q201 0 351 -82l102 125l111 -92l-99 -117q156 -158 156 -408q0 -176 -64.5 -348t-175.5 -291q-207 -223 -547 -223q-209 0 -356 84l-121 -145l-108 92l116 139q-139 158 -139 404zM449 547q0 -65 16 -131l557 667q-72 45 -170 45 q-199 0 -311 -204q-92 -168 -92 -377zM549 293q74 -55 182 -55q184 0 301 186q113 180 113 391q0 80 -31 158z" />
<glyph unicode="&#xd9;" horiz-adv-x="1429" d="M121 379q0 84 22 182l185 805h342l-189 -817q-18 -80 -18 -127q0 -166 231 -166q123 0 186.5 64.5t100.5 228.5l188 817h342l-213 -920q-59 -258 -214.5 -369.5t-403.5 -111.5q-266 0 -412.5 108.5t-146.5 305.5zM614 1772h324l102 -267h-198z" />
<glyph unicode="&#xda;" horiz-adv-x="1429" d="M121 379q0 84 22 182l185 805h342l-189 -817q-18 -80 -18 -127q0 -166 231 -166q123 0 186.5 64.5t100.5 228.5l188 817h342l-213 -920q-59 -258 -214.5 -369.5t-403.5 -111.5q-266 0 -412.5 108.5t-146.5 305.5zM846 1505l129 267h323l-254 -267h-198z" />
<glyph unicode="&#xdb;" horiz-adv-x="1429" d="M121 379q0 84 22 182l185 805h342l-189 -817q-18 -80 -18 -127q0 -166 231 -166q123 0 186.5 64.5t100.5 228.5l188 817h342l-213 -920q-59 -258 -214.5 -369.5t-403.5 -111.5q-266 0 -412.5 108.5t-146.5 305.5zM578 1511l231 250h334l149 -250h-252l-69 138l-117 -138 h-276z" />
<glyph unicode="&#xdc;" horiz-adv-x="1429" d="M121 379q0 84 22 182l185 805h342l-189 -817q-18 -80 -18 -127q0 -166 231 -166q123 0 186.5 64.5t100.5 228.5l188 817h342l-213 -920q-59 -258 -214.5 -369.5t-403.5 -111.5q-266 0 -412.5 108.5t-146.5 305.5zM578 1528l51 221h293l-52 -221h-292zM1028 1528l51 221 h295l-51 -221h-295z" />
<glyph unicode="&#xdd;" horiz-adv-x="1243" d="M137 1366h369l176 -459l379 459h442l-729 -766l-139 -600h-342l153 659zM737 1505l129 267h324l-254 -267h-199z" />
<glyph unicode="&#xde;" horiz-adv-x="1366" d="M20 0l316 1366h342l-47 -205h227q244 0 373 -105.5t129 -303.5q0 -231 -159 -371.5t-478 -140.5h-305l-56 -240h-342zM475 492h244q168 0 231.5 75.5t63.5 165.5q0 168 -217 168h-228z" />
<glyph unicode="&#xdf;" horiz-adv-x="1175" d="M2 0l223 969q94 412 475 411q193 0 306.5 -86t113.5 -231q0 -137 -78 -225q-45 -49 -139 -78q199 -84 199 -295q0 -217 -141 -369q-115 -123 -322 -123q-111 0 -227 35l51 225q74 -25 127 -24q96 0 152.5 71.5t56.5 196.5q0 193 -193 193q-25 0 -43 -2l49 211 q41 -16 76 -17q66 0 107 47t41 123q0 55 -38 89t-100 34q-70 0 -108.5 -45t-65.5 -160l-219 -950h-303z" />
<glyph unicode="&#xe0;" horiz-adv-x="1107" d="M18 252q0 162 119 256t420 121l178 16l13 47q6 25 6 56q0 94 -136 94q-68 0 -103.5 -32t-65.5 -118l-295 15q35 147 147.5 238t331.5 91q420 0 420 -266q0 -63 -15 -125l-118 -508q-14 -61 -15 -90q0 -20 13 -47h-289q-10 37 -11 59q0 18 9 64q-127 -139 -308 -139 q-137 0 -219 72.5t-82 195.5zM319 295q0 -96 121 -96q102 0 170 77q41 45 80 170l-108 -8q-262 -20 -263 -143zM348 1415h314l100 -262h-199z" />
<glyph unicode="&#xe1;" horiz-adv-x="1107" d="M18 252q0 162 119 256t420 121l178 16l13 47q6 25 6 56q0 94 -136 94q-68 0 -103.5 -32t-65.5 -118l-295 15q35 147 147.5 238t331.5 91q420 0 420 -266q0 -63 -15 -125l-118 -508q-14 -61 -15 -90q0 -20 13 -47h-289q-10 37 -11 59q0 18 9 64q-127 -139 -308 -139 q-137 0 -219 72.5t-82 195.5zM319 295q0 -96 121 -96q102 0 170 77q41 45 80 170l-108 -8q-262 -20 -263 -143zM571 1153l127 262h314l-242 -262h-199z" />
<glyph unicode="&#xe2;" horiz-adv-x="1107" d="M18 252q0 162 119 256t420 121l178 16l13 47q6 25 6 56q0 94 -136 94q-68 0 -103.5 -32t-65.5 -118l-295 15q35 147 147.5 238t331.5 91q420 0 420 -266q0 -63 -15 -125l-118 -508q-14 -61 -15 -90q0 -20 13 -47h-289q-10 37 -11 59q0 18 9 64q-127 -139 -308 -139 q-137 0 -219 72.5t-82 195.5zM319 295q0 -96 121 -96q102 0 170 77q41 45 80 170l-108 -8q-262 -20 -263 -143zM346 1155l254 258h299l135 -258h-223l-72 150l-129 -150h-264z" />
<glyph unicode="&#xe3;" horiz-adv-x="1107" d="M18 252q0 162 119 256t420 121l178 16l13 47q6 25 6 56q0 94 -136 94q-68 0 -103.5 -32t-65.5 -118l-295 15q35 147 147.5 238t331.5 91q420 0 420 -266q0 -63 -15 -125l-118 -508q-14 -61 -15 -90q0 -20 13 -47h-289q-10 37 -11 59q0 18 9 64q-127 -139 -308 -139 q-137 0 -219 72.5t-82 195.5zM319 295q0 -96 121 -96q102 0 170 77q41 45 80 170l-108 -8q-262 -20 -263 -143zM432 1163q45 129 101.5 184.5t144.5 55.5q45 0 88 -14l100 -33q43 -14 66 -15q47 1 78 64h153q-74 -242 -245 -242q-53 0 -123 23l-70 22q-51 16 -68 17 q-33 0 -77 -62h-148z" />
<glyph unicode="&#xe4;" horiz-adv-x="1107" d="M18 252q0 162 119 256t420 121l178 16l13 47q6 25 6 56q0 94 -136 94q-68 0 -103.5 -32t-65.5 -118l-295 15q35 147 147.5 238t331.5 91q420 0 420 -266q0 -63 -15 -125l-118 -508q-14 -61 -15 -90q0 -20 13 -47h-289q-10 37 -11 59q0 18 9 64q-127 -139 -308 -139 q-137 0 -219 72.5t-82 195.5zM319 295q0 -96 121 -96q102 0 170 77q41 45 80 170l-108 -8q-262 -20 -263 -143zM344 1167l53 232h312l-54 -232h-311zM803 1167l53 232h311l-53 -232h-311z" />
<glyph unicode="&#xe5;" horiz-adv-x="1107" d="M18 252q0 162 119 256t420 121l178 16l13 47q6 25 6 56q0 94 -136 94q-68 0 -103.5 -32t-65.5 -118l-295 15q35 147 147.5 238t331.5 91q420 0 420 -266q0 -63 -15 -125l-118 -508q-14 -61 -15 -90q0 -20 13 -47h-289q-10 37 -11 59q0 18 9 64q-127 -139 -308 -139 q-137 0 -219 72.5t-82 195.5zM319 295q0 -96 121 -96q102 0 170 77q41 45 80 170l-108 -8q-262 -20 -263 -143zM549 1311q0 80 56 136t136 56t136.5 -56t56.5 -138q0 -76 -57.5 -132.5t-135.5 -56.5q-80 0 -136 56.5t-56 134.5zM647 1313q0 -39 27.5 -66.5t66.5 -27.5 t67 27.5t28 64.5q0 39 -28 66.5t-67 27.5t-66.5 -26.5t-27.5 -65.5z" />
<glyph unicode="&#xe6;" horiz-adv-x="1796" d="M16 252q0 164 117 256q127 98 422 123l178 14l12 47q6 25 7 58q0 94 -136 94q-68 0 -103.5 -32t-66.5 -120l-294 17q35 147 147.5 237t331.5 90q221 0 338 -84q150 84 301 84q221 0 344 -119.5t123 -334.5q0 -27 -8 -136h-732l-2 -45q-4 -92 54.5 -147t156.5 -55 q154 0 230 149l250 -90q-143 -285 -484 -285q-274 0 -409 174q-199 -164 -457 -163q-152 0 -236 70.5t-84 197.5zM317 295q0 -96 121 -96q100 0 170 77q41 46 80 173l-108 -9q-262 -20 -263 -145zM1036 637h430q-14 193 -188 192q-183 1 -242 -192z" />
<glyph unicode="&#xe7;" horiz-adv-x="1120" d="M68 446q0 250 169 420t416 170q229 0 361 -135q68 -70 104 -203l-262 -55q-49 168 -194 168q-129 0 -210 -118t-81 -269q0 -104 56 -164.5t153 -60.5q80 0 128 41t87 139l272 -88q-74 -158 -209 -241t-311 -77l-53 -94q49 12 84 12q74 0 124 -40.5t50 -104.5 q0 -78 -65.5 -128t-170.5 -50q-129 0 -256 51l39 90q106 -39 166 -39q96 0 96 68q0 70 -84 69q-27 0 -69 -18l-50 43l93 152q-180 35 -281.5 157.5t-101.5 304.5z" />
<glyph unicode="&#xe8;" horiz-adv-x="1138" d="M66 426q0 268 176 455q147 156 385 155q225 0 349 -118.5t124 -335.5q0 -27 -8 -136h-732q-2 -16 -2 -45q0 -94 56.5 -148t154.5 -54q154 0 230 149l250 -90q-145 -285 -486 -285q-229 0 -363 122t-134 331zM362 1415h314l100 -262h-198zM399 637h430q-14 193 -188 192 q-187 1 -242 -192z" />
<glyph unicode="&#xe9;" horiz-adv-x="1138" d="M66 426q0 268 176 455q147 156 385 155q225 0 349 -118.5t124 -335.5q0 -27 -8 -136h-732q-2 -16 -2 -45q0 -94 56.5 -148t154.5 -54q154 0 230 149l250 -90q-145 -285 -486 -285q-229 0 -363 122t-134 331zM399 637h430q-14 193 -188 192q-187 1 -242 -192zM567 1153 l127 262h314l-242 -262h-199z" />
<glyph unicode="&#xea;" horiz-adv-x="1138" d="M66 426q0 268 176 455q147 156 385 155q225 0 349 -118.5t124 -335.5q0 -27 -8 -136h-732q-2 -16 -2 -45q0 -94 56.5 -148t154.5 -54q154 0 230 149l250 -90q-145 -285 -486 -285q-229 0 -363 122t-134 331zM348 1155l254 258h299l135 -258h-223l-72 150l-129 -150h-264z M399 637h430q-14 193 -188 192q-187 1 -242 -192z" />
<glyph unicode="&#xeb;" horiz-adv-x="1138" d="M66 426q0 268 176 455q147 156 385 155q225 0 349 -118.5t124 -335.5q0 -27 -8 -136h-732q-2 -16 -2 -45q0 -94 56.5 -148t154.5 -54q154 0 230 149l250 -90q-145 -285 -486 -285q-229 0 -363 122t-134 331zM324 1167l53 232h311l-53 -232h-311zM399 637h430 q-14 193 -188 192q-187 1 -242 -192zM782 1167l54 232h311l-53 -232h-312z" />
<glyph unicode="&#xec;" horiz-adv-x="524" d="M2 0l234 1010h303l-234 -1010h-303zM178 1415h273l59 -262h-197z" />
<glyph unicode="&#xed;" horiz-adv-x="524" d="M2 0l234 1010h303l-234 -1010h-303zM322 1153l127 262h313l-242 -262h-198z" />
<glyph unicode="&#xee;" horiz-adv-x="524" d="M2 0l234 1010h303l-234 -1010h-303zM131 1155l215 258h242l123 -258h-203l-64 150l-116 -150h-197z" />
<glyph unicode="&#xef;" horiz-adv-x="524" d="M2 0l234 1010h303l-234 -1010h-303zM162 1167l53 232h203l-53 -232h-203zM498 1167l53 232h203l-54 -232h-202z" />
<glyph unicode="&#xf0;" horiz-adv-x="1222" d="M72 446q0 250 170 420t417 170q35 0 99 -6l-39 119l-156 -78l-55 105l174 88l-33 104l158 80l47 -96l174 88l55 -105l-178 -90l127 -258q72 -143 92 -201q43 -115 43 -213q0 -170 -86 -319q-162 -281 -503 -281q-229 0 -367.5 129t-138.5 344zM379 432q0 -233 207 -233 q127 0 201.5 115.5t74.5 258.5q0 238 -209 238q-117 0 -195.5 -108.5t-78.5 -270.5z" />
<glyph unicode="&#xf1;" horiz-adv-x="1136" d="M2 0l234 1010h303l-27 -121q88 82 145.5 109.5t139.5 27.5q127 0 210 -67.5t83 -174.5q0 -59 -19 -139l-149 -645h-304l142 616q12 53 12 76q0 45 -33.5 73t-87.5 28q-160 0 -219 -252l-127 -541h-303zM426 1169q45 129 101.5 184.5t144.5 55.5q45 0 88 -14l100 -33 q43 -14 66 -14q47 0 78 63h153q-74 -242 -246 -242q-53 0 -123 23l-69 22q-51 16 -68 17q-33 0 -78 -62h-147z" />
<glyph unicode="&#xf2;" horiz-adv-x="1216" d="M70 446q0 250 168.5 420t418.5 170q231 0 369.5 -130t138.5 -349q0 -254 -190 -436q-156 -147 -397 -148q-231 0 -369.5 129t-138.5 344zM377 432q0 -233 207 -233q127 0 201.5 115.5t74.5 258.5q0 238 -209 238q-117 0 -195.5 -108.5t-78.5 -270.5zM401 1415h314 l100 -262h-199z" />
<glyph unicode="&#xf3;" horiz-adv-x="1216" d="M70 446q0 250 168.5 420t418.5 170q231 0 369.5 -130t138.5 -349q0 -254 -190 -436q-156 -147 -397 -148q-231 0 -369.5 129t-138.5 344zM377 432q0 -233 207 -233q127 0 201.5 115.5t74.5 258.5q0 238 -209 238q-117 0 -195.5 -108.5t-78.5 -270.5zM606 1153l127 262 h314l-242 -262h-199z" />
<glyph unicode="&#xf4;" horiz-adv-x="1216" d="M70 446q0 250 168.5 420t418.5 170q231 0 369.5 -130t138.5 -349q0 -254 -190 -436q-156 -147 -397 -148q-231 0 -369.5 129t-138.5 344zM377 432q0 -233 207 -233q127 0 201.5 115.5t74.5 258.5q0 238 -209 238q-117 0 -195.5 -108.5t-78.5 -270.5zM387 1155l254 258 h299l135 -258h-223l-72 150l-129 -150h-264z" />
<glyph unicode="&#xf5;" horiz-adv-x="1216" d="M70 446q0 250 168.5 420t418.5 170q231 0 369.5 -130t138.5 -349q0 -254 -190 -436q-156 -147 -397 -148q-231 0 -369.5 129t-138.5 344zM377 432q0 -233 207 -233q127 0 201.5 115.5t74.5 258.5q0 238 -209 238q-117 0 -195.5 -108.5t-78.5 -270.5zM414 1163 q45 129 101 184.5t144 55.5q45 0 89 -14l100 -33q43 -14 65 -15q47 1 78 64h154q-74 -242 -246 -242q-53 0 -123 23l-69 22q-51 16 -68 17q-33 0 -78 -62h-147z" />
<glyph unicode="&#xf6;" horiz-adv-x="1216" d="M70 446q0 250 168.5 420t418.5 170q231 0 369.5 -130t138.5 -349q0 -254 -190 -436q-156 -147 -397 -148q-231 0 -369.5 129t-138.5 344zM365 1167l53 232h311l-53 -232h-311zM377 432q0 -233 207 -233q127 0 201.5 115.5t74.5 258.5q0 238 -209 238 q-117 0 -195.5 -108.5t-78.5 -270.5zM823 1167l54 232h311l-53 -232h-312z" />
<glyph unicode="&#xf7;" d="M152 580v204h1024v-204h-1024zM518 315q0 59 43.5 101.5t102.5 42.5t101 -42t42 -104q0 -57 -42 -100t-101 -43t-102.5 43t-43.5 102zM518 1053q0 59 43.5 101t100.5 42q61 0 103 -42t42 -103q0 -57 -42 -100.5t-101 -43.5t-102.5 43t-43.5 103z" />
<glyph unicode="&#xf8;" horiz-adv-x="1216" d="M70 446q0 250 169 420t418 170q152 0 271 -59l92 108l90 -75l-86 -103q141 -135 141 -342q0 -262 -190 -444q-156 -147 -395 -148q-152 0 -285 66l-121 -143l-90 75l117 138q-131 131 -131 337zM377 446q0 -40 12 -112l377 448q-59 29 -113 29q-115 0 -195.5 -106.5 t-80.5 -258.5zM459 233q66 -35 125 -34q129 0 202.5 116.5t73.5 266.5q0 47 -18 108z" />
<glyph unicode="&#xf9;" horiz-adv-x="1136" d="M61 225q0 59 19 140l149 645h303l-141 -617q-12 -53 -12 -76q0 -45 33.5 -72.5t87.5 -27.5q164 0 221 252l125 541h303l-234 -1010h-303l27 121q-88 -82 -145.5 -109.5t-139.5 -27.5q-127 0 -210 67.5t-83 173.5zM387 1415h313l101 -262h-199z" />
<glyph unicode="&#xfa;" horiz-adv-x="1136" d="M61 225q0 59 19 140l149 645h303l-141 -617q-12 -53 -12 -76q0 -45 33.5 -72.5t87.5 -27.5q164 0 221 252l125 541h303l-234 -1010h-303l27 121q-88 -82 -145.5 -109.5t-139.5 -27.5q-127 0 -210 67.5t-83 173.5zM627 1153l127 262h313l-242 -262h-198z" />
<glyph unicode="&#xfb;" horiz-adv-x="1136" d="M61 225q0 59 19 140l149 645h303l-141 -617q-12 -53 -12 -76q0 -45 33.5 -72.5t87.5 -27.5q164 0 221 252l125 541h303l-234 -1010h-303l27 121q-88 -82 -145.5 -109.5t-139.5 -27.5q-127 0 -210 67.5t-83 173.5zM352 1155l254 258h299l135 -258h-223l-72 150l-129 -150 h-264z" />
<glyph unicode="&#xfc;" horiz-adv-x="1136" d="M61 225q0 59 19 140l149 645h303l-141 -617q-12 -53 -12 -76q0 -45 33.5 -72.5t87.5 -27.5q164 0 221 252l125 541h303l-234 -1010h-303l27 121q-88 -82 -145.5 -109.5t-139.5 -27.5q-127 0 -210 67.5t-83 173.5zM342 1167l53 232h312l-54 -232h-311zM801 1167l53 232 h311l-53 -232h-311z" />
<glyph unicode="&#xfd;" horiz-adv-x="1005" d="M-113 -332l52 244q74 -12 112 -12q102 0 154 86l-107 1024h301l29 -684l344 684h330l-631 -1088q-88 -152 -178 -207t-254 -55q-70 0 -152 8zM514 1153l127 262h313l-241 -262h-199z" />
<glyph unicode="&#xfe;" horiz-adv-x="1202" d="M-80 -354l397 1720h304l-105 -453q115 113 252 113q172 0 283 -123q100 -113 100 -305q0 -252 -143.5 -438.5t-372.5 -186.5q-170 0 -301 148l-111 -475h-303zM395 395q0 -90 52.5 -143t140.5 -53q131 0 200 137q57 113 58 244q0 231 -195 231q-129 0 -194 -137 q-61 -127 -62 -279z" />
<glyph unicode="&#xff;" horiz-adv-x="1005" d="M-113 -332l52 244q74 -12 112 -12q102 0 154 86l-107 1024h301l29 -684l344 684h330l-631 -1088q-88 -152 -178 -207t-254 -55q-70 0 -152 8zM252 1167l53 232h311l-53 -232h-311zM711 1167l53 232h311l-53 -232h-311z" />
<glyph unicode="&#x152;" horiz-adv-x="1992" d="M111 528q0 371 231 633q199 225 518 225q186 0 336 -98l18 78h863l-62 -266h-526l-59 -260h460l-57 -252h-461l-76 -322h594l-61 -266h-930l19 76q-147 -96 -314 -96q-231 0 -362 146t-131 402zM459 528q0 -131 68.5 -203.5t191.5 -72.5q137 0 217 86q55 60 88 203 l68 288q16 70 16 121q0 76 -57.5 120t-159.5 44q-193 0 -316 -186q-117 -178 -116 -400z" />
<glyph unicode="&#x153;" horiz-adv-x="1921" d="M70 449q0 250 169 419.5t416 169.5q242 0 375 -133q139 131 361 131q225 0 348 -118.5t123 -335.5q-1 -23 -9 -136h-729q-4 -33 -4 -45q0 -94 57.5 -148t153.5 -54q154 0 230 149l249 -90q-143 -285 -481 -285q-244 0 -377 129q-147 -129 -374 -129q-229 0 -368.5 130 t-139.5 346zM377 434q0 -236 207 -235q127 0 201.5 115.5t74.5 260.5q0 238 -209 238q-117 0 -195.5 -108.5t-78.5 -270.5zM1161 637h430q-12 193 -186 192q-187 1 -244 -192z" />
<glyph unicode="&#x178;" horiz-adv-x="1243" d="M137 1366h369l176 -459l379 459h442l-729 -766l-139 -600h-342l153 659zM477 1528l51 221h295l-51 -221h-295zM930 1528l51 221h293l-51 -221h-293z" />
<glyph unicode="&#x2c6;" horiz-adv-x="1024" d="M285 1155l254 258h299l135 -258h-223l-72 150l-129 -150h-264z" />
<glyph unicode="&#x2dc;" horiz-adv-x="1024" d="M293 1163q45 129 101.5 184.5t144.5 55.5q45 0 88 -14l100 -33q43 -14 66 -15q46 1 77 64h154q-74 -242 -246 -242q-53 0 -123 23l-69 22q-51 16 -68 17q-33 0 -78 -62h-147z" />
<glyph unicode="&#x2000;" horiz-adv-x="915" />
<glyph unicode="&#x2001;" horiz-adv-x="1831" />
<glyph unicode="&#x2002;" horiz-adv-x="915" />
<glyph unicode="&#x2003;" horiz-adv-x="1831" />
<glyph unicode="&#x2004;" horiz-adv-x="610" />
<glyph unicode="&#x2005;" horiz-adv-x="457" />
<glyph unicode="&#x2006;" horiz-adv-x="305" />
<glyph unicode="&#x2007;" horiz-adv-x="305" />
<glyph unicode="&#x2008;" horiz-adv-x="228" />
<glyph unicode="&#x2009;" horiz-adv-x="366" />
<glyph unicode="&#x200a;" horiz-adv-x="101" />
<glyph unicode="&#x2010;" horiz-adv-x="450" d="M-25 369l64 272h450l-63 -272h-451z" />
<glyph unicode="&#x2011;" horiz-adv-x="450" d="M-25 369l64 272h450l-63 -272h-451z" />
<glyph unicode="&#x2012;" horiz-adv-x="450" d="M-25 369l64 272h450l-63 -272h-451z" />
<glyph unicode="&#x2013;" d="M49 369l64 272h1083l-63 -272h-1084z" />
<glyph unicode="&#x2014;" horiz-adv-x="1472" d="M-25 369l64 272h1472l-63 -272h-1473z" />
<glyph unicode="&#x2018;" horiz-adv-x="526" d="M154 696l57 250q41 176 139.5 275.5t278.5 144.5l-29 -129q-135 -76 -178 -207h129l-76 -334h-321z" />
<glyph unicode="&#x2019;" horiz-adv-x="518" d="M154 698l30 129q131 72 176 205h-129l76 334h322l-58 -250q-41 -176 -140 -275.5t-277 -142.5z" />
<glyph unicode="&#x201a;" horiz-adv-x="518" d="M-84 -334l31 129q133 74 176 205h-129l76 334h321l-57 -250q-41 -176 -140.5 -275.5t-277.5 -142.5z" />
<glyph unicode="&#x201c;" horiz-adv-x="968" d="M154 696l57 250q41 176 139.5 275.5t278.5 144.5l-29 -129q-135 -76 -178 -207h129l-76 -334h-321zM598 696l57 250q41 176 139.5 275.5t278.5 144.5l-31 -129q-135 -76 -176 -207h129l-77 -334h-320z" />
<glyph unicode="&#x201d;" horiz-adv-x="968" d="M154 698l30 129q131 72 176 205h-129l76 334h322l-58 -250q-41 -176 -140 -275.5t-277 -142.5zM598 698l29 129q133 72 178 205h-131l78 334h321l-57 -250q-41 -176 -140.5 -275.5t-277.5 -142.5z" />
<glyph unicode="&#x201e;" horiz-adv-x="968" d="M-84 -334l31 129q133 74 176 205h-129l76 334h321l-57 -250q-41 -176 -140.5 -275.5t-277.5 -142.5zM360 -334l29 129q135 74 178 205h-131l78 334h322l-58 -250q-41 -176 -140 -275.5t-278 -142.5z" />
<glyph unicode="&#x2022;" horiz-adv-x="1366" d="M436 692q0 119 84 202t205 83q113 0 196 -84t83 -199q0 -119 -83 -201.5t-200 -82.5t-201 82.5t-84 199.5z" />
<glyph unicode="&#x2026;" horiz-adv-x="1576" d="M-6 0l78 334h319l-76 -334h-321zM520 0l76 334h322l-78 -334h-320zM1044 0l78 334h322l-78 -334h-322z" />
<glyph unicode="&#x202f;" horiz-adv-x="366" />
<glyph unicode="&#x2039;" horiz-adv-x="452" d="M45 369l70 303l348 223l-62 -262l-215 -139l148 -152l-51 -225z" />
<glyph unicode="&#x203a;" horiz-adv-x="452" d="M6 117l62 262l215 139l-150 150l53 227l238 -254l-72 -301z" />
<glyph unicode="&#x205f;" horiz-adv-x="457" />
<glyph unicode="&#x20ac;" horiz-adv-x="1687" d="M82 578l127 200h121q59 295 256.5 459t490.5 164q295 0 461 -144q113 -96 154 -268l-332 -94q-14 104 -51 152q-66 82 -217 81q-312 0 -392 -350h465l-127 -200h-362q0 -160 81 -250t222 -90q117 0 196.5 64.5t153.5 217.5l291 -153q-209 -401 -657 -402q-399 0 -570 279 q-80 129 -82 334h-229z" />
<glyph unicode="&#x2122;" horiz-adv-x="1814" d="M160 1198l39 168h673l-36 -168h-218l-141 -610h-225l141 610h-233zM801 588l180 778h319l37 -475l269 475h325l-178 -778h-229l153 569l-315 -569h-178l-47 567l-109 -567h-227z" />
<glyph unicode="&#x25fc;" horiz-adv-x="1013" d="M0 0v1014h1014v-1014h-1014z" />
<glyph unicode="&#xfb03;" horiz-adv-x="1771" d="M23 0l186 805h-162l47 205h162l12 55q74 330 365 330q96 0 209 -31l-54 -229q-63 10 -98 10q-98 0 -123 -101l-8 -34h309l15 55q45 170 131 250t231 80q98 0 209 -31l-51 -229q-68 10 -98 10q-98 0 -123 -101l-8 -34h198l-47 -205h-199l-186 -805h-305l186 805h-309 l-186 -805h-303zM1249 0l234 1010h303l-234 -1010h-303zM1511 1135l54 231h303l-53 -231h-304z" />
<glyph unicode="&#xfb04;" horiz-adv-x="1771" d="M23 0l186 805h-162l47 205h162l12 55q74 330 365 330q96 0 209 -31l-54 -229q-63 10 -98 10q-98 0 -123 -101l-8 -34h309l15 55q45 170 131 250t231 80q98 0 209 -31l-51 -229q-68 10 -98 10q-98 0 -123 -101l-8 -34h198l-47 -205h-199l-186 -805h-305l186 805h-309 l-186 -805h-303zM1249 0l316 1366h303l-316 -1366h-303z" />
</font>
</defs>
</svg>
