<?xml version="1.0" standalone="no"?>
<!DOCTYPE svg PUBLIC "-//W3C//DTD SVG 1.1//EN" "http://www.w3.org/Graphics/SVG/1.1/DTD/svg11.dtd" >
<svg xmlns="http://www.w3.org/2000/svg">
<metadata></metadata>
<defs>
<font id="ancona-cdbold" horiz-adv-x="819" >
<font-face units-per-em="2048" ascent="1638" descent="-410" />
<missing-glyph horiz-adv-x="436" />
<glyph horiz-adv-x="2048" />
<glyph horiz-adv-x="2048" />
<glyph unicode="&#xd;" horiz-adv-x="436" />
<glyph unicode=" "  horiz-adv-x="436" />
<glyph unicode="&#x09;" horiz-adv-x="436" />
<glyph unicode="&#xa0;" horiz-adv-x="436" />
<glyph unicode="!" horiz-adv-x="464" d="M117 0v246h231v-246h-231zM117 778v588h231v-588l-41 -409h-149z" />
<glyph unicode="&#x22;" horiz-adv-x="624" d="M68 1366h196l-41 -477h-114zM360 1366h197l-41 -477h-115z" />
<glyph unicode="#" d="M37 373l26 139h97l57 326h-104l28 139h101l67 389h140l-70 -389h166l67 389h140l-68 -389h98l-24 -139h-99l-57 -326h107l-25 -139h-106l-66 -373h-139l65 373h-166l-65 -373h-137l65 373h-98zM297 512h166l57 326h-166z" />
<glyph unicode="$" d="M57 268v201h246v-158q0 -76 26.5 -104.5t94.5 -28.5t94.5 36t26.5 128t-31 139q-16 27 -145 111q-209 137 -248 190q-59 82 -60 228q0 207 136 280q88 49 192 51v129h68v-129q96 -6 174 -38q143 -61 143 -250v-127h-246v114q0 115 -116 115q-109 0 -109 -115 q0 -96 20.5 -126.5t131.5 -100.5q197 -125 245 -172q92 -88 93 -258q0 -242 -113 -328q-78 -59 -223 -71v-183h-68v183q-332 16 -332 284z" />
<glyph unicode="%" horiz-adv-x="1232" d="M102 819v346q0 207 195 207t195 -207v-346q0 -209 -195 -209t-195 209zM240 811q0 -98 57 -98q39 0 51 30q6 18 6 68v363q0 96 -57 96t-57 -96v-363zM285 -115l598 1637l65 -25l-598 -1634zM739 201v346q0 207 197 207q194 0 194 -207v-346q0 -207 -196 -207 q-195 0 -195 207zM877 195q0 -98 59 -99q39 0 51 31q6 18 6 68v360q0 74 -22 88q-12 8 -35 8q-59 0 -59 -96v-360z" />
<glyph unicode="&#x26;" horiz-adv-x="1017" d="M68 350q0 111 55 219q39 76 151 189l23 22l-45 97q-55 119 -55 223q0 129 75.5 207.5t198.5 78.5q121 0 196.5 -69.5t75.5 -181.5q0 -162 -194 -381l178 -355q37 92 41 217h197q-4 -104 -37 -218.5t-78 -178.5q41 -53 117 -53q16 0 28 2v-168q-82 -16 -123 -16 q-100 0 -167 73q-119 -74 -267 -73q-166 0 -268 101t-102 265zM293 354q0 -74 47 -123t121 -49q59 0 131 37l-201 365q-98 -119 -98 -230zM401 1110q1 -60 48 -154l57 78q35 47 35 101q0 72 -62 71q-78 0 -78 -96z" />
<glyph unicode="'" horiz-adv-x="333" d="M68 1366h196l-41 -477h-114z" />
<glyph unicode="(" horiz-adv-x="561" d="M80 39v946q0 197 112.5 305.5t317.5 110.5v-123q-102 -2 -141 -31q-57 -41 -58 -174v-1122q0 -72 8 -105q14 -51 62 -77q41 -23 129 -23v-123q-205 2 -317.5 110.5t-112.5 305.5z" />
<glyph unicode=")" horiz-adv-x="561" d="M51 -254q102 2 142 31q57 41 57 174v1122q0 72 -8 105q-14 51 -58.5 75.5t-132.5 24.5v123q205 -2 317.5 -110.5t112.5 -305.5v-946q0 -197 -112.5 -305.5t-317.5 -110.5v123z" />
<glyph unicode="*" d="M117 1102l43 133l180 -57v188h141v-188l181 57l43 -133l-181 -60l111 -151l-113 -84l-110 154l-113 -154l-113 84l111 151z" />
<glyph unicode="+" d="M82 557v205h225v237h205v-237h225v-205h-225v-233h-205v233h-225z" />
<glyph unicode="," horiz-adv-x="409" d="M76 -260l137 260h-123v246h232v-246l-150 -260h-96z" />
<glyph unicode="-" horiz-adv-x="350" d="M0 403v205h350v-205h-350z" />
<glyph unicode="." horiz-adv-x="409" d="M88 0v246h231v-246h-231z" />
<glyph unicode="/" horiz-adv-x="743" d="M6 -342l457 1708h184l-457 -1708h-184z" />
<glyph unicode="0" d="M82 326v673q0 176 82 256q90 86 246 86q174 0 264 -104q63 -74 63 -238v-673q0 -176 -82 -256q-90 -86 -245 -86q-174 0 -265 104q-63 74 -63 238zM313 311q0 -92 21.5 -117.5t75.5 -25.5q53 0 74.5 25.5t21.5 117.5v703q0 92 -21.5 117.5t-74.5 25.5t-75 -25.5 t-22 -117.5v-703z" />
<glyph unicode="1" d="M125 922v186q201 86 268 217h164v-1325h-231v995q-96 -55 -201 -73z" />
<glyph unicode="2" d="M86 0q-2 188 33 303t123 205l159 164q61 63 82 96q33 53 33 119v164q0 106 -100 106q-96 0 -97 -106v-191h-215v139q0 195 78 263q92 80 244 79q176 0 262 -96q59 -68 60 -246v-131q0 -117 -44.5 -181t-117.5 -140l-135 -137q-106 -106 -109 -205h420v-205h-676z" />
<glyph unicode="3" d="M68 326v104h231v-119q0 -92 21.5 -117.5t74.5 -25.5t75 25.5t22 117.5v162q0 84 -36 119t-122 35h-51v164h47q162 0 162 141v82q0 92 -21.5 117.5t-75.5 25.5q-53 0 -74.5 -25.5t-21.5 -117.5v-86h-211v71q0 195 76 263q90 80 242 79q170 0 258 -96q59 -66 59 -246v-88 q0 -82 -26.5 -125t-98.5 -75q76 -35 100.5 -72t24.5 -111v-202q0 -176 -82 -256q-90 -86 -246 -86q-176 0 -264 104q-63 76 -63 238z" />
<glyph unicode="4" d="M57 252v190l334 883h287v-883h96v-190h-96v-252h-232v252h-389zM260 442h186v355q0 104 13 266l-84 -270z" />
<glyph unicode="5" d="M82 326v96h231l2 -111q2 -94 19 -114q25 -29 76 -29q61 0 84 39q12 23 12 104v332q0 98 -94 98q-106 0 -117 -129h-191l23 711h596v-205h-404l-6 -248q92 55 172 56q111 0 181.5 -69t70.5 -214v-317q0 -176 -82 -256q-90 -86 -245 -86q-172 0 -263 104q-66 76 -65 238z " />
<glyph unicode="6" d="M88 326v671q0 178 82 258q90 86 246 86q174 0 264 -104q63 -74 63 -240v-36h-231v63q0 76 -21.5 104.5t-74.5 28.5q-63 0 -82 -35q-14 -25 -15 -98v-250q84 78 183 78q111 0 176 -61.5t65 -163.5v-301q0 -178 -81 -256q-90 -86 -246 -86q-174 0 -264 104q-63 74 -64 238z M313 311q0 -90 20.5 -116.5t74.5 -26.5q53 0 74.5 25.5t21.5 117.5v211q0 92 -21.5 118t-74.5 26t-74 -27t-21 -117v-211z" />
<glyph unicode="7" d="M47 1122v205h696v-205q-133 -219 -218 -531t-87 -591h-250q27 541 338 1122h-479z" />
<glyph unicode="8" d="M82 326v127q0 104 21.5 148t109.5 106q-111 84 -111 194v98q0 195 74 263q86 80 234 79q166 0 249 -96q58 -66 58 -246v-98q0 -111 -111 -194q88 -61 109.5 -105.5t21.5 -148.5v-127q0 -176 -82 -256q-90 -86 -245 -86q-176 0 -265 104q-63 74 -63 238zM313 311 q0 -92 21.5 -117.5t75.5 -25.5q53 0 74.5 25.5t21.5 117.5v140q0 92 -22.5 118.5t-73.5 26.5q-61 0 -84 -39q-13 -24 -13 -106v-140zM313 932q0 -90 22.5 -117t74.5 -27q61 0 84 39q12 23 12 105v82q0 92 -21.5 117.5t-74.5 25.5t-75 -25.5t-22 -117.5v-82z" />
<glyph unicode="9" d="M76 328v37h231v-64q0 -76 21.5 -104.5t74.5 -28.5q63 0 82 35q14 25 15 98v250q-84 -78 -183 -78q-111 0 -176 61.5t-65 163.5v301q0 178 82 256q90 86 245 86q174 0 265 -104q63 -74 63 -238v-671q0 -178 -82 -258q-90 -86 -246 -86q-174 0 -264 104q-63 74 -63 240z M315 803q0 -92 21.5 -118t75.5 -26q53 0 73.5 27t20.5 117v211q0 90 -20.5 116.5t-73.5 26.5t-75 -25.5t-22 -117.5v-211z" />
<glyph unicode=":" horiz-adv-x="409" d="M88 0v246h231v-246h-231zM88 764v246h231v-246h-231z" />
<glyph unicode=";" horiz-adv-x="409" d="M76 -260l137 260h-123v246h232v-246l-150 -260h-96zM90 764v246h232v-246h-232z" />
<glyph unicode="&#x3c;" horiz-adv-x="1024" d="M68 582v215l886 446v-250l-618 -305l616 -305l2 -250z" />
<glyph unicode="=" d="M82 375v205h655v-205h-655zM82 743v205h655v-205h-655z" />
<glyph unicode="&#x3e;" horiz-adv-x="1024" d="M70 133v252l618 305l-616 305l-2 248l886 -448v-213z" />
<glyph unicode="?" horiz-adv-x="751" d="M55 897v174q0 176 66 238q82 78 241 77q160 0 246 -75q76 -68 76 -211v-101q0 -123 -70 -219l-98 -135q-49 -68 -63 -98q-25 -49 -25 -111v-67h-205v102q0 66 21 113q49 113 108 196l64 88q39 53 39 131v58q0 92 -20.5 118.5t-69.5 26.5q-66 0 -82 -43q-10 -25 -11 -102 v-160h-217zM209 0v246h231v-246h-231z" />
<glyph unicode="@" d="M39 332v715q0 164 96 251.5t277 87.5q174 0 272 -87t98 -242v-695h-125l-24 58q-63 -78 -146 -78q-158 0 -157 172v385q0 186 170 186q63 0 118 -53v43q0 76 -56 122t-148 46q-139 0 -191 -98q-20 -39 -20 -131v-637q0 -115 39 -168q63 -86 182 -86q111 0 194 72l99 -95 q-109 -121 -293 -120q-176 0 -274 83q-111 94 -111 269zM494 557q0 -78 61 -78q63 0 63 78v313q0 78 -61 78q-63 0 -63 -78v-313z" />
<glyph unicode="A" horiz-adv-x="829" d="M8 0l260 1366h291l262 -1366h-268l-33 225h-219l-37 -225h-256zM334 430h155l-75 692z" />
<glyph unicode="B" horiz-adv-x="919" d="M94 0v1366h432q156 0 227.5 -67.5t71.5 -217.5v-135q0 -86 -16 -121q-18 -41 -88 -90q72 -47 98.5 -94t26.5 -125v-254q0 -78 -33 -143q-37 -72 -102 -99q-51 -20 -181 -20h-436zM346 190h125q72 0 97.5 25t25.5 90v195q0 74 -25.5 100.5t-97.5 26.5h-125v-437zM346 831 h105q72 0 97 25t25 90v101q0 76 -25.5 102.5t-96.5 26.5h-105v-345z" />
<glyph unicode="C" horiz-adv-x="894" d="M80 291v784q0 158 101.5 234.5t273.5 76.5q186 0 293 -92q84 -74 83 -219v-213h-251v207q0 119 -125 119q-123 0 -123 -119v-758q0 -121 125 -121q123 0 123 121v207h251v-227q0 -158 -101 -234.5t-275 -76.5q-184 0 -291 92q-84 74 -84 219z" />
<glyph unicode="D" horiz-adv-x="923" d="M94 0v1366h410q342 0 342 -324v-718q0 -324 -342 -324h-410zM346 205h119q129 0 129 131v694q0 131 -129 131h-119v-956z" />
<glyph unicode="E" horiz-adv-x="849" d="M94 0v1366h684v-205h-432v-327h414v-205h-414v-424h457v-205h-709z" />
<glyph unicode="F" horiz-adv-x="804" d="M94 0v1366h682v-205h-430v-346h410v-205h-410v-610h-252z" />
<glyph unicode="G" horiz-adv-x="909" d="M80 283v792q0 158 101.5 234.5t275.5 76.5q186 0 291 -92q84 -74 83 -219v-160h-251v152q0 121 -123 121q-125 0 -125 -121v-770q0 -119 125 -119q123 0 123 119v240h-158v204h409v-741h-204v100q-99 -120 -251 -120h-3q-160 0 -242 98q-51 61 -51 205z" />
<glyph unicode="H" horiz-adv-x="937" d="M94 0v1366h252v-539h246v539h252v-1366h-252v623h-246v-623h-252z" />
<glyph unicode="I" horiz-adv-x="440" d="M94 0v1366h252v-1366h-252z" />
<glyph unicode="J" horiz-adv-x="778" d="M14 291v153h240v-147q0 -119 94 -119q96 0 96 119v1069h252v-1075q0 -158 -91 -234.5t-249 -76.5q-174 0 -266 92q-76 76 -76 219z" />
<glyph unicode="K" horiz-adv-x="890" d="M94 0v1366h252v-506l264 506h273l-314 -590l314 -776h-273l-264 664v-664h-252z" />
<glyph unicode="L" horiz-adv-x="745" d="M94 0v1366h252v-1161h373v-205h-625z" />
<glyph unicode="M" horiz-adv-x="1320" d="M94 0v1366h410l106 -535q18 -96 52 -471l20 236q10 125 33 235l106 535h406v-1366h-246v811q0 104 6 215q2 29 6 109l-211 -1135h-235l-232 1147l9 -111l10 -110q6 -66 6 -221v-705h-246z" />
<glyph unicode="N" horiz-adv-x="966" d="M94 0v1366h299l133 -473q2 -14 41 -137q20 -63 80 -275q10 -35 37 -137q-8 61 -25 156q-38 230 -38 381v8v477h251v-1366h-280l-162 563q-2 8 -29 121q-2 6 -30 119l-31 121q-10 41 -29 118q35 -354 35 -540v-502h-252z" />
<glyph unicode="O" horiz-adv-x="909" d="M80 291v784q0 158 101.5 234.5t273.5 76.5q186 0 293 -92q83 -74 83 -219v-784q0 -158 -101 -234.5t-275 -76.5q-184 0 -291 92q-84 74 -84 219zM332 297q0 -119 123 -119q125 0 125 119v772q0 119 -123 119q-125 0 -125 -119v-772z" />
<glyph unicode="P" horiz-adv-x="886" d="M94 0v1366h527q225 0 225 -244v-239q0 -197 -54.5 -258.5t-230.5 -61.5h-215v-563h-252zM350 768h117q74 0 100.5 24.5t26.5 90.5v151q0 74 -26.5 100.5t-100.5 26.5h-117v-393z" />
<glyph unicode="Q" horiz-adv-x="909" d="M80 291v784q0 158 101.5 234.5t273.5 76.5q186 0 293 -92q84 -74 83 -219v-784v-6q0 -85 -26 -142l127 -137l-160 -149l-139 149q-83 -26 -170 -26h-6q-186 0 -293 92q-84 74 -84 219zM332 297q0 -119 123 -119q125 0 125 119v772q0 119 -123 119q-125 0 -125 -119v-772z " />
<glyph unicode="R" horiz-adv-x="933" d="M94 0v1366h473q150 0 214.5 -57.5t64.5 -190.5v-176q0 -104 -30 -154.5t-114 -85.5q88 -41 116 -85t28 -140v-295q0 -106 67 -182h-272q-47 55 -47 168v295q0 76 -25.5 107.5t-87.5 31.5h-135v-602h-252zM346 807h133q66 0 90.5 24.5t24.5 90.5v112q0 74 -24.5 100.5 t-90.5 26.5h-133v-354z" />
<glyph unicode="S" horiz-adv-x="854" d="M59 274v209h254v-164q0 -78 27 -108.5t92 -30.5q70 0 95.5 37t25.5 133q0 143 -88 203l-234 158q-90 61 -127.5 136t-37.5 193q0 184 97 265t261 81q180 0 278 -79q88 -72 89 -220v-131h-252v119q0 117 -117 117q-109 0 -109 -119q0 -72 11 -104q16 -45 65 -78l184 -119 q141 -90 188.5 -167t47.5 -212q0 -217 -80 -307q-94 -106 -297 -106q-178 0 -275.5 76.5t-97.5 217.5z" />
<glyph unicode="T" horiz-adv-x="792" d="M20 1161v205h752v-205h-250v-1161h-252v1161h-250z" />
<glyph unicode="U" horiz-adv-x="915" d="M82 291v1075h252v-1069q0 -119 125 -119q123 0 123 119v1069h252v-1075q0 -158 -101.5 -234.5t-275.5 -76.5q-184 0 -291 92q-84 74 -84 219z" />
<glyph unicode="V" horiz-adv-x="792" d="M8 1366h268l93 -657l8 -64q0 -4 6 -61q8 -86 23 -291q4 100 20 291q4 31 8 61q4 51 6 64l90 657h254l-254 -1366h-254z" />
<glyph unicode="W" horiz-adv-x="1331" d="M6 1366h258l98 -694q2 -12 11 -103l28 -268l43 371l99 694h243l103 -694q2 -16 16 -146q6 -61 25 -225l33 299q6 53 6 72l96 694h258l-256 -1366h-266l-88 561q-10 68 -29 215q-2 23 -16 215l-19 -215q-8 -78 -31 -215l-94 -561h-266z" />
<glyph unicode="X" horiz-adv-x="854" d="M-8 0l299 725l-271 641h271l92 -244q2 -8 8 -28l10 -29q10 -31 25 -113q12 74 23 113q4 20 16 57l82 244h278l-264 -641l301 -725h-276l-125 354q-2 6 -6 25l-9 24q-10 31 -20 103q-8 -51 -20 -103q-6 -31 -7 -24q-2 -10 -8 -25l-125 -354h-274z" />
<glyph unicode="Y" horiz-adv-x="755" d="M-10 1366h266l92 -432q31 -145 37 -246q4 29 8 62l6 61q6 66 19 123l90 432h258l-258 -950v-416h-252v426z" />
<glyph unicode="Z" horiz-adv-x="780" d="M35 0v158l428 1003h-375v205h651v-139l-428 -1022h428v-205h-704z" />
<glyph unicode="[" horiz-adv-x="561" d="M80 -342v1708h430v-190h-199v-1328h199v-190h-430z" />
<glyph unicode="\" horiz-adv-x="743" d="M96 1366h185l456 -1708h-184z" />
<glyph unicode="]" horiz-adv-x="561" d="M51 -152h199v1328h-199v190h430v-1708h-430v190z" />
<glyph unicode="^" horiz-adv-x="1024" d="M43 735l328 637h282l328 -637h-227l-242 465l-242 -465h-227z" />
<glyph unicode="_" horiz-adv-x="655" d="M0 -109h655v-204h-655v204z" />
<glyph unicode="`" horiz-adv-x="1024" d="M203 1448h293l139 -274h-164z" />
<glyph unicode="a" horiz-adv-x="761" d="M59 233v101q0 98 36 145t153 105l207 100v94q0 76 -80 76q-82 0 -82 -76v-94h-219v139q0 100 80 148q88 53 233 53q166 0 244 -78q57 -57 57 -186v-619q0 -94 41 -141h-246q-23 27 -28 74q-86 -88 -197 -88q-102 0 -156 65q-43 53 -43 182zM293 250q0 -92 61 -92 q49 0 86 37q14 14 15 55v246l-90 -52q-72 -41 -72 -131v-63z" />
<glyph unicode="b" horiz-adv-x="784" d="M76 0v1366h231v-444q80 102 191 102q98 0 164 -63q55 -53 55 -197v-518q0 -150 -70 -209q-61 -51 -149 -51q-111 0 -191 102v-88h-231zM307 272q0 -102 90 -102q88 0 88 102v465q0 102 -88 103q-90 -1 -90 -103v-465z" />
<glyph unicode="c" horiz-adv-x="763" d="M68 248v514q0 121 87 191.5t234 70.5q145 0 232.5 -71.5t87.5 -190.5v-137h-232v151q0 78 -90 78q-88 0 -88 -78v-545q0 -75 88 -75h2q88 0 88 75v179h232v-162q0 -119 -87 -190.5t-233 -71.5q-147 0 -234 70.5t-87 191.5z" />
<glyph unicode="d" horiz-adv-x="784" d="M68 246v518q0 154 69 209q63 51 150 51q115 0 190 -102v444h232v-1366h-232v88q-76 -102 -190 -102q-100 0 -159.5 61.5t-59.5 198.5zM299 272q0 -102 90 -102q88 0 88 102v465q0 102 -88 103q-90 -1 -90 -103v-465z" />
<glyph unicode="e" horiz-adv-x="776" d="M68 248v514q0 121 86 191.5t235 70.5q147 0 233.5 -70.5t86.5 -191.5v-305h-410v-226q0 -75 88 -75h2q88 0 88 75v109h232v-92q0 -121 -87 -191.5t-235 -70.5q-147 0 -233 70.5t-86 191.5zM299 614h178v162q0 78 -90 78q-88 0 -88 -78v-162z" />
<glyph unicode="f" horiz-adv-x="475" d="M6 852v158h109v149q0 227 237 227q31 0 105 -6v-186h-43q-68 0 -68 -74v-110h105v-158h-105v-852h-231v852h-109z" />
<glyph unicode="g" horiz-adv-x="784" d="M68 246v518q0 154 69 209q63 51 150 51q115 0 190 -102v88h232v-1057q0 -88 -13 -133q-16 -63 -67 -111q-86 -78 -242 -78q-199 0 -274 115q-39 57 -41 168h241q4 -57 21.5 -77.5t58.5 -20.5q86 0 86 109v5l-2 158q-76 -102 -190 -102q-100 0 -159.5 61.5t-59.5 198.5z M299 272q0 -102 90 -102q88 0 88 102v465q0 102 -88 103q-90 -1 -90 -103v-465z" />
<glyph unicode="h" horiz-adv-x="792" d="M76 0v1366h231v-428q88 86 185 86q131 0 188 -86q37 -55 37 -186v-752h-232v737q0 102 -90 103q-88 0 -88 -103v-737h-231z" />
<glyph unicode="i" horiz-adv-x="382" d="M76 0v1010h231v-1010h-231zM76 1141v225h231v-225h-231z" />
<glyph unicode="j" horiz-adv-x="389" d="M-14 -156q8 -2 16 -2h25q43 0 53 43q2 12 2 80v1045h231v-1123q0 -243 -239 -243h-2h-56q-8 2 -30 0v200zM82 1141v225h231v-225h-231z" />
<glyph unicode="k" horiz-adv-x="763" d="M76 0v1366h231v-704l193 348h258l-258 -432l272 -578h-256l-209 492v-492h-231z" />
<glyph unicode="l" horiz-adv-x="382" d="M76 0v1366h231v-1366h-231z" />
<glyph unicode="m" horiz-adv-x="1202" d="M76 0v1010h233v-72q84 86 189 86q111 0 192 -98q86 98 205 98q129 0 192 -84q39 -51 39 -174v-766h-231v737q0 102 -90 103q-88 0 -88 -103v-737h-232v737q0 102 -88 103q-90 0 -90 -103v-737h-231z" />
<glyph unicode="n" horiz-adv-x="792" d="M76 0v1010h231v-72q88 86 187 86q162 0 204 -127q18 -53 19 -145v-752h-232v737q0 102 -88 103q-90 0 -90 -103v-737h-231z" />
<glyph unicode="o" horiz-adv-x="776" d="M68 248v514q0 121 87 191.5t234 70.5q145 0 232.5 -71.5t87.5 -190.5v-514q0 -119 -87 -190.5t-233 -71.5q-147 0 -234 70.5t-87 191.5zM299 258q0 -102 90 -102q88 0 88 102v494q0 102 -88 102q-90 0 -90 -102v-494z" />
<glyph unicode="p" horiz-adv-x="784" d="M76 -342v1352h231v-88q78 102 191 102q127 0 188 -96q31 -47 31 -164v-518q0 -152 -66.5 -206t-152.5 -54q-111 0 -191 102v-430h-231zM307 272q0 -102 90 -102q88 0 88 102v465q0 102 -88 103q-90 -1 -90 -103v-465z" />
<glyph unicode="q" horiz-adv-x="784" d="M68 246v518q0 150 69 209q61 51 150 51q111 0 190 -102v88h232v-1352h-232v430q-80 -102 -190 -102q-98 0 -164 63q-55 53 -55 197zM299 272q0 -102 88 -102q90 0 90 102v465q0 102 -90 103q-88 -1 -88 -103v-465z" />
<glyph unicode="r" horiz-adv-x="550" d="M76 0v1010h231v-119q49 76 94 104.5t115 28.5h16v-233q-55 14 -83 14q-141 0 -142 -164v-641h-231z" />
<glyph unicode="s" horiz-adv-x="698" d="M47 250v112h219v-98q0 -106 88 -106q82 0 82 96q0 68 -16.5 93.5t-93.5 80.5l-115 82q-92 66 -125 123q-23 39 -23 137q0 78 13 113q16 51 67 86q84 55 209 55q297 0 297 -215v-127h-205v74q0 66 -19 82t-63 16q-79 0 -79 -76q0 -68 79 -123l160 -110q88 -61 111 -115 q20 -43 20 -151q0 -84 -12 -125q-18 -57 -72 -101q-83 -67 -217 -67h-4q-170 0 -254 92q-47 51 -47 172z" />
<glyph unicode="t" horiz-adv-x="538" d="M14 852v158h123v356h232v-356h137v-158h-137v-580q0 -57 16 -80.5t76 -23.5q31 0 51 4v-172q-78 -14 -129 -14q-246 0 -246 198v668h-123z" />
<glyph unicode="u" horiz-adv-x="792" d="M76 258v752h231v-738q0 -102 90 -102q88 0 88 102v738h232v-1010h-232v72q-86 -86 -184 -86q-164 0 -207 129q-18 51 -18 143z" />
<glyph unicode="v" horiz-adv-x="681" d="M0 1010h229l88 -545l11 -70q4 -31 10 -112q4 33 14 112q0 4 4 35q2 14 6 35l91 545h229l-229 -1010h-224z" />
<glyph unicode="w" horiz-adv-x="1079" d="M0 1010h225l72 -457q25 -160 31 -227q2 37 10 106l22 121l78 457h193l98 -596q4 -29 8 -88q2 39 11 106q6 41 20 121l80 457h217l-217 -1010h-219l-70 424q-18 113 -24 211q-12 -111 -31 -211l-78 -424h-219z" />
<glyph unicode="x" horiz-adv-x="718" d="M6 0l203 551l-170 459h237l56 -219l4 -21q4 -12 6 -23.5t12 -82.5q4 45 15 84q6 23 6 22q2 16 6 23l65 217h222l-170 -459l215 -551h-250l-74 256q-2 8 -7 29.5t-9 33.5q-12 47 -19 103q-8 -55 -20 -103q-4 -20 -19 -63l-75 -256h-234z" />
<glyph unicode="y" horiz-adv-x="661" d="M-25 1010h242l80 -340q6 -35 18 -103q18 -92 29 -239q2 139 18 239l72 443h238l-199 -1008q-41 -211 -104.5 -284.5t-202.5 -73.5q-59 0 -141 18l32 188q53 -18 84 -18q57 0 80 47q29 59 29 94t-19 103z" />
<glyph unicode="z" horiz-adv-x="669" d="M39 0l6 190l350 629h-319v191h549v-189l-344 -631h358v-190h-600z" />
<glyph unicode="{" horiz-adv-x="561" d="M18 471v94q41 2 70 10q49 14 64 60q10 29 10 94v324q0 166 94 257t268 91v-123q-80 -2 -105.5 -28.5t-25.5 -108.5v-391q0 -160 -186 -232q186 -70 186 -231v-404q0 -82 25.5 -108.5t105.5 -28.5v-123q-174 0 -268 91t-94 257v336q0 94 -28 127t-116 37z" />
<glyph unicode="|" horiz-adv-x="1024" d="M385 -342v1708h254v-1708h-254z" />
<glyph unicode="}" horiz-adv-x="561" d="M39 -254q78 2 103.5 28.5t25.5 108.5v404q0 162 186 231q-186 72 -186 232v391q0 82 -25.5 108.5t-103.5 28.5v123q170 0 265 -92t95 -256v-324q0 -66 11 -94q14 -45 63 -60q15 -4 70 -10v-94q-88 -4 -116 -37t-28 -127v-336q0 -164 -95 -256t-265 -92v123z" />
<glyph unicode="~" horiz-adv-x="1366" d="M190 1255q111 262 295 263q68 0 234 -74q129 -57 168 -58q92 0 164 136l127 -103q-59 -139 -132 -198.5t-186 -59.5q-59 0 -229 80q-104 49 -156 49q-84 0 -158 -137z" />
<glyph unicode="&#xa1;" horiz-adv-x="464" d="M117 0v588l41 409h149l41 -409v-588h-231zM117 1120v246h231v-246h-231z" />
<glyph unicode="&#xa2;" d="M92 397v514q0 238 283 260v129h67v-129q283 -23 283 -260v-135h-227v150q0 76 -90 75q-88 0 -89 -75v-543q0 -76 91 -76q88 0 88 76v176h227v-162q0 -113 -74 -181.5t-209 -78.5v-182h-67v182q-283 27 -283 260z" />
<glyph unicode="&#xa3;" d="M-20 154q0 170 172 170q70 0 147 -43q14 45 14 73q0 84 -63 191l-12 20h-220v119h146l-12 18q-59 88 -60 213v95q0 188 101 264q90 68 239 67q342 0 342 -342v-110h-231v168q0 100 -109 100q-111 0 -110 -100v-119q0 -111 51 -190l41 -64h205v-119h-154q16 -51 16 -119 q0 -113 -47 -225q35 -53 105 -53q80 0 80 158v75h192v-141q0 -135 -27 -186q-47 -90 -184 -90q-102 0 -258 100q-94 -100 -199 -100q-76 0 -120.5 46t-44.5 124zM78 156q0 -59 57 -60q76 0 131 88q-2 2 -6 4q-49 33 -100 33q-82 0 -82 -65z" />
<glyph unicode="&#xa4;" horiz-adv-x="1075" d="M82 590l49 192h111v293q0 158 101 234.5t273 76.5q186 0 293 -92q84 -74 84 -219v-213h-252v207q0 119 -123 119q-125 0 -124 -119v-287h350l-49 -192h-301v-279q0 -121 122 -121q125 0 125 121v207h252v-227q0 -158 -101 -234.5t-276 -76.5q-184 0 -290 92 q-84 74 -84 219v299h-160z" />
<glyph unicode="&#xa5;" d="M29 1325h245l144 -672l137 672h236l-121 -440h96v-191h-148l-40 -151h129v-191h-177v-352h-231v352h-186v191h137l-43 151h-154v191h101z" />
<glyph unicode="&#xa6;" horiz-adv-x="1024" d="M385 313h254v-655h-254v655zM385 657v709h254v-709h-254z" />
<glyph unicode="&#xa7;" d="M61 715q0 143 162 215l-26 24q-31 29 -62 90q-23 45 -22 103q0 106 84 172.5t219 66.5q139 0 224 -74.5t85 -199.5q0 -32 -4 -63h-197l2 49q6 141 -114 141q-41 0 -69 -24.5t-28 -61.5t35 -72l23 -22l293 -324q92 -102 92 -196q0 -158 -131 -228l26 -26 q16 -16 31.5 -63.5t15.5 -86.5q0 -90 -65 -166q-84 -98 -240 -98q-150 0 -234.5 73.5t-78.5 207.5l2 45h201l-4 -41q0 -133 114 -133q45 0 75 26.5t30 67.5q0 39 -54 96l-235 254q-84 90 -98 113q-51 68 -52 135zM262 721q0 -43 47 -96l180 -201q68 41 68 108q0 47 -61 117 l-154 176q-80 -51 -80 -104z" />
<glyph unicode="&#xa8;" horiz-adv-x="1024" d="M244 1188v246h205v-246h-205zM575 1188v246h205v-246h-205z" />
<glyph unicode="&#xa9;" horiz-adv-x="1296" d="M41 578v210q0 164 37 265.5t127 181.5q168 152 442 151q305 0 473 -178q135 -144 135 -420v-210q0 -162 -37.5 -264.5t-125.5 -182.5q-168 -152 -445 -151q-303 0 -471 178q-135 143 -135 420zM184 571q0 -240 120 -351t343 -111q225 0 345 111.5t120 350.5v224 q0 240 -120 351t-343 111q-225 0 -345 -111t-120 -351v-224zM410 455v454q0 195 239 195q238 0 238 -195v-137h-178v133q0 57 -62 58q-59 0 -59 -58v-438q0 -57 59 -57q61 0 62 57v133h178v-145q0 -195 -240 -195q-113 0 -182 57q-55 45 -55 138z" />
<glyph unicode="&#xaa;" horiz-adv-x="518" d="M47 692v58q0 61 24.5 92.5t98.5 62.5l135 56v51q0 37 -49 37q-51 0 -51 -37v-62h-150v88q0 125 209 125q199 0 199 -162v-364q0 -55 35 -90h-170q-6 8 -21 37q-61 -45 -127 -45q-133 0 -133 153zM205 700q0 -47 37 -47q25 0 53 21q4 4 10 26v136l-53 -25q-47 -23 -47 -72 v-39z" />
<glyph unicode="&#xab;" horiz-adv-x="620" d="M55 424v164l199 190v-190l-82 -82l82 -82v-193zM342 424v164l199 190v-190l-82 -82l82 -82v-193z" />
<glyph unicode="&#xac;" horiz-adv-x="1024" d="M68 362v222h886v-584h-245v362h-641z" />
<glyph unicode="&#xad;" horiz-adv-x="350" d="M0 403v205h350v-205h-350z" />
<glyph unicode="&#xae;" horiz-adv-x="1296" d="M41 578v210q0 164 37 265.5t127 181.5q168 152 442 151q305 0 473 -178q135 -144 135 -420v-210q0 -162 -37.5 -264.5t-125.5 -182.5q-168 -152 -445 -151q-303 0 -471 178q-135 143 -135 420zM184 571q0 -240 120 -351t343 -111q225 0 345 111.5t120 350.5v224 q0 240 -120 351t-343 111q-225 0 -345 -111t-120 -351v-224zM408 272v820h299q180 0 180 -158v-100q0 -98 -68 -140q43 -27 55.5 -52.5t12.5 -78.5v-172q0 -39 9 -57.5t50 -61.5h-201q-37 43 -36 113v170q0 68 -56 68h-67v-351h-178zM586 768h67q35 0 45.5 11.5t10.5 41.5 v66q0 43 -13.5 51t-42.5 8h-67v-178z" />
<glyph unicode="&#xaf;" horiz-adv-x="655" d="M0 1624v205h655v-205h-655z" />
<glyph unicode="&#xb0;" d="M117 1083q0 123 86 210t209 87t208 -87t85 -212q0 -119 -86.5 -204.5t-206.5 -85.5q-123 0 -209 86t-86 206zM246 1085q0 -76 49 -129t115 -53t115.5 53.5t49.5 122.5q0 78 -47.5 131.5t-117.5 53.5q-66 0 -115 -53.5t-49 -125.5z" />
<glyph unicode="&#xb1;" d="M82 0v205h655v-205h-655zM82 557v205h225v237h205v-237h225v-205h-225v-233h-205v233h-225z" />
<glyph unicode="&#xb2;" horiz-adv-x="573" d="M72 545q0 121 21.5 188.5t80.5 122.5l102 96q72 68 72 123v96q0 57 -57 58q-55 0 -55 -58v-118h-152v88q0 119 53 162q61 49 160 49q111 0 172 -60q41 -39 41 -151v-76q0 -66 -27 -111q-20 -31 -80 -86l-86 -80q-66 -59 -67 -108h268v-135h-446z" />
<glyph unicode="&#xb3;" horiz-adv-x="573" d="M61 745v68h162v-76q0 -49 11.5 -63.5t41.5 -14.5q35 0 45.5 16.5t10.5 61.5v94q0 84 -92 84h-41v111h37q96 0 96 78v47q0 43 -10.5 60.5t-45.5 17.5q-31 0 -42 -14.5t-11 -63.5v-57h-149v49q0 119 51 160q61 49 160 49q109 0 168 -60q41 -41 41 -149v-51q0 -86 -70 -119 q70 -35 70 -109v-119q0 -109 -56.5 -158.5t-161.5 -49.5q-111 0 -172 63q-43 45 -43 145z" />
<glyph unicode="&#xb4;" horiz-adv-x="1024" d="M403 1174l140 274h293l-269 -274h-164z" />
<glyph unicode="&#xb5;" horiz-adv-x="792" d="M76 -342v1352h231v-738q0 -102 88 -102q90 0 90 102v738h232v-1010h-232v72q-74 -86 -155 -86q-7 0 -23 2v-330h-231z" />
<glyph unicode="&#xb6;" d="M63 1008q0 158 97.5 258t249.5 100h407v-88h-80v-1620h-127v1620h-114v-1620h-127v997q-129 4 -217.5 106.5t-88.5 246.5z" />
<glyph unicode="&#xb7;" horiz-adv-x="409" d="M88 383v246h231v-246h-231z" />
<glyph unicode="&#xb8;" horiz-adv-x="1024" d="M389 -350l17 69q47 -10 71 -10q80 0 80 68q0 57 -94 84v139h102v-76q152 -47 152 -155q0 -137 -201 -138q-53 0 -127 19z" />
<glyph unicode="&#xb9;" horiz-adv-x="573" d="M98 1090v120q133 53 176 131h115v-794h-162v581q-61 -31 -129 -38z" />
<glyph unicode="&#xba;" horiz-adv-x="530" d="M53 698v303q0 74 57.5 118t155.5 44q96 0 153.5 -44t57.5 -118v-303q0 -74 -57.5 -117.5t-153.5 -43.5t-154.5 44t-58.5 117zM215 705q0 -53 51 -54q49 0 49 54v290q0 53 -49 54q-51 -1 -51 -54v-290z" />
<glyph unicode="&#xbb;" horiz-adv-x="620" d="M82 231v193l82 82l-82 82v190l199 -190v-164zM369 231v193l82 82l-82 82v190l198 -190v-164z" />
<glyph unicode="&#xbc;" horiz-adv-x="1314" d="M98 1090v120q133 53 176 131h115v-794h-162v581q-61 -31 -129 -38zM362 0l490 1346h102l-489 -1346h-103zM797 147v119l217 529h194v-523h62v-125h-62v-147h-161v147h-250zM930 272h129v203q0 29 4 125q-12 -29 -35 -82q-14 -31 -20 -47z" />
<glyph unicode="&#xbd;" horiz-adv-x="1314" d="M98 1090v120q133 53 176 131h115v-794h-162v581q-61 -31 -129 -38zM362 0l490 1346h102l-489 -1346h-103zM815 0q0 123 21.5 189.5t81.5 121.5l102 97q70 66 70 122v97q0 55 -56 55q-55 0 -55 -55v-119h-152v88q0 119 55.5 164t157.5 45q111 0 170 -60q41 -41 41 -149 v-76q0 -66 -28 -110q-16 -29 -78 -86l-84 -80q-66 -61 -68 -109h269v-135h-447z" />
<glyph unicode="&#xbe;" horiz-adv-x="1314" d="M61 745v68h162v-76q0 -49 11.5 -63.5t41.5 -14.5q35 0 45.5 16.5t10.5 61.5v94q0 84 -92 84h-41v111h37q96 0 96 78v47q0 43 -10.5 60.5t-45.5 17.5q-31 0 -42 -14.5t-11 -63.5v-57h-149v49q0 119 51 160q61 49 160 49q109 0 168 -60q41 -41 41 -149v-51q0 -86 -70 -119 q70 -35 70 -109v-119q0 -109 -56.5 -158.5t-161.5 -49.5q-111 0 -172 63q-43 45 -43 145zM362 0l490 1346h102l-489 -1346h-103zM797 147v119l217 529h194v-523h62v-125h-62v-147h-161v147h-250zM930 272h129v203q0 29 4 125q-12 -29 -35 -82q-14 -31 -20 -47z" />
<glyph unicode="&#xbf;" horiz-adv-x="751" d="M68 264v101q0 123 69 219l99 137q49 70 63 98q25 49 25 111v67h204v-102q0 -66 -20 -113q-51 -119 -109 -198l-63 -88q-39 -53 -39 -131v-58q0 -90 19.5 -116.5t70.5 -26.5q66 0 82 43q10 25 10 100v160h217v-172q0 -178 -65 -240q-80 -76 -242 -75q-160 0 -246 75 q-76 68 -75 209zM309 1120v246h232v-246h-232z" />
<glyph unicode="&#xc0;" horiz-adv-x="829" d="M8 0l260 1366h291l262 -1366h-268l-33 225h-219l-37 -225h-256zM29 1821h321l158 -310h-184zM334 430h155l-75 692z" />
<glyph unicode="&#xc1;" horiz-adv-x="829" d="M8 0l260 1366h291l262 -1366h-268l-33 225h-219l-37 -225h-256zM334 430h155l-75 692zM336 1511l158 310h321l-297 -310h-182z" />
<glyph unicode="&#xc2;" horiz-adv-x="829" d="M8 0l260 1366h291l262 -1366h-268l-33 225h-219l-37 -225h-256zM123 1524l184 284h240l184 -284h-199l-104 162l-106 -162h-199zM334 430h155l-75 692z" />
<glyph unicode="&#xc3;" horiz-adv-x="829" d="M8 0l260 1366h291l262 -1366h-268l-33 225h-219l-37 -225h-256zM86 1524v37q0 115 58.5 178t164.5 63q61 0 125 -26l92 -39q49 -20 70 -21q64 0 72 90h143v-34q0 -115 -52 -179.5t-145 -64.5q-49 0 -90 18l-104 47q-49 23 -96 23q-82 0 -95 -92h-143zM334 430h155 l-75 692z" />
<glyph unicode="&#xc4;" horiz-adv-x="829" d="M8 0l260 1366h291l262 -1366h-268l-33 225h-219l-37 -225h-256zM125 1526v278h231v-278h-231zM334 430h155l-75 692zM500 1526v278h231v-278h-231z" />
<glyph unicode="&#xc5;" horiz-adv-x="829" d="M8 0l260 1366h291l262 -1366h-268l-33 225h-219l-37 -225h-256zM190 1665q0 96 69 163.5t163 67.5q96 0 163.5 -67.5t67.5 -165.5q0 -94 -68.5 -161.5t-162.5 -67.5t-163 68.5t-69 162.5zM332 1665q0 -37 26.5 -63.5t63.5 -26.5t63.5 26.5t26.5 63.5q0 39 -26.5 65.5 t-63.5 26.5t-63.5 -26.5t-26.5 -65.5zM334 430h155l-75 692z" />
<glyph unicode="&#xc6;" horiz-adv-x="1372" d="M-14 0l495 1366h817v-205h-434v-327h414v-205h-414v-424h459v-205h-711v281h-260l-90 -281h-276zM414 485h198l-6 637q-4 -20 -26 -104z" />
<glyph unicode="&#xc7;" horiz-adv-x="882" d="M72 291v784q0 158 101 234.5t273 76.5q186 0 293 -92q84 -74 84 -219v-213h-252v207q0 119 -125 119q-123 0 -122 -119v-758q0 -121 122 -121q125 0 125 121v207h252v-227q0 -182 -139 -258q-72 -39 -176 -51v-58q166 -47 166 -157q0 -139 -213 -140q-106 0 -199 45 l37 68q68 -27 111 -27q70 0 69 64q0 57 -88 84v121q-106 10 -180 51q-139 76 -139 258z" />
<glyph unicode="&#xc8;" horiz-adv-x="849" d="M59 1821h322l158 -310h-185zM94 0v1366h684v-205h-432v-327h414v-205h-414v-424h457v-205h-709z" />
<glyph unicode="&#xc9;" horiz-adv-x="849" d="M94 0v1366h684v-205h-432v-327h414v-205h-414v-424h457v-205h-709zM354 1511l158 310h322l-297 -310h-183z" />
<glyph unicode="&#xca;" horiz-adv-x="849" d="M94 0v1366h684v-205h-432v-327h414v-205h-414v-424h457v-205h-709zM135 1524l184 284h240l184 -284h-198l-105 162l-106 -162h-199z" />
<glyph unicode="&#xcb;" horiz-adv-x="849" d="M94 0v1366h684v-205h-432v-327h414v-205h-414v-424h457v-205h-709zM143 1526v278h232v-278h-232zM518 1526v278h232v-278h-232z" />
<glyph unicode="&#xcc;" horiz-adv-x="440" d="M-158 1821h322l158 -310h-185zM96 0v1366h252v-1366h-252z" />
<glyph unicode="&#xcd;" horiz-adv-x="440" d="M94 0v1366h252v-1366h-252zM150 1511l157 310h322l-297 -310h-182z" />
<glyph unicode="&#xce;" horiz-adv-x="440" d="M-78 1524l184 284h240l184 -284h-198l-105 162l-106 -162h-199zM94 0v1366h252v-1366h-252z" />
<glyph unicode="&#xcf;" horiz-adv-x="440" d="M-41 1526v278h231v-278h-231zM94 0v1366h252v-1366h-252zM279 1526v278h231v-278h-231z" />
<glyph unicode="&#xd0;" horiz-adv-x="921" d="M10 635v190h82v541h408q186 0 274 -98q70 -78 70 -226v-720q0 -154 -84 -238t-260 -84h-408v635h-82zM344 205h117q131 0 131 129v696q0 131 -131 131h-117v-336h117v-190h-117v-430z" />
<glyph unicode="&#xd1;" horiz-adv-x="966" d="M94 0v1366h299l133 -473q2 -14 41 -137q20 -63 80 -275q10 -35 37 -137q-8 61 -25 156q-39 236 -38 389v477h251v-1366h-280l-162 563q-2 8 -29 121q-2 6 -30 119l-31 121q-10 41 -29 118q35 -354 35 -540v-502h-252zM162 1524v37q0 115 58.5 178t164.5 63q61 0 125 -26 l92 -39q49 -20 70 -21q63 0 71 90h144v-34q0 -115 -52.5 -179.5t-144.5 -64.5q-49 0 -90 18l-104 47q-49 23 -97 23q-82 0 -94 -92h-143z" />
<glyph unicode="&#xd2;" horiz-adv-x="909" d="M76 1821h321l158 -310h-184zM80 291v784q0 158 101.5 234.5t273.5 76.5q184 0 290 -92q84 -74 84 -219v-784q0 -158 -102 -234.5t-272 -76.5q-184 0 -291 92q-84 74 -84 219zM332 297q0 -119 123 -119t123 119v772q0 119 -123 119t-123 -119v-772z" />
<glyph unicode="&#xd3;" horiz-adv-x="909" d="M80 291v784q0 158 101.5 234.5t273.5 76.5q186 0 293 -92q83 -74 83 -219v-784q0 -158 -101 -234.5t-275 -76.5q-184 0 -291 92q-84 74 -84 219zM332 297q0 -119 123 -119q125 0 125 119v772q0 119 -123 119q-125 0 -125 -119v-772zM371 1511l157 310h322l-297 -310h-182 z" />
<glyph unicode="&#xd4;" horiz-adv-x="909" d="M80 291v784q0 158 101.5 234.5t273.5 76.5q186 0 293 -92q83 -74 83 -219v-784q0 -158 -101 -234.5t-275 -76.5q-184 0 -291 92q-84 74 -84 219zM158 1524l184 284h240l184 -284h-199l-104 162l-107 -162h-198zM332 297q0 -119 123 -119q125 0 125 119v772 q0 119 -123 119q-125 0 -125 -119v-772z" />
<glyph unicode="&#xd5;" horiz-adv-x="909" d="M80 291v784q0 158 101.5 234.5t273.5 76.5q186 0 293 -92q83 -74 83 -219v-784q0 -158 -101 -234.5t-275 -76.5q-184 0 -291 92q-84 74 -84 219zM133 1524v37q0 115 58.5 178t164.5 63q61 0 125 -26l92 -39q49 -20 70 -21q64 0 72 90h143v-34q0 -115 -52 -179.5 t-144 -64.5q-49 0 -91 18l-104 47q-49 23 -96 23q-82 0 -95 -92h-143zM332 297q0 -119 123 -119q125 0 125 119v772q0 119 -123 119q-125 0 -125 -119v-772z" />
<glyph unicode="&#xd6;" horiz-adv-x="909" d="M80 291v784q0 158 101.5 234.5t273.5 76.5q186 0 293 -92q83 -74 83 -219v-784q0 -158 -101 -234.5t-275 -76.5q-184 0 -291 92q-84 74 -84 219zM160 1526v278h231v-278h-231zM332 297q0 -119 123 -119q125 0 125 119v772q0 119 -123 119q-125 0 -125 -119v-772z M535 1526v278h231v-278h-231z" />
<glyph unicode="&#xd7;" d="M88 485l174 174l-170 168l146 146l170 -168l178 178l143 -145l-178 -179l170 -170l-146 -143l-167 168l-175 -174z" />
<glyph unicode="&#xd8;" horiz-adv-x="909" d="M-47 49l127 189q-2 23 -2 53v784q0 158 102.5 234.5t272.5 76.5q209 0 321 -120l84 127l96 -66l-129 -190q4 -23 4 -62v-784q0 -158 -101 -234.5t-275 -76.5q-215 0 -322 124l-82 -122zM330 297q0 -119 123 -119q125 0 125 119v469l-248 -365v-104zM330 610l248 363v96 q0 119 -123 119q-125 0 -125 -119v-459z" />
<glyph unicode="&#xd9;" horiz-adv-x="915" d="M78 1821h321l158 -310h-184zM82 291v1075h252v-1069q0 -119 123 -119t123 119v1069h251v-1075q0 -158 -102 -234.5t-272 -76.5q-184 0 -291 92q-84 74 -84 219z" />
<glyph unicode="&#xda;" horiz-adv-x="915" d="M82 291v1075h252v-1069q0 -119 125 -119q123 0 123 119v1069h252v-1075q0 -158 -101.5 -234.5t-275.5 -76.5q-184 0 -291 92q-84 74 -84 219zM385 1511l158 310h321l-297 -310h-182z" />
<glyph unicode="&#xdb;" horiz-adv-x="915" d="M82 291v1075h252v-1069q0 -119 125 -119q123 0 123 119v1069h252v-1075q0 -158 -101.5 -234.5t-275.5 -76.5q-184 0 -291 92q-84 74 -84 219zM160 1524l184 284h240l184 -284h-199l-104 162l-107 -162h-198z" />
<glyph unicode="&#xdc;" horiz-adv-x="915" d="M82 291v1075h252v-1069q0 -119 125 -119q123 0 123 119v1069h252v-1075q0 -158 -101.5 -234.5t-275.5 -76.5q-184 0 -291 92q-84 74 -84 219zM162 1526v278h231v-278h-231zM537 1526v278h231v-278h-231z" />
<glyph unicode="&#xdd;" horiz-adv-x="755" d="M-10 1366h266l92 -432q31 -145 37 -246q4 29 8 62l6 61q6 66 19 123l90 432h258l-258 -950v-416h-252v426zM307 1511l158 310h321l-297 -310h-182z" />
<glyph unicode="&#xde;" horiz-adv-x="886" d="M94 0v1366h252v-260h279q221 0 221 -244v-239q0 -195 -54.5 -256.5t-226.5 -61.5h-219v-305h-252zM346 510h125q70 0 96.5 23.5t26.5 89.5v151q0 74 -25.5 100.5t-97.5 26.5h-125v-391z" />
<glyph unicode="&#xdf;" horiz-adv-x="784" d="M76 0v1069q0 190 78 254q72 57 219 57q301 0 301 -231v-137q0 -129 -88 -178q82 -33 106.5 -72t24.5 -172v-340q0 -133 -49 -189q-68 -76 -197 -75q-41 0 -104 14v137q18 -8 32 -8q51 0 74 43q12 23 12 102v301q0 88 -22.5 120t-83.5 32h-12v156h10q92 0 92 110v129 q0 100 -80 101q-53 0 -72 -39q-10 -25 -10 -90v-1094h-231z" />
<glyph unicode="&#xe0;" horiz-adv-x="761" d="M45 1448h293l139 -274h-164zM59 233v101q0 98 36 145t153 105l207 100v94q0 76 -80 76q-82 0 -82 -76v-94h-219v139q0 100 80 148q88 53 233 53q166 0 244 -78q57 -57 57 -186v-619q0 -94 41 -141h-246q-23 27 -28 74q-86 -88 -197 -88q-102 0 -156 65q-43 53 -43 182z M293 250q0 -92 61 -92q49 0 86 37q14 14 15 55v246l-90 -52q-72 -41 -72 -131v-63z" />
<glyph unicode="&#xe1;" horiz-adv-x="761" d="M59 233v101q0 98 36 145t153 105l207 100v94q0 76 -80 76q-82 0 -82 -76v-94h-219v139q0 100 80 148q88 53 233 53q166 0 244 -78q57 -57 57 -186v-619q0 -94 41 -141h-246q-23 27 -28 74q-86 -88 -197 -88q-102 0 -156 65q-43 53 -43 182zM293 250q0 -92 61 -92 q49 0 86 37q14 14 15 55v246l-90 -52q-72 -41 -72 -131v-63zM322 1174l139 274h293l-269 -274h-163z" />
<glyph unicode="&#xe2;" horiz-adv-x="761" d="M59 233v101q0 98 36 145t153 105l207 100v94q0 76 -80 76q-82 0 -82 -76v-94h-219v139q0 100 80 148q88 53 233 53q166 0 244 -78q57 -57 57 -186v-619q0 -94 41 -141h-246q-23 27 -28 74q-86 -88 -197 -88q-102 0 -156 65q-43 53 -43 182zM115 1182l170 262h223 l168 -262h-187l-94 145l-92 -145h-188zM293 250q0 -92 61 -92q49 0 86 37q14 14 15 55v246l-90 -52q-72 -41 -72 -131v-63z" />
<glyph unicode="&#xe3;" horiz-adv-x="761" d="M59 233v101q0 98 36 145t153 105l207 100v94q0 76 -80 76q-82 0 -82 -76v-94h-219v139q0 100 80 148q88 53 233 53q166 0 244 -78q57 -57 57 -186v-619q0 -94 41 -141h-246q-23 27 -28 74q-86 -88 -197 -88q-102 0 -156 65q-43 53 -43 182zM109 1186v33q0 215 198 215 q53 0 111 -25l80 -35q37 -16 63 -16q56 0 64 78h125v-29q0 -102 -46.5 -159.5t-128.5 -57.5q-43 0 -79 16l-93 41q-51 23 -84 23q-74 0 -83 -84h-127zM293 250q0 -92 61 -92q49 0 86 37q14 14 15 55v246l-90 -52q-72 -41 -72 -131v-63z" />
<glyph unicode="&#xe4;" horiz-adv-x="761" d="M59 233v101q0 98 36 145t153 105l207 100v94q0 76 -80 76q-82 0 -82 -76v-94h-219v139q0 100 80 148q88 53 233 53q166 0 244 -78q57 -57 57 -186v-619q0 -94 41 -141h-246q-23 27 -28 74q-86 -88 -197 -88q-102 0 -156 65q-43 53 -43 182zM127 1188v246h205v-246h-205z M293 250q0 -92 61 -92q49 0 86 37q14 14 15 55v246l-90 -52q-72 -41 -72 -131v-63zM459 1188v246h205v-246h-205z" />
<glyph unicode="&#xe5;" horiz-adv-x="761" d="M59 233v101q0 98 36 145t153 105l207 100v94q0 76 -80 76q-82 0 -82 -76v-94h-219v139q0 100 80 148q88 53 233 53q166 0 244 -78q57 -57 57 -186v-619q0 -94 41 -141h-246q-23 27 -28 74q-86 -88 -197 -88q-102 0 -156 65q-43 53 -43 182zM197 1311q0 84 60 144.5 t144 60.5q86 0 145.5 -60.5t59.5 -146.5q0 -82 -60.5 -142.5t-144.5 -60.5t-144 60.5t-60 144.5zM293 250q0 -92 61 -92q49 0 86 37q14 14 15 55v246l-90 -52q-72 -41 -72 -131v-63zM322 1311q0 -33 23.5 -56.5t55.5 -23.5q33 0 56.5 23.5t23.5 56.5t-23.5 56.5t-56.5 23.5 t-56 -24t-23 -56z" />
<glyph unicode="&#xe6;" horiz-adv-x="1177" d="M59 313q0 135 62.5 197.5t177.5 101.5l170 58v51q0 66 -22.5 92.5t-79.5 26.5q-76 0 -76 -95v-59h-232v109q0 125 82 177t217 52q117 0 205 -55q96 55 217 55q152 0 241 -71.5t89 -190.5v-305h-410v-226q0 -76 78 -75q100 0 101 75v109h231v-92q0 -121 -90 -191.5 t-244 -70.5q-135 0 -244 75q-102 -76 -235 -75q-168 0 -213 104q-25 57 -25 223zM291 295q0 -125 84 -125q39 0 71 29q23 18 23 55v246l-78 -45q-57 -33 -78.5 -65t-21.5 -95zM700 614h179v162q0 78 -91 78q-88 0 -88 -78v-162z" />
<glyph unicode="&#xe7;" horiz-adv-x="763" d="M68 248v514q0 121 87 191.5t234 70.5q145 0 232.5 -71.5t87.5 -190.5v-137h-232v151q0 78 -88 78q-90 0 -90 -78v-545q0 -76 90 -75q88 0 88 75v179h232v-162q0 -111 -73 -180.5t-200 -79.5v-64q152 -47 152 -155q0 -137 -201 -138q-55 0 -129 19l18 69q45 -10 72 -10 q80 0 80 68q0 57 -94 84v127q-266 33 -266 260z" />
<glyph unicode="&#xe8;" horiz-adv-x="776" d="M37 1448h293l139 -274h-164zM68 248v514q0 121 87 191.5t234 70.5t233.5 -70.5t86.5 -191.5v-305h-410v-226q0 -76 90 -75q88 0 88 75v109h232v-92q0 -121 -87 -191.5t-235 -70.5q-145 0 -232 71.5t-87 190.5zM299 614h178v162q0 78 -90 78q-88 0 -88 -78v-162z" />
<glyph unicode="&#xe9;" horiz-adv-x="776" d="M68 248v514q0 121 86 191.5t235 70.5q147 0 233.5 -70.5t86.5 -191.5v-305h-410v-226q0 -76 90 -75q88 0 88 75v109h232v-92q0 -121 -87 -191.5t-235 -70.5q-147 0 -233 70.5t-86 191.5zM299 614h178v162q0 78 -90 78q-88 0 -88 -78v-162zM313 1174l140 274h292 l-268 -274h-164z" />
<glyph unicode="&#xea;" horiz-adv-x="776" d="M68 248v514q0 121 86 191.5t235 70.5q147 0 233.5 -70.5t86.5 -191.5v-305h-410v-226q0 -76 90 -75q88 0 88 75v109h232v-92q0 -121 -87 -191.5t-235 -70.5q-147 0 -233 70.5t-86 191.5zM121 1182l170 262h223l168 -262h-186l-95 145l-92 -145h-188zM299 614h178v162 q0 78 -90 78q-88 0 -88 -78v-162z" />
<glyph unicode="&#xeb;" horiz-adv-x="776" d="M68 248v514q0 121 86 191.5t235 70.5q147 0 233.5 -70.5t86.5 -191.5v-305h-410v-226q0 -76 90 -75q88 0 88 75v109h232v-92q0 -121 -87 -191.5t-235 -70.5q-147 0 -233 70.5t-86 191.5zM133 1188v246h205v-246h-205zM299 614h178v162q0 78 -90 78q-88 0 -88 -78v-162z M465 1188v246h205v-246h-205z" />
<glyph unicode="&#xec;" horiz-adv-x="382" d="M-160 1448h293l139 -274h-163zM76 0v1010h231v-1010h-231z" />
<glyph unicode="&#xed;" horiz-adv-x="382" d="M76 0v1010h231v-1010h-231zM131 1174l139 274h293l-268 -274h-164z" />
<glyph unicode="&#xee;" horiz-adv-x="382" d="M-84 1182l170 262h223l168 -262h-186l-94 145l-93 -145h-188zM74 0v1010h231v-1010h-231z" />
<glyph unicode="&#xef;" horiz-adv-x="382" d="M-43 1188v246h205v-246h-205zM76 0v1010h231v-1010h-231zM233 1188v246h205v-246h-205z" />
<glyph unicode="&#xf0;" horiz-adv-x="774" d="M68 250v512q0 117 86 189.5t225 72.5q18 0 33 -2l-39 137l-195 -57l-33 117l195 55l-39 139l125 35l59 -129l183 51l41 -115l-172 -49l131 -282q41 -88 41 -162v-512q0 -129 -96.5 -196.5t-221.5 -67.5q-150 0 -236.5 70.5t-86.5 193.5zM299 258q0 -102 90 -102 q88 0 88 102v494q0 102 -88 102q-90 0 -90 -102v-494z" />
<glyph unicode="&#xf1;" horiz-adv-x="792" d="M76 0v1010h231v-72q88 86 187 86q162 0 204 -127q18 -53 19 -145v-752h-232v737q0 102 -88 103q-90 0 -90 -103v-737h-231zM123 1186v33q0 215 199 215q53 0 110 -25l80 -35q37 -16 63 -16q56 0 64 78h125v-29q0 -102 -46 -159.5t-128 -57.5q-43 0 -80 16l-92 41 q-51 23 -84 23q-74 0 -84 -84h-127z" />
<glyph unicode="&#xf2;" horiz-adv-x="776" d="M37 1448h293l139 -274h-164zM66 248v514q0 121 87 191.5t234 70.5t234.5 -70.5t87.5 -191.5v-514q0 -121 -87 -191.5t-235 -70.5q-147 0 -234 70.5t-87 191.5zM297 258q0 -102 90 -102t90 102v494q0 102 -90 102t-90 -102v-494z" />
<glyph unicode="&#xf3;" horiz-adv-x="776" d="M68 248v514q0 121 87 191.5t234 70.5q145 0 232.5 -71.5t87.5 -190.5v-514q0 -119 -87 -190.5t-233 -71.5q-147 0 -234 70.5t-87 191.5zM299 258q0 -102 90 -102q88 0 88 102v494q0 102 -88 102q-90 0 -90 -102v-494zM313 1174l140 274h292l-268 -274h-164z" />
<glyph unicode="&#xf4;" horiz-adv-x="776" d="M68 248v514q0 121 87 191.5t234 70.5q145 0 232.5 -71.5t87.5 -190.5v-514q0 -119 -87 -190.5t-233 -71.5q-147 0 -234 70.5t-87 191.5zM115 1182l170 262h223l168 -262h-187l-94 145l-92 -145h-188zM299 258q0 -102 90 -102q88 0 88 102v494q0 102 -88 102 q-90 0 -90 -102v-494z" />
<glyph unicode="&#xf5;" horiz-adv-x="776" d="M68 248v514q0 121 87 191.5t234 70.5q145 0 232.5 -71.5t87.5 -190.5v-514q0 -119 -87 -190.5t-233 -71.5q-147 0 -234 70.5t-87 191.5zM92 1186v33q0 215 199 215q53 0 110 -25l80 -35q37 -16 64 -16q55 0 63 78h125v-29q0 -102 -46 -159.5t-128 -57.5q-43 0 -80 16 l-92 41q-51 23 -84 23q-74 0 -84 -84h-127zM299 258q0 -102 90 -102q88 0 88 102v494q0 102 -88 102q-90 0 -90 -102v-494z" />
<glyph unicode="&#xf6;" horiz-adv-x="776" d="M68 248v514q0 121 87 191.5t234 70.5q145 0 232.5 -71.5t87.5 -190.5v-514q0 -119 -87 -190.5t-233 -71.5q-147 0 -234 70.5t-87 191.5zM127 1188v246h205v-246h-205zM299 258q0 -102 90 -102q88 0 88 102v494q0 102 -88 102q-90 0 -90 -102v-494zM459 1188v246h205v-246 h-205z" />
<glyph unicode="&#xf7;" d="M82 559v205h655v-205h-655zM281 350q0 53 39 91t90 38q55 0 93 -38t38 -93q0 -51 -38 -90t-91 -39t-92 39t-39 92zM281 977q0 53 39 91t90 38q55 0 93 -38t38 -93q0 -51 -38 -90t-91 -39t-92 39t-39 92z" />
<glyph unicode="&#xf8;" horiz-adv-x="776" d="M12 63l68 99q-12 41 -12 86v514q0 121 86 191.5t233 70.5q133 0 227 -68l60 80l90 -73l-78 -95q23 -47 23 -106v-514q0 -121 -87 -191.5t-235 -70.5q-139 0 -242 77l-41 -59zM299 258q0 -102 88 -102q90 0 90 102v297l-178 -264v-33zM299 487l178 263q0 104 -90 104 q-88 0 -88 -102v-265z" />
<glyph unicode="&#xf9;" horiz-adv-x="792" d="M45 1448h293l139 -274h-164zM74 258v752h233v-738q0 -102 88 -102q90 0 90 102v738h232v-1010h-232v72q-88 -86 -186 -86q-164 0 -207 129q-18 51 -18 143z" />
<glyph unicode="&#xfa;" horiz-adv-x="792" d="M76 258v752h231v-738q0 -102 90 -102q88 0 88 102v738h232v-1010h-232v72q-86 -86 -184 -86q-164 0 -207 129q-18 51 -18 143zM336 1174l139 274h293l-268 -274h-164z" />
<glyph unicode="&#xfb;" horiz-adv-x="792" d="M76 258v752h231v-738q0 -102 90 -102q88 0 88 102v738h232v-1010h-232v72q-86 -86 -184 -86q-164 0 -207 129q-18 51 -18 143zM123 1182l170 262h223l168 -262h-186l-95 145l-92 -145h-188z" />
<glyph unicode="&#xfc;" horiz-adv-x="792" d="M76 258v752h231v-738q0 -102 90 -102q88 0 88 102v738h232v-1010h-232v72q-86 -86 -184 -86q-164 0 -207 129q-18 51 -18 143zM135 1188v246h205v-246h-205zM467 1188v246h205v-246h-205z" />
<glyph unicode="&#xfd;" horiz-adv-x="661" d="M-25 1010h242l80 -340q6 -35 18 -103q18 -92 29 -239q2 139 18 239l72 443h238l-199 -1008q-41 -211 -104.5 -284.5t-202.5 -73.5q-59 0 -141 18l32 188q53 -18 84 -18q57 0 80 47q29 59 29 94t-19 103zM276 1174l140 274h293l-269 -274h-164z" />
<glyph unicode="&#xfe;" horiz-adv-x="784" d="M76 -342v1708h231v-444q80 102 191 102q141 0 196 -109q23 -45 23 -151v-518q0 -152 -66.5 -206t-152.5 -54q-111 0 -191 102v-430h-231zM307 272q0 -102 90 -102q88 0 88 102v465q0 102 -88 103q-90 -1 -90 -103v-465z" />
<glyph unicode="&#xff;" horiz-adv-x="661" d="M-25 1010h242l80 -340q6 -35 18 -103q18 -92 29 -239q2 139 18 239l72 443h238l-199 -1008q-41 -211 -104.5 -284.5t-202.5 -73.5q-59 0 -141 18l32 188q53 -18 84 -18q57 0 80 47q29 59 29 94t-19 103zM70 1188v246h204v-246h-204zM401 1188v246h205v-246h-205z" />
<glyph unicode="&#x152;" horiz-adv-x="1335" d="M80 315v736q0 184 96 264q88 72 256 71q168 0 252 -92v72h580v-205h-435v-327h414v-205h-414v-424h459v-205h-604v72q-84 -92 -252 -92q-186 0 -272 86q-80 80 -80 249zM332 297q0 -119 123 -119t123 119v772q0 119 -123 119t-123 -119v-772z" />
<glyph unicode="&#x153;" horiz-adv-x="1185" d="M68 248v514q0 119 87 190.5t232 71.5q119 0 207 -51q88 51 205 51q147 0 233 -70.5t86 -191.5v-305h-409v-226q0 -76 90 -75q88 0 88 75v109h231v-92q0 -119 -87 -190.5t-232 -71.5q-117 0 -205 51q-88 -51 -207 -51q-145 0 -232 71.5t-87 190.5zM299 258q0 -102 90 -102 q88 0 88 102v494q0 102 -88 102q-90 0 -90 -102v-494zM709 614h178v162q0 78 -90 78q-88 0 -88 -78v-162z" />
<glyph unicode="&#x178;" horiz-adv-x="755" d="M-10 1366h266l92 -432q31 -145 37 -246q4 29 8 62l6 61q6 66 19 123l90 432h258l-258 -950v-416h-252v426zM82 1526v278h231v-278h-231zM457 1526v278h231v-278h-231z" />
<glyph unicode="&#x2c6;" horiz-adv-x="1024" d="M231 1182l170 262h224l168 -262h-187l-94 145l-92 -145h-189z" />
<glyph unicode="&#x2dc;" horiz-adv-x="1024" d="M190 1186v33q0 215 199 215q53 0 111 -25l80 -35q37 -16 63 -16q56 0 64 78h124v-29q0 -102 -46 -159.5t-128 -57.5q-43 0 -79 16l-93 41q-51 23 -84 23q-74 0 -84 -84h-127z" />
<glyph unicode="&#x2000;" horiz-adv-x="948" />
<glyph unicode="&#x2001;" horiz-adv-x="1896" />
<glyph unicode="&#x2002;" horiz-adv-x="948" />
<glyph unicode="&#x2003;" horiz-adv-x="1896" />
<glyph unicode="&#x2004;" horiz-adv-x="632" />
<glyph unicode="&#x2005;" horiz-adv-x="474" />
<glyph unicode="&#x2006;" horiz-adv-x="316" />
<glyph unicode="&#x2007;" horiz-adv-x="316" />
<glyph unicode="&#x2008;" horiz-adv-x="237" />
<glyph unicode="&#x2009;" horiz-adv-x="379" />
<glyph unicode="&#x200a;" horiz-adv-x="105" />
<glyph unicode="&#x2010;" horiz-adv-x="350" d="M0 403v205h350v-205h-350z" />
<glyph unicode="&#x2011;" horiz-adv-x="350" d="M0 403v205h350v-205h-350z" />
<glyph unicode="&#x2012;" horiz-adv-x="350" d="M0 403v205h350v-205h-350z" />
<glyph unicode="&#x2013;" d="M82 403v205h655v-205h-655z" />
<glyph unicode="&#x2014;" horiz-adv-x="1050" d="M0 403v205h1051v-205h-1051z" />
<glyph unicode="&#x2018;" horiz-adv-x="409" d="M88 860v246l150 260h96l-137 -260h122v-246h-231z" />
<glyph unicode="&#x2019;" horiz-adv-x="409" d="M76 860l137 260h-123v246h232v-246l-150 -260h-96z" />
<glyph unicode="&#x201a;" horiz-adv-x="409" d="M76 -260l137 260h-123v246h232v-246l-150 -260h-96z" />
<glyph unicode="&#x201c;" horiz-adv-x="731" d="M88 860v246l150 260h96l-137 -260h122v-246h-231zM410 860v246l149 260h96l-137 -260h123v-246h-231z" />
<glyph unicode="&#x201d;" horiz-adv-x="731" d="M76 860l137 260h-123v246h232v-246l-150 -260h-96zM397 860l138 260h-123v246h231v-246l-149 -260h-97z" />
<glyph unicode="&#x201e;" horiz-adv-x="731" d="M76 -260l137 260h-123v246h232v-246l-150 -260h-96zM397 -260l138 260h-123v246h231v-246l-149 -260h-97z" />
<glyph unicode="&#x2022;" horiz-adv-x="1366" d="M401 692q0 119 84 202t205 83q113 0 196 -84t83 -199q0 -119 -83 -201.5t-200 -82.5t-201 82.5t-84 199.5z" />
<glyph unicode="&#x2026;" horiz-adv-x="1228" d="M88 0v246h231v-246h-231zM498 0v246h231v-246h-231zM907 0v246h232v-246h-232z" />
<glyph unicode="&#x202f;" horiz-adv-x="379" />
<glyph unicode="&#x2039;" horiz-adv-x="333" d="M55 424v164l199 190v-190l-82 -82l82 -82v-193z" />
<glyph unicode="&#x203a;" horiz-adv-x="333" d="M82 231v193l82 82l-82 82v190l199 -190v-164z" />
<glyph unicode="&#x205f;" horiz-adv-x="474" />
<glyph unicode="&#x20ac;" horiz-adv-x="1075" d="M82 590l49 192h111v293q0 158 101 234.5t273 76.5q186 0 293 -92q84 -74 84 -219v-213h-252v207q0 119 -123 119q-125 0 -124 -119v-287h350l-49 -192h-301v-279q0 -121 122 -121q125 0 125 121v207h252v-227q0 -158 -101 -234.5t-276 -76.5q-184 0 -290 92 q-84 74 -84 219v299h-160z" />
<glyph unicode="&#x2122;" horiz-adv-x="1325" d="M14 1237v129h480v-129h-156v-649h-170v649h-154zM559 588v778h266l68 -305q10 -43 25 -195q8 72 26 195l68 305h264v-778h-166v463q0 53 2 110l-119 -573h-145l-129 569l2 -43l4 -63v-463h-166z" />
<glyph unicode="&#x25fc;" horiz-adv-x="1013" d="M0 0v1014h1014v-1014h-1014z" />
<glyph unicode="&#xfb03;" horiz-adv-x="1333" d="M6 852v158h109v149q0 227 237 227q29 0 105 -6v-186h-43q-68 0 -68 -74v-110h244v149q0 227 237 227q31 0 105 -6v-186h-43q-68 0 -68 -74v-110h105v-158h-105v-852h-231v852h-244v-852h-231v852h-109zM1026 0v1010h231v-1010h-231zM1026 1141v225h231v-225h-231z" />
<glyph unicode="&#xfb04;" horiz-adv-x="1333" d="M6 852v158h109v149q0 227 237 227q29 0 105 -6v-186h-43q-68 0 -68 -74v-110h244v149q0 227 237 227q31 0 105 -6v-186h-43q-68 0 -68 -74v-110h105v-158h-105v-852h-231v852h-244v-852h-231v852h-109zM1026 0v1366h231v-1366h-231z" />
</font>
</defs>
</svg>
