<?xml version="1.0" standalone="no"?>
<!DOCTYPE svg PUBLIC "-//W3C//DTD SVG 1.1//EN" "http://www.w3.org/Graphics/SVG/1.1/DTD/svg11.dtd" >
<svg xmlns="http://www.w3.org/2000/svg">
<metadata></metadata>
<defs>
<font id="anconablack" horiz-adv-x="1284" >
<font-face units-per-em="2048" ascent="1638" descent="-410" />
<missing-glyph horiz-adv-x="512" />
<glyph horiz-adv-x="2048" />
<glyph horiz-adv-x="2048" />
<glyph unicode="&#xd;" horiz-adv-x="512" />
<glyph unicode=" "  horiz-adv-x="512" />
<glyph unicode="&#x09;" horiz-adv-x="512" />
<glyph unicode="&#xa0;" horiz-adv-x="512" />
<glyph unicode="!" horiz-adv-x="591" d="M123 0v354h346v-354h-346zM123 995v371h346v-371l-82 -497h-188z" />
<glyph unicode="&#x22;" horiz-adv-x="1075" d="M88 1366h404l-70 -602h-264zM582 1366h403l-70 -602h-264z" />
<glyph unicode="#" d="M70 406l28 196h215l27 191h-217l29 196h217l45 324h202l-45 -324h201l45 324h203l-45 -324h237l-26 -196h-240l-26 -191h239l-29 -196h-237l-49 -355h-203l49 355h-201l-51 -355h-202l51 355h-217zM518 602h201l26 189h-200z" />
<glyph unicode="$" d="M8 150l230 221q160 -84 329 -107v260l-90 17q-436 80 -436 393q0 193 141.5 306.5t384.5 115.5v153h144v-155q229 -18 454 -158l-227 -211q-119 78 -227 86v-225l51 -8q471 -76 471 -416q0 -111 -54.5 -207t-148.5 -149q-111 -63 -319 -78v-172h-144v172q-348 8 -559 162 zM395 967q0 -80 150 -95l22 -2v205q-172 -14 -172 -108zM711 266q168 27 168 125q0 80 -142 103l-26 4v-232z" />
<glyph unicode="%" horiz-adv-x="1695" d="M82 1006q0 168 93.5 274t240.5 106q152 0 244 -106t92 -281q0 -164 -94.5 -270t-241.5 -106t-240.5 106.5t-93.5 276.5zM299 1006q0 -229 119 -230q117 0 117 225q0 232 -117 232q-119 0 -119 -227zM434 -2l717 1425l109 -55l-711 -1425zM944 346q0 170 93.5 276.5 t240.5 106.5q152 0 244 -106.5t92 -280.5q0 -166 -94.5 -272.5t-241.5 -106.5t-240.5 106.5t-93.5 276.5zM1161 346q0 -229 119 -229q117 0 117 227q0 231 -117 231q-119 0 -119 -229z" />
<glyph unicode="&#x26;" horiz-adv-x="1374" d="M59 412q0 207 168 331q33 25 152 88q-94 135 -94 256q0 137 105.5 218t285.5 81q176 0 280.5 -81.5t104.5 -223.5q0 -219 -268 -350q70 -98 170 -201q33 63 47 177l293 -107q-39 -168 -134 -317q55 -25 113 -25q30 0 59 2v-250q-78 -14 -178 -14q-133 0 -219 74 q-190 -111 -371 -111q-223 0 -368.5 128t-145.5 325zM414 416q0 -78 54 -128t136 -50q78 0 156 45l-232 295q-115 -55 -114 -162zM575 1081q0 -53 72 -139q123 66 123 135q0 82 -98 82q-96 0 -97 -78z" />
<glyph unicode="'" horiz-adv-x="581" d="M88 1366h404l-70 -602h-264z" />
<glyph unicode="(" horiz-adv-x="737" d="M70 506q0 332 215 622q109 145 282 279l156 -121q-141 -154 -219 -323q-88 -195 -88 -449q0 -285 104 -498q74 -151 203 -290l-156 -121q-193 147 -309 315q-188 272 -188 586z" />
<glyph unicode=")" horiz-adv-x="737" d="M16 -274q305 330 306 780q-1 450 -306 780l156 121q199 -156 309 -315q186 -272 187 -586q0 -338 -213 -623q-106 -143 -283 -278z" />
<glyph unicode="*" horiz-adv-x="819" d="M96 1077l51 160l181 -59v188h166v-188l178 59l51 -160l-178 -57l110 -152l-135 -98l-110 152l-111 -152l-133 98l108 152z" />
<glyph unicode="+" d="M80 559v246h434v434h258v-434h432v-246h-432v-432h-258v432h-434z" />
<glyph unicode="," horiz-adv-x="538" d="M96 0v354h346v-282q0 -215 -106 -320q-80 -80 -240 -106v172q121 39 121 182h-121z" />
<glyph unicode="-" horiz-adv-x="589" d="M0 342v326h590v-326h-590z" />
<glyph unicode="." horiz-adv-x="538" d="M96 0v354h346v-354h-346z" />
<glyph unicode="/" horiz-adv-x="888" d="M-82 -354l592 1720h338l-594 -1720h-336z" />
<glyph unicode="0" d="M43 664q0 315 174 520q160 188 422 188q270 0 426 -188q174 -211 174 -531q0 -301 -174 -512q-156 -188 -424 -188t-424 188q-174 211 -174 523zM432 664q0 -236 50 -342.5t159 -106.5q209 0 209 442q0 238 -50 345.5t-159 107.5t-159 -106.5t-50 -339.5z" />
<glyph unicode="1" d="M258 834v305q287 -2 342 186h344v-1325h-395v860q-106 -29 -232 -29q-33 0 -59 3z" />
<glyph unicode="2" d="M82 0v240q299 199 516 376q119 98 167 168t48 146q0 72 -48 117t-124 45q-180 0 -180 -211q0 -35 8 -99l-387 47q-2 279 136 411t431 132q270 0 404 -106q150 -119 149 -332q0 -242 -237 -428q-125 -96 -373 -217h588v-289h-1098z" />
<glyph unicode="3" d="M41 397l383 60q10 -119 35 -158q51 -84 186 -84q96 0 152.5 47t56.5 127q0 162 -221 162q-47 0 -115 -8v264q29 -4 66 -4q240 0 239 155q0 68 -48 110t-124 42q-86 0 -139 -54.5t-49 -137.5l2 -39l-381 22q33 471 573 471q258 0 398.5 -101.5t140.5 -287.5 q0 -203 -213 -291q260 -63 260 -313q0 -217 -180 -332q-150 -94 -418 -94q-332 0 -481 162q-100 108 -123 282z" />
<glyph unicode="4" d="M39 270v252l633 803h393v-803h192v-252h-192v-270h-373v270h-653zM356 522h336v424z" />
<glyph unicode="5" d="M37 408l407 14q-2 -14 -2 -39q0 -78 50.5 -125t136.5 -47q90 0 145 61.5t55 161.5q0 98 -56 154.5t-155 56.5q-113 0 -174 -92l-331 39l77 733h984l-27 -285h-678l-25 -192q137 55 265 55q229 0 369.5 -123t140.5 -321q0 -225 -170 -371q-158 -135 -428 -135 q-527 0 -584 455z" />
<glyph unicode="6" d="M51 618q0 354 173 554t483 200q201 0 317 -80t182 -262l-360 -57q-31 137 -166 137q-156 0 -221 -149q-35 -78 -45 -222q145 147 360 148q182 0 322 -121q145 -127 145 -328q0 -217 -160.5 -351t-423.5 -134q-289 0 -447.5 174t-158.5 491zM457 420q0 -94 53 -149.5 t143 -55.5t144.5 55.5t54.5 147.5q0 96 -53.5 151.5t-145.5 55.5q-90 0 -143 -55.5t-53 -149.5z" />
<glyph unicode="7" d="M92 1036v289h1069v-246q-182 -162 -324.5 -467t-181.5 -612h-411q45 236 183 521.5t314 514.5h-649z" />
<glyph unicode="8" d="M49 371q0 154 103 250q45 41 137 84q-94 59 -131 122.5t-37 159.5q0 180 138 282.5t382 102.5t382 -102.5t138 -282.5q0 -96 -38 -159.5t-132 -122.5q94 -43 139 -84q102 -96 103 -250q0 -209 -170 -318q-156 -100 -422 -100t-422 100q-170 109 -170 318zM438 389 q0 -78 56.5 -126t146.5 -48t146.5 47t56.5 123q0 80 -56.5 128t-146.5 48t-146.5 -47t-56.5 -125zM475 969q0 -63 46 -103.5t120 -40.5t120 39t46 103q0 66 -45 104.5t-121 38.5q-74 0 -120 -39t-46 -102z" />
<glyph unicode="9" d="M43 887q0 217 161 351t423 134q289 0 447.5 -174t158.5 -491q0 -354 -174 -554t-484 -200q-201 0 -317.5 81t-179.5 261l360 57q27 -137 166 -137q154 0 221 150q31 68 45 221q-147 -147 -360 -148q-184 0 -322 121q-145 127 -145 328zM432 907q0 -96 53.5 -151.5 t145.5 -55.5q90 0 143 55.5t53 149.5t-53 149.5t-143 55.5t-144.5 -55.5t-54.5 -147.5z" />
<glyph unicode=":" horiz-adv-x="538" d="M96 0v354h346v-354h-346zM96 684v354h346v-354h-346z" />
<glyph unicode=";" horiz-adv-x="538" d="M96 0v352h346v-280q0 -213 -106 -316q-78 -76 -240 -104v166q121 41 121 182h-121zM96 684v354h346v-354h-346z" />
<glyph unicode="&#x3c;" horiz-adv-x="1024" d="M68 516v358l886 506v-430l-430 -256l428 -258l2 -428z" />
<glyph unicode="=" d="M84 762v246h1116v-246h-1116zM86 358v246h1114l-2 -246h-1112z" />
<glyph unicode="&#x3e;" horiz-adv-x="1024" d="M68 8v430l430 258l-428 258l-2 426l886 -506v-360z" />
<glyph unicode="?" horiz-adv-x="1144" d="M35 1028q98 373 549 373q240 0 377 -102.5t137 -280.5q0 -86 -34 -145.5t-118 -122.5q-57 -43 -184 -132q-80 -55 -98 -118h-314q10 98 49 153.5t160 145.5q100 74 132 115.5t32 91.5q0 135 -156 135q-193 0 -217 -215zM336 0v358h346v-358h-346z" />
<glyph unicode="@" horiz-adv-x="1585" d="M61 635q0 313 242 545.5t569 232.5q270 0 461 -169t191 -408q0 -205 -136.5 -358.5t-316.5 -153.5q-143 0 -217 84q-96 -72 -190 -72q-113 0 -174.5 71.5t-61.5 198.5q0 176 101.5 296t250.5 120q102 0 158 -74l8 53h244l-57 -415q-4 -29 -5 -41q0 -37 37 -37 q61 0 122 108.5t61 221.5q0 170 -138.5 288.5t-335.5 118.5q-250 0 -443 -181t-193 -437q0 -211 145 -358.5t354 -147.5q174 -1 385 110l78 -147q-223 -131 -463 -131q-285 0 -480.5 197.5t-195.5 484.5zM682 621q0 -111 88 -111q61 0 99 62.5t38 162.5q0 113 -88 113 q-63 0 -100 -61.5t-37 -165.5z" />
<glyph unicode="A" horiz-adv-x="1486" d="M-16 0l522 1366h485l512 -1366h-456l-56 195h-485l-53 -195h-469zM582 496h321l-160 548z" />
<glyph unicode="B" horiz-adv-x="1458" d="M109 0v1366h792q244 0 350.5 -92t106.5 -254q0 -102 -46 -169t-165 -136q258 -88 258 -332q0 -215 -162 -315q-109 -68 -364 -68h-770zM532 281h236q121 0 164 29.5t43 113.5t-43 113.5t-164 29.5h-236v-286zM532 848h236q88 0 119 20q41 29 41 99q0 76 -49 104 q-33 14 -111 14h-236v-237z" />
<glyph unicode="C" horiz-adv-x="1468" d="M61 668q0 330 211 544q199 201 523 201q217 0 367.5 -88t275.5 -287l-361 -176q-68 121 -132 169t-161 48q-137 0 -214.5 -106.5t-77.5 -294.5q0 -184 80.5 -287.5t224.5 -103.5q100 0 163.5 49t116.5 168l361 -176q-72 -131 -170 -213q-193 -162 -475 -162 q-303 0 -494 164q-238 203 -238 551z" />
<glyph unicode="D" horiz-adv-x="1488" d="M109 0v1366h639q190 0 308 -39t204 -131q168 -178 167 -512q0 -369 -200 -545q-158 -139 -479 -139h-639zM532 301h113q195 0 277 111q76 104 75 270q0 186 -92 291q-80 92 -260 92h-113v-764z" />
<glyph unicode="E" horiz-adv-x="1308" d="M109 0v1366h1075v-301h-652v-197h615v-301h-615v-266h715v-301h-1138z" />
<glyph unicode="F" horiz-adv-x="1255" d="M109 0v1366h1103v-301h-680v-236h631v-301h-631v-528h-423z" />
<glyph unicode="G" horiz-adv-x="1558" d="M61 653q0 346 207 553t553 207q451 0 633 -362l-364 -138q-78 172 -263 172q-335 0 -335 -419q0 -385 329 -385q236 0 269 204h-263v269h627v-754h-313v90q-193 -137 -426 -137q-299 0 -476.5 189.5t-177.5 510.5z" />
<glyph unicode="H" horiz-adv-x="1511" d="M109 0v1366h423v-459h445v459h424v-1366h-424v528h-445v-528h-423z" />
<glyph unicode="I" horiz-adv-x="641" d="M109 0v1366h423v-1366h-423z" />
<glyph unicode="J" horiz-adv-x="841" d="M25 0v328q74 -8 129 -9q96 0 130.5 44.5t34.5 164.5v838h424v-942q0 -281 -141 -371q-86 -53 -319 -53h-258z" />
<glyph unicode="K" horiz-adv-x="1499" d="M109 0v1366h423v-522l439 522h549l-498 -526l500 -840h-475l-304 551l-211 -221v-330h-423z" />
<glyph unicode="L" horiz-adv-x="1101" d="M109 0v1366h423v-1032h541v-334h-964z" />
<glyph unicode="M" horiz-adv-x="1888" d="M109 0v1366h614l156 -582q53 -203 65 -335h6q16 174 62 335l157 582h609v-1366h-424v506q0 92 37 401q8 63 14 133h-6q-61 -225 -117 -401q-35 -113 -41 -133l-139 -506h-316l-145 520q-6 25 -39 129l-63 209q-12 47 -54 182h-6q53 -387 53 -534v-506h-423z" />
<glyph unicode="N" horiz-adv-x="1570" d="M109 0v1366h473l387 -655q49 -84 112 -258l6 2q-40 244 -40 377v6v528h413v-1366h-471l-393 672q-70 119 -113 239l-8 -2q53 -252 53 -391v-518h-419z" />
<glyph unicode="O" horiz-adv-x="1589" d="M61 684q0 326 202 527.5t530 201.5q334 0 534.5 -201.5t200.5 -537.5q0 -297 -176 -494q-203 -227 -557 -227q-330 0 -532 201.5t-202 529.5zM492 684q0 -182 81.5 -289.5t221.5 -107.5q137 0 220 107.5t83 283.5q0 186 -82 293.5t-221 107.5q-137 0 -220 -107.5 t-83 -287.5z" />
<glyph unicode="P" horiz-adv-x="1425" d="M109 0v1366h792q252 0 377 -137q109 -121 108 -316q0 -215 -128 -341t-357 -126h-369v-446h-423zM532 727h203q131 0 176 39q59 51 60 139q0 102 -70 150q-44 30 -159 30h-7h-203v-358z" />
<glyph unicode="Q" horiz-adv-x="1589" d="M61 684q0 328 202 528.5t532 200.5t531.5 -200.5t201.5 -528.5q0 -264 -137 -455q79 -63 208 -90l-126 -286q-207 35 -334 170q-164 -70 -346 -70q-328 0 -530 201.5t-202 529.5zM492 684q0 -182 81.5 -289.5t221.5 -107.5q137 0 220 107.5t83 283.5q0 186 -82 293.5 t-221 107.5q-137 0 -220 -107.5t-83 -287.5z" />
<glyph unicode="R" horiz-adv-x="1441" d="M109 0v1366h776q258 0 372.5 -116.5t114.5 -317.5q0 -150 -67.5 -241t-219.5 -148l322 -543h-461l-266 477h-148v-477h-423zM532 758h195q129 0 174 37q55 45 55 127q0 92 -65 135q-44 28 -156 28h-8h-195v-327z" />
<glyph unicode="S" horiz-adv-x="1380" d="M-27 256l342 188q59 -82 138 -114q100 -43 237 -43q217 0 217 112q0 66 -104 93q-25 6 -225 47q-250 47 -359 131q-127 98 -127 288q0 207 163 331t435 124q367 0 627 -254l-279 -205q-119 131 -331 131q-184 0 -185 -102q0 -41 40 -62.5t169 -46.5q295 -57 402 -114 q188 -102 188 -320q0 -223 -176 -355t-475 -132q-487 0 -697 303z" />
<glyph unicode="T" horiz-adv-x="1118" d="M-14 1028v338h1138v-338h-354v-1028h-424v1028h-360z" />
<glyph unicode="U" horiz-adv-x="1433" d="M98 518v848h424v-836q0 -137 39 -184q51 -61 156 -61q115 0 164 71q30 44 30 166v8v836h424v-848q0 -285 -139 -414q-165 -151 -475 -151h-4q-350 0 -508 180q-111 125 -111 385z" />
<glyph unicode="V" horiz-adv-x="1331" d="M-23 1366h443l178 -573q59 -190 68 -373h6q2 143 76 383l172 563h434l-461 -1366h-451z" />
<glyph unicode="W" horiz-adv-x="2000" d="M-14 1366h428l131 -598q55 -250 59 -391h8q8 176 62 391l149 598h361l145 -598q55 -231 64 -391h8q16 201 57 391l131 598h424l-348 -1366h-457l-139 559q-20 82 -63 365h-7q-31 -229 -65 -359l-150 -565h-456z" />
<glyph unicode="X" horiz-adv-x="1517" d="M-35 0l520 729l-450 637h516l133 -236q39 -68 80 -180q33 72 84 180l131 236h518l-455 -637l512 -729h-512l-186 317q-66 111 -90 193q-33 -88 -94 -193l-187 -317h-520z" />
<glyph unicode="Y" horiz-adv-x="1255" d="M-133 1366h498l170 -283q16 -25 67 -120q8 -12 25 -48q47 94 121 222l135 229h503l-550 -764v-602h-424v602z" />
<glyph unicode="Z" horiz-adv-x="1347" d="M41 0v274l709 764h-662v328h1219v-289l-699 -749h699v-328h-1266z" />
<glyph unicode="[" horiz-adv-x="737" d="M104 -354v1720h568v-143h-219v-1434h219v-143h-568z" />
<glyph unicode="\" horiz-adv-x="888" d="M41 1366h338l592 -1720h-338z" />
<glyph unicode="]" horiz-adv-x="737" d="M66 -211h219v1434h-219v143h567v-1720h-567v143z" />
<glyph unicode="^" horiz-adv-x="1024" d="M2 676l270 700h478l272 -700h-375l-135 409l-135 -409h-375z" />
<glyph unicode="_" horiz-adv-x="1024" d="M0 -90h1024v-250h-1024v250z" />
<glyph unicode="`" horiz-adv-x="1024" d="M74 1481h442l133 -246h-268z" />
<glyph unicode="a" horiz-adv-x="1208" d="M51 285q0 242 232 315q55 18 354 72q47 8 96 22q-2 80 -30.5 110t-104.5 30q-137 0 -139 -111l-375 -10q27 156 115 233q127 113 419 113q229 0 355 -72q76 -43 105.5 -101.5t29.5 -162.5v-610q0 -78 35 -113h-391v70q-129 -104 -324 -105q-174 0 -275.5 86t-101.5 234z M420 309q0 -84 96 -84q121 0 186 107q29 47 29 123v16q-16 -4 -30.5 -10t-135.5 -39q-145 -39 -145 -113z" />
<glyph unicode="b" horiz-adv-x="1263" d="M96 0v1366h396v-436q140 114 280 114h2q201 0 318.5 -144t117.5 -388q0 -246 -128 -396.5t-337 -150.5q-92 0 -149 25.5t-117 91.5v-82h-383zM475 506q0 -268 170 -268t170 264q0 270 -170 270t-170 -266z" />
<glyph unicode="c" horiz-adv-x="1110" d="M55 496q0 256 150.5 409.5t404.5 153.5q334 0 494 -266l-309 -177q-35 170 -162 170q-182 0 -182 -280q0 -266 170 -266q66 0 105.5 38.5t78.5 141.5l299 -166q-158 -301 -496 -301q-258 0 -405.5 144.5t-147.5 398.5z" />
<glyph unicode="d" horiz-adv-x="1263" d="M57 512q0 244 118 388t317 144q137 0 282 -114v436h395v-1366h-385v82q-96 -117 -262 -117q-209 0 -337 150.5t-128 396.5zM453 508q0 -270 170 -270q166 0 165 266q1 268 -167 268t-168 -264z" />
<glyph unicode="e" horiz-adv-x="1226" d="M55 498q0 252 155 405.5t406 153.5q344 0 490 -275q68 -129 68 -336v-10h-709q4 -213 180 -213q117 0 182 146l330 -129q-174 -289 -524 -289q-260 0 -419 150.5t-159 396.5zM463 641h303q-23 160 -143 160q-129 0 -160 -160z" />
<glyph unicode="f" horiz-adv-x="690" d="M-45 778v205h162v111q0 297 370 297q86 0 205 -25v-272q-35 8 -61 8q-63 0 -90 -25.5t-29 -93.5h193v-205h-193v-778h-395v778h-162z" />
<glyph unicode="g" horiz-adv-x="1224" d="M55 532q0 227 127 369.5t330 142.5q168 0 285 -133v99h333v-916q0 -145 -36.5 -225t-128.5 -137q-137 -86 -398 -86q-383 0 -471 159q-35 61 -37 195h361q2 -66 29 -90q41 -39 124 -39q109 0 154 61q27 35 27 152v72q-100 -98 -248 -99q-205 0 -328 130t-123 345z M434 549q0 -231 158 -232q158 0 158 230q0 225 -158 225t-158 -223z" />
<glyph unicode="h" horiz-adv-x="1275" d="M96 0v1366h396v-469q78 90 149.5 126t173.5 36q166 0 266.5 -96.5t100.5 -276.5v-686h-396v506q0 131 -22 168q-37 57 -119 57q-100 0 -135 -67q-18 -35 -18 -158v-506h-396z" />
<glyph unicode="i" horiz-adv-x="587" d="M96 0v1010h396v-1010h-396zM96 1106v260h396v-260h-396z" />
<glyph unicode="j" horiz-adv-x="587" d="M-51 -84q45 -4 43 -4q63 0 86 43q16 25 16 149v893h395v-1007q0 -106 -8 -146q-14 -78 -67 -125q-102 -88 -381 -88q-47 0 -84 2v283zM94 1106v260h395v-260h-395z" />
<glyph unicode="k" horiz-adv-x="1236" d="M96 0v1366h396v-647l282 291h475l-379 -371l400 -639h-449l-223 377l-106 -105v-272h-396z" />
<glyph unicode="l" horiz-adv-x="587" d="M96 0v1366h396v-1366h-396z" />
<glyph unicode="m" horiz-adv-x="1966" d="M96 0v1010h379v-138q61 94 134 133t186 39q131 0 210.5 -45t137.5 -149q116 194 348 194h2q190 0 295 -112q84 -90 84 -273v-659h-395v492q0 131 -23 167q-37 57 -119 58q-100 0 -135 -68q-18 -35 -18 -157v-492h-396v492q0 133 -20 167q-35 57 -121 58q-100 0 -135 -68 q-18 -35 -18 -157v-492h-396z" />
<glyph unicode="n" horiz-adv-x="1275" d="M96 0v1010h396v-115q78 84 150.5 116.5t172.5 32.5q166 0 266.5 -92t100.5 -266v-686h-396v506q0 131 -22 168q-37 57 -119 57q-100 0 -135 -67q-18 -35 -18 -158v-506h-396z" />
<glyph unicode="o" horiz-adv-x="1290" d="M55 506q0 252 161 402.5t429 150.5q274 0 433 -150.5t159 -410.5q0 -246 -163 -395.5t-429 -149.5q-268 0 -429 150.5t-161 402.5zM451 506q0 -281 196 -281q195 0 195 277q0 284 -197 284q-195 0 -194 -280z" />
<glyph unicode="p" horiz-adv-x="1263" d="M96 -354v1364h383v-82q59 66 116.5 91t147.5 25q209 0 337 -150.5t128 -395.5q0 -244 -117.5 -388.5t-316.5 -144.5q-141 0 -282 115v-434h-396zM475 506q0 -268 170 -268q168 0 168 264q0 270 -170 270q-168 0 -168 -266z" />
<glyph unicode="q" horiz-adv-x="1263" d="M55 498q0 246 128 396t337 150q168 0 264 -116v82h385v-1364h-395v434q-141 -115 -282 -115q-201 0 -319 144.5t-118 388.5zM451 508q0 -270 170 -270q168 0 167 266q1 268 -167 268q-170 0 -170 -264z" />
<glyph unicode="r" horiz-adv-x="823" d="M96 0v1010h396v-113q62 63 132 89q65 24 171 24h16v-328q-31 2 -70 2q-250 0 -249 -225v-459h-396z" />
<glyph unicode="s" horiz-adv-x="1058" d="M-4 164l244 182q139 -121 299 -121q114 0 114 69q0 46 -98 66l-80 17q-213 43 -289 88q-133 78 -133 237q0 164 128 260.5t347 96.5q275 0 476 -160l-226 -188q-154 102 -256 102q-98 0 -98 -61q0 -29 47 -47q4 -2 72 -19l235 -59q244 -61 244 -287q0 -174 -131 -280.5 t-346 -106.5q-326 0 -549 211z" />
<glyph unicode="t" horiz-adv-x="733" d="M-41 778v205h158v307h395v-307h174v-205h-174v-368q0 -80 10 -105q20 -45 86 -45q43 0 84 8l8 -258q-135 -37 -266 -37q-205 0 -276 107q-41 61 -41 252v446h-158z" />
<glyph unicode="u" horiz-adv-x="1275" d="M96 324v686h396v-506q0 -131 22 -168q35 -57 119 -57q100 0 135 67q18 35 18 158v506h396v-1010h-396v115q-78 -84 -150.5 -117t-172.5 -33q-166 0 -266.5 92.5t-100.5 266.5z" />
<glyph unicode="v" horiz-adv-x="1038" d="M-27 1010h418l74 -363q31 -147 45 -362h6q23 223 53 362l82 363h414l-348 -1010h-420z" />
<glyph unicode="w" horiz-adv-x="1597" d="M-20 1010h399l63 -308q27 -133 37 -188q18 -104 23 -188h6q8 121 61 376l64 308h340l65 -308q51 -242 62 -376h6q6 111 57 376l60 308h395l-299 -1010h-383l-62 309q-23 100 -67 348h-8q-6 -39 -72 -348l-65 -309h-383z" />
<glyph unicode="x" horiz-adv-x="1103" d="M-51 0l336 532l-303 478h436l61 -152q0 -2 29 -96l16 -55q4 -16 11 -41h6q12 59 55 192l61 152h437l-299 -478l333 -532h-440l-86 190q-39 84 -61 181h-6q-29 -104 -64 -181l-90 -190h-432z" />
<glyph unicode="y" horiz-adv-x="1095" d="M-2 1010h405l99 -449q37 -172 45 -364h6q10 205 45 364l100 449h404l-369 -1098q-49 -145 -140 -205.5t-261 -60.5q-86 0 -191 18v275q63 -6 95 -7q102 0 102 45q0 25 -12 62z" />
<glyph unicode="z" horiz-adv-x="1095" d="M41 0v213l485 504h-430v293h946v-224l-469 -493h469v-293h-1001z" />
<glyph unicode="{" horiz-adv-x="944" d="M125 444v144q61 14 87 48t26 105v326q0 178 90 244q76 55 276 55q88 0 187 -4v-145h-80q-57 0 -78 -9q-35 -12 -43 -59q-4 -25 -4 -70v-313q0 -129 -43 -188q-23 -31 -80 -72q70 -45 96.5 -102.5t26.5 -159.5v-314q0 -96 24.5 -115.5t149.5 -19.5h31v-145q-96 -4 -168 -4 q-121 0 -162 6q-94 12 -148 59q-76 66 -75 230v329q0 84 -26 123t-87 51z" />
<glyph unicode="|" horiz-adv-x="1024" d="M295 -342v1708h436v-1708h-436z" />
<glyph unicode="}" horiz-adv-x="944" d="M154 -205h30q125 0 149.5 19.5t24.5 115.5v314q0 102 27 159.5t96 102.5q-63 45 -86 82q-37 61 -37 178v313q0 106 -34.5 122t-139.5 16h-30v145q88 4 188 4q106 0 152 -6q84 -14 137 -60q76 -66 76 -233v-326q0 -72 25.5 -105.5t86.5 -47.5v-144q-61 -12 -86.5 -51 t-25.5 -123v-329q0 -174 -91 -240q-55 -39 -141 -51q-41 -4 -153 -4q-72 0 -168 4v145z" />
<glyph unicode="~" horiz-adv-x="1366" d="M186 1255q63 170 141.5 246t186.5 76q53 0 293 -84q41 -14 63 -14q53 0 111 104l203 -174q-68 -170 -137 -242q-78 -82 -189 -82q-51 0 -227 64q-102 37 -133 37q-54 -1 -107 -105z" />
<glyph unicode="&#xa1;" horiz-adv-x="591" d="M123 14l82 498h188l76 -498v-368h-346v368zM123 655v355h346v-355h-346z" />
<glyph unicode="&#xa2;" d="M131 684q0 227 125 373.5t342 173.5v211h176v-211q274 -35 406 -256l-310 -170q-35 164 -161 164q-182 0 -183 -275q0 -260 170 -260q66 0 106 38t79 138l299 -161q-125 -252 -406 -289v-242h-176v242q-172 25 -270 94q-197 141 -197 430z" />
<glyph unicode="&#xa3;" d="M23 201q0 109 81.5 181.5t202.5 72.5q47 0 107 -17q-23 53 -68 131h-250v195h125q-76 125 -76 227q0 178 137.5 279.5t379.5 101.5q274 0 407 -115q117 -100 117 -335q0 -39 -2 -66h-322l2 57q6 176 -188 177q-180 0 -180 -144q0 -41 8 -63q12 -29 59 -101l12 -18h261 v-195h-144q49 -100 49 -190q0 -23 -6 -72q98 -72 152 -71q68 0 67 124q0 16 -6 78h299q2 -37 2 -80q0 -172 -43 -260q-72 -145 -254 -145q-137 0 -319 131q-129 -125 -314 -125q-135 0 -215.5 65.5t-80.5 176.5zM231 201q0 -68 74 -68q70 0 115 70l18 28q-4 2 -8 7 q-53 39 -106 38q-92 0 -93 -75z" />
<glyph unicode="&#xa4;" horiz-adv-x="1646" d="M43 584l82 192h108q25 195 129 344q203 293 599 293q217 0 367.5 -88t273.5 -287l-359 -176q-68 121 -132 169t-161 48q-241 0 -286 -303h417l-82 -192h-335q41 -297 299 -297q100 0 163.5 49t116.5 168l359 -176q-201 -375 -644 -375q-420 0 -618 309q-90 141 -109 322 h-188z" />
<glyph unicode="&#xa5;" d="M104 1325h336l207 -434l201 434h332l-136 -262h117v-199h-207l-112 -219h176v-199h-203v-446h-350v446h-201v199h174l-112 219h-203v199h115z" />
<glyph unicode="&#xa6;" horiz-adv-x="1024" d="M295 313h436v-655h-436v655zM295 614v752h436v-752h-436z" />
<glyph unicode="&#xa7;" d="M61 639q0 174 203 303q-82 88 -82 186q0 145 109.5 235.5t288.5 90.5q260 0 561 -174l-189 -178q-201 109 -362 108q-117 0 -117 -71q0 -39 74 -68q27 -12 57 -24l275 -115q344 -143 344 -361q0 -180 -201 -325q72 -102 72 -185q0 -133 -104.5 -229t-291.5 -96 q-303 0 -561 215l187 153q197 -125 378 -124q104 0 105 77q0 43 -154 109l-245 104q-188 80 -267.5 164t-79.5 205zM365 676q0 -78 139 -139l327 -144q80 78 80 137q0 55 -53 92t-121 66l-282 123q-90 -78 -90 -135z" />
<glyph unicode="&#xa8;" horiz-adv-x="1024" d="M141 1225v266h295v-266h-295zM588 1225v266h295v-266h-295z" />
<glyph unicode="&#xa9;" horiz-adv-x="1607" d="M61 682q0 305 219.5 515t534.5 210q299 0 515 -214t216 -511q0 -299 -217 -511t-524 -212t-525.5 212t-218.5 511zM238 682q0 -229 166.5 -394t400.5 -165q233 0 399 165t166 396q0 229 -165 394t-392 165q-242 0 -408.5 -162.5t-166.5 -398.5zM414 676 q0 170 110.5 278.5t284.5 108.5q119 0 198.5 -46t151.5 -155l-203 -96q-37 66 -68.5 89.5t-82.5 23.5q-150 0 -150 -199q0 -195 156 -195q53 0 85 25t60 90l203 -96q-113 -203 -350 -203q-178 0 -286.5 103.5t-108.5 271.5z" />
<glyph unicode="&#xaa;" horiz-adv-x="854" d="M113 565v137h630v-137h-630zM135 967q0 121 123 161q31 10 191 39q23 4 51 13v10q0 84 -74 84q-72 0 -72 -60l-200 -4q16 94 81.5 134t202.5 40q123 0 192.5 -39.5t69.5 -138.5v-327q1 -42 19 -60h-209v37q-74 -55 -174 -55q-90 0 -145.5 45t-55.5 121zM330 985 q0 -55 53 -55q47 0 82 35.5t35 87.5q0 12 -2 28q-12 -6 -90 -27.5t-78 -68.5z" />
<glyph unicode="&#xab;" horiz-adv-x="821" d="M61 326v350l301 235v-276l-178 -135l178 -133v-277zM444 326v350l301 235v-276l-178 -135l178 -133v-277z" />
<glyph unicode="&#xac;" horiz-adv-x="1024" d="M68 240v378h886v-618h-422v240h-464z" />
<glyph unicode="&#xad;" horiz-adv-x="589" d="M0 342v326h590v-326h-590z" />
<glyph unicode="&#xae;" horiz-adv-x="1607" d="M61 682q0 305 219.5 515t534.5 210q299 0 515 -214t216 -511q0 -299 -217 -511t-524 -212t-525.5 212t-218.5 511zM238 682q0 -229 166.5 -394t400.5 -165q233 0 399 165t166 396q0 229 -165 394t-392 165q-242 0 -408.5 -162.5t-166.5 -398.5zM475 326v712h418 q264 0 264 -227q0 -147 -147 -203l172 -282h-260l-140 245h-69v-245h-238zM713 727h96q115 0 115 76q0 80 -115 80h-96v-156z" />
<glyph unicode="&#xaf;" horiz-adv-x="1024" d="M0 1585v250h1024v-250h-1024z" />
<glyph unicode="&#xb0;" horiz-adv-x="878" d="M96 1042q0 143 100.5 245t243.5 102q145 0 244.5 -101.5t99.5 -249.5q0 -139 -101 -239.5t-243 -100.5q-143 0 -243.5 100.5t-100.5 243.5zM250 1042q0 -80 56 -137t134 -57q76 0 133.5 57.5t57.5 132.5q0 84 -56.5 142.5t-136.5 58.5q-76 0 -132 -58.5t-56 -138.5z" />
<glyph unicode="&#xb1;" d="M80 55h1124v-245h-1124v245zM80 559v246h434v434h258v-434h432v-246h-432v-379h-258v379h-434z" />
<glyph unicode="&#xb2;" horiz-adv-x="817" d="M59 547v151q178 113 318 224q129 102 129 180q0 39 -27.5 63.5t-70.5 24.5q-104 0 -105 -117q0 -20 8 -67l-252 30v33q0 301 353 301q346 0 346 -266q0 -111 -81 -198t-269 -175h335v-184h-684z" />
<glyph unicode="&#xb3;" horiz-adv-x="817" d="M35 793l246 36q8 -72 22 -96q29 -47 107 -47q121 0 120 94q0 90 -127 90q-31 0 -77 -6v172q23 -4 51 -4q137 0 137 86q0 84 -100 84q-47 0 -78 -29.5t-31 -78.5q0 -18 2 -31l-246 14q18 293 357 293q336 0 336 -237q0 -117 -117 -170q145 -53 145 -187q0 -135 -112 -203 q-92 -55 -260 -55q-350 1 -375 275z" />
<glyph unicode="&#xb4;" horiz-adv-x="1024" d="M375 1235l133 246h442l-307 -246h-268z" />
<glyph unicode="&#xb5;" horiz-adv-x="1275" d="M96 -354v1364h396v-506q0 -131 24 -168q39 -57 123 -57q96 0 129 67q18 37 18 158v506h396v-1010h-396v115q-70 -150 -147 -150q-80 0 -147 150v-469h-396z" />
<glyph unicode="&#xb6;" d="M66 1010q0 129 75 219q74 84 201 117q76 20 244 20h647v-147h-107v-1573h-252v1573h-129v-1573h-251v1016h-29q-154 0 -268 79q-131 90 -131 269z" />
<glyph unicode="&#xb7;" horiz-adv-x="538" d="M96 328v354h346v-354h-346z" />
<glyph unicode="&#xb8;" horiz-adv-x="1024" d="M418 -176l104 176h99l-41 -102q41 10 67 10q66 0 108 -38t42 -95q0 -84 -76 -131t-207 -47q-6 0 -96 4v92q29 -4 33 -4q92 0 92 55q0 43 -54 43q-31 0 -71 -16v53z" />
<glyph unicode="&#xb9;" horiz-adv-x="817" d="M168 1036v195q178 -2 209 110h223v-794h-256v504q-59 -14 -133 -15h-43z" />
<glyph unicode="&#xba;" horiz-adv-x="854" d="M113 565v137h630v-137h-630zM113 1090q0 133 86 213.5t229 80.5q145 0 230 -80.5t85 -218.5q0 -131 -87 -210.5t-228 -79.5q-143 0 -229 80.5t-86 214.5zM324 1090q0 -150 104 -150t104 147q0 152 -104 152t-104 -149z" />
<glyph unicode="&#xbb;" horiz-adv-x="821" d="M76 90v277l178 133l-178 135v276l301 -235v-350zM459 90v277l178 133l-178 135v276l301 -235v-350z" />
<glyph unicode="&#xbc;" horiz-adv-x="1802" d="M168 1036v195q178 -2 209 110h223v-794h-256v504q-59 -14 -133 -15h-43zM489 -2l715 1425l109 -55l-711 -1425zM1018 160v157l391 478h250v-473h117v-162h-117v-160h-242v160h-399zM1233 322h184v223z" />
<glyph unicode="&#xbd;" horiz-adv-x="1802" d="M168 1036v195q178 -2 209 110h223v-794h-256v504q-59 -14 -133 -15h-43zM489 -2l715 1425l109 -55l-711 -1425zM1044 0v152q178 113 318 223q129 102 129 180q0 39 -27.5 63.5t-70.5 24.5q-104 0 -105 -117q0 -20 8 -67l-252 30v33q0 301 353 301q346 0 346 -266 q0 -111 -81 -198t-269 -175h336v-184h-685z" />
<glyph unicode="&#xbe;" horiz-adv-x="1802" d="M35 793l246 36q8 -72 22 -96q29 -47 107 -47q121 0 120 94q0 90 -127 90q-31 0 -77 -6v172q23 -4 51 -4q137 0 137 86q0 84 -100 84q-47 0 -78 -29.5t-31 -78.5q0 -18 2 -31l-246 14q18 293 357 293q336 0 336 -237q0 -117 -117 -170q145 -53 145 -187q0 -135 -112 -203 q-92 -55 -260 -55q-350 1 -375 275zM489 -2l715 1425l109 -55l-711 -1425zM1020 160v157l389 478h250v-473h117v-162h-117v-160h-242v160h-397zM1235 322h182v223z" />
<glyph unicode="&#xbf;" horiz-adv-x="1144" d="M47 -8q0 88 34 147.5t118 122.5q47 35 184 129q80 56 98 119h314q-8 -98 -47 -152.5t-160 -144.5q-100 -76 -133 -117t-33 -92q0 -133 156 -133q193 0 217 213l315 -100q-94 -373 -549 -373q-240 0 -377 102.5t-137 278.5zM463 651v359h346v-359h-346z" />
<glyph unicode="&#xc0;" horiz-adv-x="1486" d="M-16 0l522 1366h485l512 -1366h-456l-56 195h-485l-53 -195h-469zM326 1790h422l126 -234h-256zM582 496h321l-160 548z" />
<glyph unicode="&#xc1;" horiz-adv-x="1486" d="M-16 0l522 1366h485l512 -1366h-456l-56 195h-485l-53 -195h-469zM582 496h321l-160 548zM633 1556l127 234h422l-293 -234h-256z" />
<glyph unicode="&#xc2;" horiz-adv-x="1486" d="M-16 0l522 1366h485l512 -1366h-456l-56 195h-485l-53 -195h-469zM377 1554l211 234h352l211 -234h-309l-78 105l-78 -105h-309zM582 496h321l-160 548z" />
<glyph unicode="&#xc3;" horiz-adv-x="1486" d="M-16 0l522 1366h485l512 -1366h-456l-56 195h-485l-53 -195h-469zM403 1559q31 240 222 239q55 0 262 -43q29 -6 41 -6q37 0 49 45h201q-45 -244 -224 -244q-61 0 -217 39q-49 12 -71 13q-41 0 -58 -43h-205zM582 496h321l-160 548z" />
<glyph unicode="&#xc4;" horiz-adv-x="1486" d="M-16 0l522 1366h485l512 -1366h-456l-56 195h-485l-53 -195h-469zM356 1556v232h328v-232h-328zM582 496h321l-160 548zM821 1556v232h330v-232h-330z" />
<glyph unicode="&#xc5;" horiz-adv-x="1486" d="M-16 0l522 1366h485l512 -1366h-456l-56 195h-485l-53 -195h-469zM502 1671q0 100 72.5 161.5t187.5 61.5q119 0 190.5 -61t71.5 -164q0 -96 -73.5 -157.5t-188.5 -61.5t-187.5 61.5t-72.5 159.5zM582 496h321l-160 548zM678 1677q0 -35 25.5 -60.5t60.5 -25.5t59.5 25.5 t24.5 58.5q0 37 -24.5 62.5t-59.5 25.5t-60.5 -25.5t-25.5 -60.5z" />
<glyph unicode="&#xc6;" horiz-adv-x="2183" d="M-16 0l796 1366h1274v-301h-624v-201h579v-301h-579v-262h692v-301h-1116v195h-447l-96 -195h-479zM709 496h297v569z" />
<glyph unicode="&#xc7;" horiz-adv-x="1468" d="M61 668q0 330 211 544q199 201 523 201q217 0 367.5 -88t273.5 -287l-359 -176q-68 123 -132 170t-161 47q-137 0 -214.5 -106.5t-77.5 -294.5q0 -184 80.5 -287.5t224.5 -103.5q100 0 163.5 49t116.5 170l359 -176q-94 -178 -253 -275.5t-356 -101.5l-34 -80 q49 14 90 14q76 0 122 -43t46 -114q0 -88 -75 -142.5t-194 -54.5q-70 0 -157 25v100q33 -16 69 -16q88 0 88 67q0 55 -69 55q-31 0 -88 -20v74l92 137q-201 16 -336 100q-152 94 -236 255t-84 358z" />
<glyph unicode="&#xc8;" horiz-adv-x="1308" d="M109 0v1366h1075v-301h-652v-197h615v-301h-615v-266h715v-301h-1138zM246 1790h422l127 -234h-256z" />
<glyph unicode="&#xc9;" horiz-adv-x="1308" d="M109 0v1366h1075v-301h-652v-197h615v-301h-615v-266h715v-301h-1138zM512 1556l127 234h422l-293 -234h-256z" />
<glyph unicode="&#xca;" horiz-adv-x="1308" d="M109 0v1366h1075v-301h-652v-197h615v-301h-615v-266h715v-301h-1138zM270 1554l211 234h353l210 -234h-309l-78 105l-77 -105h-310z" />
<glyph unicode="&#xcb;" horiz-adv-x="1308" d="M109 0v1366h1075v-301h-652v-197h615v-301h-615v-266h715v-301h-1138zM248 1556v232h327v-232h-327zM725 1556v232h330v-232h-330z" />
<glyph unicode="&#xcc;" horiz-adv-x="641" d="M-96 1790h422l127 -234h-256zM111 0v1366h424v-1366h-424z" />
<glyph unicode="&#xcd;" horiz-adv-x="641" d="M109 0v1366h423v-1366h-423zM209 1556l127 234h422l-293 -234h-256z" />
<glyph unicode="&#xce;" horiz-adv-x="641" d="M-59 1554l211 234h352l211 -234h-309l-78 105l-78 -105h-309zM109 0v1366h423v-1366h-423z" />
<glyph unicode="&#xcf;" horiz-adv-x="641" d="M4 1556v232h287v-232h-287zM111 0v1366h424v-1366h-424zM379 1556v232h287v-232h-287z" />
<glyph unicode="&#xd0;" horiz-adv-x="1488" d="M-27 588v272h138v506h639q354 0 512 -170q166 -178 165 -512q0 -369 -200 -545q-158 -139 -477 -139h-639v588h-138zM535 301h110q195 0 277 111q76 104 75 270q0 186 -92 291q-80 92 -260 92h-110v-205h176v-272h-176v-287z" />
<glyph unicode="&#xd1;" horiz-adv-x="1570" d="M109 0v1366h473l387 -655q49 -84 112 -258l6 2q-41 250 -40 383v528h413v-1366h-471l-393 672q-70 119 -113 239l-8 -2q53 -252 53 -391v-518h-419zM430 1559q31 240 221 239q55 0 262 -43q29 -6 41 -6q38 0 50 45h200q-45 -244 -223 -244q-61 0 -217 39q-49 12 -72 13 q-41 0 -57 -43h-205z" />
<glyph unicode="&#xd2;" horiz-adv-x="1589" d="M61 684q0 326 202 527.5t530 201.5q334 0 534.5 -201.5t200.5 -537.5q0 -297 -176 -494q-203 -227 -557 -227q-330 0 -532 201.5t-202 529.5zM377 1790h422l127 -234h-256zM492 684q0 -182 81.5 -289.5t221.5 -107.5q137 0 220 107.5t83 283.5q0 186 -82 293.5 t-221 107.5q-137 0 -220 -107.5t-83 -287.5z" />
<glyph unicode="&#xd3;" horiz-adv-x="1589" d="M61 684q0 326 202 527.5t530 201.5q334 0 534.5 -201.5t200.5 -537.5q0 -297 -176 -494q-203 -227 -557 -227q-330 0 -532 201.5t-202 529.5zM492 684q0 -182 81.5 -289.5t221.5 -107.5q137 0 220 107.5t83 283.5q0 186 -82 293.5t-221 107.5q-137 0 -220 -107.5 t-83 -287.5zM678 1556l127 234h422l-293 -234h-256z" />
<glyph unicode="&#xd4;" horiz-adv-x="1589" d="M61 684q0 326 202 527.5t530 201.5q334 0 534.5 -201.5t200.5 -537.5q0 -297 -176 -494q-203 -227 -557 -227q-330 0 -532 201.5t-202 529.5zM422 1554l211 234h352l211 -234h-309l-78 105l-78 -105h-309zM492 684q0 -182 81.5 -289.5t221.5 -107.5q137 0 220 107.5 t83 283.5q0 186 -82 293.5t-221 107.5q-137 0 -220 -107.5t-83 -287.5z" />
<glyph unicode="&#xd5;" horiz-adv-x="1589" d="M61 684q0 326 202 527.5t530 201.5q334 0 534.5 -201.5t200.5 -537.5q0 -297 -176 -494q-203 -227 -557 -227q-330 0 -532 201.5t-202 529.5zM455 1559q31 240 221 239q55 0 262 -43q29 -6 41 -6q37 0 49 45h201q-45 -244 -223 -244q-61 0 -218 39q-49 12 -71 13 q-41 0 -58 -43h-204zM492 684q0 -182 81.5 -289.5t221.5 -107.5q137 0 220 107.5t83 283.5q0 186 -82 293.5t-221 107.5q-137 0 -220 -107.5t-83 -287.5z" />
<glyph unicode="&#xd6;" horiz-adv-x="1589" d="M61 684q0 326 202 527.5t530 201.5q334 0 534.5 -201.5t200.5 -537.5q0 -297 -176 -494q-203 -227 -557 -227q-330 0 -532 201.5t-202 529.5zM412 1556v232h327v-232h-327zM492 684q0 -182 81.5 -289.5t221.5 -107.5q137 0 220 107.5t83 283.5q0 186 -82 293.5 t-221 107.5q-137 0 -220 -107.5t-83 -287.5zM877 1556v232h329v-232h-329z" />
<glyph unicode="&#xd7;" d="M119 342l346 346l-344 344l174 174l342 -344l346 344l182 -182l-344 -346l346 -344l-174 -174l-346 346l-346 -346z" />
<glyph unicode="&#xd8;" horiz-adv-x="1589" d="M55 63l152 154q-145 199 -146 467q0 326 202 527.5t528 201.5q281 0 462 -139l152 151l129 -127l-152 -151q145 -197 146 -465q0 -326 -202 -527.5t-529 -201.5q-272 0 -461 137l-152 -153zM492 682q0 -84 20 -158l475 480q-78 76 -192 75q-139 0 -221 -107.5t-82 -289.5 zM602 358q80 -72 193 -71q137 0 220 107.5t83 287.5q-1 74 -21 158z" />
<glyph unicode="&#xd9;" horiz-adv-x="1433" d="M98 518v848h424v-836q0 -137 39 -184q51 -61 156 -61q115 0 164 71q31 45 30 174v836h424v-848q0 -285 -139 -414q-166 -152 -479 -151q-350 0 -508 180q-111 125 -111 385zM299 1790h422l127 -234h-256z" />
<glyph unicode="&#xda;" horiz-adv-x="1433" d="M98 518v848h424v-836q0 -137 39 -184q51 -61 156 -61q115 0 164 71q31 45 30 174v836h424v-848q0 -285 -139 -414q-166 -152 -479 -151q-350 0 -508 180q-111 125 -111 385zM598 1556l127 234h422l-293 -234h-256z" />
<glyph unicode="&#xdb;" horiz-adv-x="1433" d="M98 518v848h424v-836q0 -137 39 -184q51 -61 156 -61q115 0 164 71q31 45 30 174v836h424v-848q0 -285 -139 -414q-166 -152 -479 -151q-350 0 -508 180q-111 125 -111 385zM350 1554l211 234h352l211 -234h-309l-78 105l-78 -105h-309z" />
<glyph unicode="&#xdc;" horiz-adv-x="1433" d="M98 518v848h424v-836q0 -137 39 -184q51 -61 156 -61q115 0 164 71q31 45 30 174v836h424v-848q0 -285 -139 -414q-166 -152 -479 -151q-350 0 -508 180q-111 125 -111 385zM334 1556v232h328v-232h-328zM797 1556v232h329v-232h-329z" />
<glyph unicode="&#xdd;" horiz-adv-x="1255" d="M-133 1366h498l170 -283q16 -25 67 -120q8 -12 25 -48q47 94 121 222l135 229h503l-550 -764v-602h-424v602zM522 1556l127 234h422l-293 -234h-256z" />
<glyph unicode="&#xde;" horiz-adv-x="1425" d="M109 0v1366h423v-192h340q254 0 379 -138q109 -119 109 -315q0 -215 -128 -341t-358 -126h-342v-254h-423zM532 535h177q129 0 176 38q59 49 59 140q0 102 -70 149q-45 31 -165 31h-177v-358z" />
<glyph unicode="&#xdf;" horiz-adv-x="1232" d="M96 0v897q0 139 28 221t97 146q133 123 400 122q236 0 363.5 -91t127.5 -259q0 -166 -135 -241q117 -33 162 -111t45 -242q0 -229 -110.5 -345.5t-305.5 -116.5q-102 0 -195 34v240q49 -29 99 -29q139 0 139 219q0 131 -39 181.5t-141 50.5q-4 0 -17 -2v209h29 q111 0 111 137q0 131 -129 131q-72 0 -102.5 -42t-30.5 -142v-967h-396z" />
<glyph unicode="&#xe0;" horiz-adv-x="1208" d="M51 285q0 242 232 315q55 18 354 72q47 8 96 22q-2 80 -30.5 110t-104.5 30q-137 0 -139 -111l-375 -10q27 156 115 233q127 113 419 113q229 0 355 -72q76 -43 105.5 -101.5t29.5 -162.5v-610q0 -78 35 -113h-391v70q-129 -104 -324 -105q-174 0 -275.5 86t-101.5 234z M174 1481h442l134 -246h-269zM420 309q0 -84 96 -84q121 0 186 107q29 47 29 123v16q-16 -4 -30.5 -10t-135.5 -39q-145 -39 -145 -113z" />
<glyph unicode="&#xe1;" horiz-adv-x="1208" d="M51 285q0 242 232 315q55 18 354 72q47 8 96 22q-2 80 -30.5 110t-104.5 30q-137 0 -139 -111l-375 -10q27 156 115 233q127 113 419 113q229 0 355 -72q76 -43 105.5 -101.5t29.5 -162.5v-610q0 -78 35 -113h-391v70q-129 -104 -324 -105q-174 0 -275.5 86t-101.5 234z M420 309q0 -84 96 -84q121 0 186 107q29 47 29 123v16q-16 -4 -30.5 -10t-135.5 -39q-145 -39 -145 -113zM487 1235l134 246h442l-307 -246h-269z" />
<glyph unicode="&#xe2;" horiz-adv-x="1208" d="M51 285q0 242 232 315q55 18 354 72q47 8 96 22q-2 80 -30.5 110t-104.5 30q-137 0 -139 -111l-375 -10q27 156 115 233q127 113 419 113q229 0 355 -72q76 -43 105.5 -101.5t29.5 -162.5v-610q0 -78 35 -113h-391v70q-129 -104 -324 -105q-174 0 -275.5 86t-101.5 234z M272 1229l197 260h289l192 -260h-295l-43 86l-45 -86h-295zM420 309q0 -84 96 -84q121 0 186 107q29 47 29 123v16q-16 -4 -30.5 -10t-135.5 -39q-145 -39 -145 -113z" />
<glyph unicode="&#xe3;" horiz-adv-x="1208" d="M51 285q0 242 232 315q55 18 354 72q47 8 96 22q-2 80 -30.5 110t-104.5 30q-137 0 -139 -111l-375 -10q27 156 115 233q127 113 419 113q229 0 355 -72q76 -43 105.5 -101.5t29.5 -162.5v-610q0 -78 35 -113h-391v70q-129 -104 -324 -105q-174 0 -275.5 86t-101.5 234z M336 1253q20 238 176 238q45 0 106 -18q53 -16 105 -33q39 -10 57 -10q46 0 54 59h151q-18 -266 -225 -266q-29 0 -160 30l-33 9q-20 4 -32 4q-25 0 -41 -25zM420 309q0 -84 96 -84q121 0 186 107q29 47 29 123v16q-16 -4 -30.5 -10t-135.5 -39q-145 -39 -145 -113z" />
<glyph unicode="&#xe4;" horiz-adv-x="1208" d="M51 285q0 242 232 315q55 18 354 72q47 8 96 22q-2 80 -30.5 110t-104.5 30q-137 0 -139 -111l-375 -10q27 156 115 233q127 113 419 113q229 0 355 -72q76 -43 105.5 -101.5t29.5 -162.5v-610q0 -78 35 -113h-391v70q-129 -104 -324 -105q-174 0 -275.5 86t-101.5 234z M252 1225v266h295v-266h-295zM420 309q0 -84 96 -84q121 0 186 107q29 47 29 123v16q-16 -4 -30.5 -10t-135.5 -39q-145 -39 -145 -113zM698 1225v266h295v-266h-295z" />
<glyph unicode="&#xe5;" horiz-adv-x="1208" d="M51 285q0 242 232 315q55 18 354 72q47 8 96 22q-2 80 -30.5 110t-104.5 30q-137 0 -139 -111l-375 -10q27 156 115 233q127 113 419 113q229 0 355 -72q76 -43 105.5 -101.5t29.5 -162.5v-610q0 -78 35 -113h-391v70q-129 -104 -324 -105q-174 0 -275.5 86t-101.5 234z M354 1358q0 100 72.5 161.5t187.5 61.5q119 0 191 -61.5t72 -163.5q0 -96 -74 -157.5t-189 -61.5t-187.5 61.5t-72.5 159.5zM420 309q0 -84 96 -84q121 0 186 107q29 47 29 123v16q-16 -4 -30.5 -10t-135.5 -39q-145 -39 -145 -113zM530 1364q0 -35 26 -60.5t60 -25.5 q35 0 59.5 25.5t24.5 58.5q0 37 -24.5 62.5t-59.5 25.5t-60.5 -25.5t-25.5 -60.5z" />
<glyph unicode="&#xe6;" horiz-adv-x="1873" d="M51 279q0 229 232 299q31 10 352 67q66 10 98 21q-2 90 -22 118q-33 47 -115 47q-135 0 -137 -108l-375 -10q33 184 154.5 264t371.5 80q123 0 189 -15q82 -20 170 -79q145 94 305 94q158 0 283.5 -73t194.5 -204t69 -334v-10h-709q4 -213 180 -213q117 0 183 146 l329 -129q-172 -289 -528 -289q-201 0 -381 125q-203 -125 -459 -125q-178 0 -281.5 88t-103.5 240zM420 309q0 -86 96 -86q119 0 184 99q31 44 31 114v15q-23 -8 -166 -43q-88 -20 -116.5 -40t-28.5 -59zM1110 641h303q-20 160 -143 160q-129 0 -160 -160z" />
<glyph unicode="&#xe7;" horiz-adv-x="1110" d="M55 496q0 256 150.5 409.5t404.5 153.5q334 0 492 -266l-307 -175q-37 168 -162 168q-182 0 -182 -280q0 -266 170 -266q66 0 105.5 38.5t78.5 141.5l297 -166q-136 -283 -447 -299l-22 -57q39 10 67 10q66 0 108 -37t42 -94q0 -84 -76 -131t-207 -47q-51 0 -96 4v88 q45 -4 57 -4q68 0 68 55q0 45 -53 45q-31 0 -72 -14v53l78 129q-238 20 -366 161.5t-128 379.5z" />
<glyph unicode="&#xe8;" horiz-adv-x="1226" d="M55 498q0 252 155 405.5t406 153.5q344 0 490 -275q68 -129 68 -336v-10h-709q4 -213 180 -213q117 0 182 146l330 -129q-174 -289 -524 -289q-260 0 -419 150.5t-159 396.5zM182 1481h443l133 -246h-269zM463 641h303q-23 160 -143 160q-129 0 -160 -160z" />
<glyph unicode="&#xe9;" horiz-adv-x="1226" d="M55 498q0 252 155 405.5t406 153.5q344 0 490 -275q68 -129 68 -336v-10h-709q4 -213 180 -213q117 0 182 146l330 -129q-174 -289 -524 -289q-260 0 -419 150.5t-159 396.5zM463 641h303q-23 160 -143 160q-129 0 -160 -160zM504 1235l133 246h442l-307 -246h-268z" />
<glyph unicode="&#xea;" horiz-adv-x="1226" d="M55 498q0 252 155 405.5t406 153.5q344 0 490 -275q68 -129 68 -336v-10h-709q4 -213 180 -213q117 0 182 146l330 -129q-174 -289 -524 -289q-260 0 -419 150.5t-159 396.5zM289 1229l196 260h289l193 -260h-295l-43 86l-45 -86h-295zM463 641h303q-23 160 -143 160 q-129 0 -160 -160z" />
<glyph unicode="&#xeb;" horiz-adv-x="1226" d="M55 498q0 252 155 405.5t406 153.5q344 0 490 -275q68 -129 68 -336v-10h-709q4 -213 180 -213q117 0 182 146l330 -129q-174 -289 -524 -289q-260 0 -419 150.5t-159 396.5zM264 1225v266h295v-266h-295zM463 641h303q-23 160 -143 160q-129 0 -160 -160zM711 1225v266 h295v-266h-295z" />
<glyph unicode="&#xec;" horiz-adv-x="587" d="M-152 1481h443l133 -246h-268zM96 0v1010h396v-1010h-396z" />
<glyph unicode="&#xed;" horiz-adv-x="587" d="M96 0v1010h396v-1010h-396zM176 1235l133 246h443l-308 -246h-268z" />
<glyph unicode="&#xee;" horiz-adv-x="587" d="M-39 1229l197 260h288l193 -260h-295l-43 86l-45 -86h-295zM94 0v1010h395v-1010h-395z" />
<glyph unicode="&#xef;" horiz-adv-x="587" d="M-37 1225v266h281v-266h-281zM94 0v1010h395v-1010h-395zM340 1225v266h283v-266h-283z" />
<glyph unicode="&#xf0;" horiz-adv-x="1290" d="M55 510q0 168 74 297t205 192q119 57 299 60l-197 319l205 115l410 -506q186 -229 186 -481q0 -268 -182 -424q-150 -129 -410 -129q-272 0 -431 149.5t-159 407.5zM451 506q0 -281 196 -281q195 0 195 277q0 282 -197 282q-195 0 -194 -278z" />
<glyph unicode="&#xf1;" horiz-adv-x="1275" d="M96 0v1010h396v-115q78 84 150.5 116.5t172.5 32.5q166 0 266.5 -92t100.5 -266v-686h-396v506q0 131 -22 168q-37 57 -119 57q-100 0 -135 -67q-18 -35 -18 -158v-506h-396zM342 1253q20 238 176 238q45 0 107 -18q53 -16 104 -33q39 -10 57 -10q46 0 54 59h151 q-18 -266 -225 -266q-29 0 -160 30l-33 9q-20 4 -32 4q-25 0 -41 -25z" />
<glyph unicode="&#xf2;" horiz-adv-x="1290" d="M55 506q0 252 161 402.5t429 150.5q274 0 433 -150.5t159 -410.5q0 -246 -163 -395.5t-429 -149.5q-268 0 -429 150.5t-161 402.5zM201 1481h442l133 -246h-268zM451 506q0 -281 196 -281q195 0 195 277q0 284 -197 284q-195 0 -194 -280z" />
<glyph unicode="&#xf3;" horiz-adv-x="1290" d="M55 506q0 252 161 402.5t429 150.5q274 0 433 -150.5t159 -410.5q0 -246 -163 -395.5t-429 -149.5q-268 0 -429 150.5t-161 402.5zM451 506q0 -281 196 -281q195 0 195 277q0 284 -197 284q-195 0 -194 -280zM522 1235l133 246h443l-307 -246h-269z" />
<glyph unicode="&#xf4;" horiz-adv-x="1290" d="M55 506q0 252 161 402.5t429 150.5q274 0 433 -150.5t159 -410.5q0 -246 -163 -395.5t-429 -149.5q-268 0 -429 150.5t-161 402.5zM322 1229l196 260h289l192 -260h-294l-43 86l-46 -86h-294zM451 506q0 -281 196 -281q195 0 195 277q0 284 -197 284q-195 0 -194 -280z " />
<glyph unicode="&#xf5;" horiz-adv-x="1290" d="M55 506q0 252 161 402.5t429 150.5q274 0 433 -150.5t159 -410.5q0 -246 -163 -395.5t-429 -149.5q-268 0 -429 150.5t-161 402.5zM362 1253q20 238 177 238q45 0 106 -18q53 -16 105 -33q39 -10 57 -10q45 0 53 59h152q-18 -266 -226 -266q-29 0 -159 30l-33 9 q-20 4 -33 4q-25 0 -41 -25zM451 506q0 -281 196 -281q195 0 195 277q0 284 -197 284q-195 0 -194 -280z" />
<glyph unicode="&#xf6;" horiz-adv-x="1290" d="M55 506q0 252 161 402.5t429 150.5q274 0 433 -150.5t159 -410.5q0 -246 -163 -395.5t-429 -149.5q-268 0 -429 150.5t-161 402.5zM283 1225v266h295v-266h-295zM451 506q0 -281 196 -281q195 0 195 277q0 284 -197 284q-195 0 -194 -280zM729 1225v266h295v-266h-295z " />
<glyph unicode="&#xf7;" d="M80 559v246h1124v-246h-1124zM498 92v297h290v-297h-290zM498 977v297h290v-297h-290z" />
<glyph unicode="&#xf8;" horiz-adv-x="1298" d="M51 82l107 90q-98 143 -99 336q0 250 161 400.5t429 150.5q246 0 406 -129l116 98l78 -94l-108 -92q100 -135 100 -340q0 -248 -160.5 -398.5t-429.5 -150.5q-246 0 -409 131l-111 -94zM455 506q0 -29 6 -78l336 285q-55 74 -148 73q-195 0 -194 -280zM502 303 q53 -78 149 -78q92 0 143.5 74t51.5 205q0 33 -6 84z" />
<glyph unicode="&#xf9;" horiz-adv-x="1275" d="M96 324v686h396v-506q0 -131 22 -168q35 -57 119 -57q100 0 135 67q18 35 18 158v506h396v-1010h-396v115q-78 -84 -150.5 -117t-172.5 -33q-166 0 -266.5 92.5t-100.5 266.5zM195 1481h442l133 -246h-268z" />
<glyph unicode="&#xfa;" horiz-adv-x="1275" d="M96 324v686h396v-506q0 -131 22 -168q35 -57 119 -57q100 0 135 67q18 35 18 158v506h396v-1010h-396v115q-78 -84 -150.5 -117t-172.5 -33q-166 0 -266.5 92.5t-100.5 266.5zM528 1235l134 246h442l-307 -246h-269z" />
<glyph unicode="&#xfb;" horiz-adv-x="1275" d="M96 324v686h396v-506q0 -131 22 -168q35 -57 119 -57q100 0 135 67q18 35 18 158v506h396v-1010h-396v115q-78 -84 -150.5 -117t-172.5 -33q-166 0 -266.5 92.5t-100.5 266.5zM313 1229l197 260h289l192 -260h-295l-43 86l-45 -86h-295z" />
<glyph unicode="&#xfc;" horiz-adv-x="1275" d="M96 324v686h396v-506q0 -131 22 -168q35 -57 119 -57q100 0 135 67q18 35 18 158v506h396v-1010h-396v115q-78 -84 -150.5 -117t-172.5 -33q-166 0 -266.5 92.5t-100.5 266.5zM281 1225v266h294v-266h-294zM727 1225v266h295v-266h-295z" />
<glyph unicode="&#xfd;" horiz-adv-x="1095" d="M-2 1010h405l99 -449q37 -172 45 -364h6q10 205 45 364l100 449h404l-369 -1098q-49 -145 -140 -205.5t-261 -60.5q-86 0 -191 18v275q63 -6 95 -7q102 0 102 45q0 25 -12 62zM444 1235l134 246h442l-307 -246h-269z" />
<glyph unicode="&#xfe;" horiz-adv-x="1263" d="M96 -354v1720h383v-438q59 66 116.5 91t147.5 25q209 0 337 -150.5t128 -395.5q0 -244 -117.5 -388.5t-316.5 -144.5q-141 0 -282 115v-434h-396zM475 506q0 -268 170 -268q168 0 168 264q0 270 -170 270q-168 0 -168 -266z" />
<glyph unicode="&#xff;" horiz-adv-x="1095" d="M-2 1010h405l99 -449q37 -172 45 -364h6q10 205 45 364l100 449h404l-369 -1098q-49 -145 -140 -205.5t-261 -60.5q-86 0 -191 18v275q63 -6 95 -7q102 0 102 45q0 25 -12 62zM193 1225v266h294v-266h-294zM639 1225v266h295v-266h-295z" />
<glyph unicode="&#x152;" horiz-adv-x="2093" d="M61 684q0 311 180.5 514t456.5 203q150 0 295 -74v39h1039v-301h-619v-195h580v-301h-580v-268h619v-301h-1039v39q-145 -74 -295 -74q-276 0 -456.5 203t-180.5 516zM477 674q0 -184 78 -285.5t221 -101.5q94 0 217 80v616q-119 78 -217 78q-143 0 -221 -101.5 t-78 -285.5z" />
<glyph unicode="&#x153;" horiz-adv-x="2002" d="M55 504q0 252 161 402.5t429 150.5q227 0 387 -115q160 115 361 115q193 0 331 -95.5t191 -263.5q35 -110 35 -262h-709q6 -213 180 -213q119 0 185 146l327 -129q-174 -289 -524 -289q-215 0 -377 117q-162 -117 -387 -117q-268 0 -429 150.5t-161 402.5zM451 504 q0 -281 196 -281q195 0 195 277q0 284 -197 284q-195 0 -194 -280zM1239 641h305q-23 160 -145 160q-129 0 -160 -160z" />
<glyph unicode="&#x178;" horiz-adv-x="1255" d="M-133 1366h498l170 -283q16 -25 67 -120q8 -12 25 -48q47 94 121 222l135 229h503l-550 -764v-602h-424v602zM238 1556v232h327v-232h-327zM715 1556v232h329v-232h-329z" />
<glyph unicode="&#x2c6;" horiz-adv-x="1024" d="M174 1229l197 260h288l193 -260h-295l-43 86l-45 -86h-295z" />
<glyph unicode="&#x2dc;" horiz-adv-x="1024" d="M186 1253q20 238 176 238q45 0 107 -18q53 -16 104 -33q39 -10 58 -10q45 0 53 59h152q-18 -266 -226 -266q-29 0 -159 30l-33 9q-20 4 -33 4q-25 0 -41 -25z" />
<glyph unicode="&#x2000;" horiz-adv-x="947" />
<glyph unicode="&#x2001;" horiz-adv-x="1894" />
<glyph unicode="&#x2002;" horiz-adv-x="947" />
<glyph unicode="&#x2003;" horiz-adv-x="1894" />
<glyph unicode="&#x2004;" horiz-adv-x="631" />
<glyph unicode="&#x2005;" horiz-adv-x="473" />
<glyph unicode="&#x2006;" horiz-adv-x="315" />
<glyph unicode="&#x2007;" horiz-adv-x="315" />
<glyph unicode="&#x2008;" horiz-adv-x="236" />
<glyph unicode="&#x2009;" horiz-adv-x="378" />
<glyph unicode="&#x200a;" horiz-adv-x="105" />
<glyph unicode="&#x2010;" horiz-adv-x="589" d="M0 342v326h590v-326h-590z" />
<glyph unicode="&#x2011;" horiz-adv-x="589" d="M0 342v326h590v-326h-590z" />
<glyph unicode="&#x2012;" horiz-adv-x="589" d="M0 342v326h590v-326h-590z" />
<glyph unicode="&#x2013;" d="M100 342v326h1082v-326h-1082z" />
<glyph unicode="&#x2014;" horiz-adv-x="1769" d="M0 342v326h1769v-326h-1769z" />
<glyph unicode="&#x2018;" horiz-adv-x="538" d="M96 676v282q0 215 107 322q78 78 239 106v-174q-121 -39 -120 -182h120v-354h-346z" />
<glyph unicode="&#x2019;" horiz-adv-x="538" d="M96 655v172q121 39 121 183h-121v356h346v-285q0 -215 -106 -319q-84 -82 -240 -107z" />
<glyph unicode="&#x201a;" horiz-adv-x="538" d="M96 0v354h346v-282q0 -215 -106 -320q-80 -80 -240 -106v172q121 39 121 182h-121z" />
<glyph unicode="&#x201c;" horiz-adv-x="1030" d="M96 676v282q0 215 107 322q78 78 239 106v-174q-121 -39 -120 -182h120v-354h-346zM588 676v282q0 215 106 322q78 78 240 106v-174q-121 -39 -121 -182h121v-354h-346z" />
<glyph unicode="&#x201d;" horiz-adv-x="1030" d="M96 655v172q121 39 121 183h-121v356h346v-285q0 -215 -106 -319q-84 -82 -240 -107zM588 655v172q121 39 121 183h-121v356h346v-285q0 -215 -107 -319q-84 -82 -239 -107z" />
<glyph unicode="&#x201e;" horiz-adv-x="1030" d="M96 0v354h346v-282q0 -215 -106 -320q-80 -80 -240 -106v172q121 39 121 182h-121zM588 0v354h346v-282q0 -215 -107 -320q-80 -80 -239 -106v172q121 39 121 182h-121z" />
<glyph unicode="&#x2022;" horiz-adv-x="1366" d="M401 692q0 119 84 202t205 83q113 0 196 -84t83 -199q0 -119 -83 -201.5t-200 -82.5t-201 82.5t-84 199.5z" />
<glyph unicode="&#x2026;" horiz-adv-x="1613" d="M96 0v354h346v-354h-346zM635 0v354h346v-354h-346zM1174 0v354h346v-354h-346z" />
<glyph unicode="&#x202f;" horiz-adv-x="378" />
<glyph unicode="&#x2039;" horiz-adv-x="438" d="M61 326v350l301 235v-276l-178 -135l178 -133v-277z" />
<glyph unicode="&#x203a;" horiz-adv-x="438" d="M76 90v277l178 133l-178 135v276l301 -235v-350z" />
<glyph unicode="&#x205f;" horiz-adv-x="473" />
<glyph unicode="&#x20ac;" horiz-adv-x="1646" d="M43 584l82 192h108q25 195 129 344q203 293 599 293q217 0 367.5 -88t273.5 -287l-359 -176q-68 121 -132 169t-161 48q-241 0 -286 -303h417l-82 -192h-335q41 -297 299 -297q100 0 163.5 49t116.5 168l359 -176q-201 -375 -644 -375q-420 0 -618 309q-90 141 -109 322 h-188z" />
<glyph unicode="&#x2122;" horiz-adv-x="1906" d="M-16 1163v203h731v-203h-223v-575h-281v575h-227zM770 588v778h399l101 -332q25 -82 35 -149q12 74 34 149l101 332h395v-778h-281v289q0 47 25 245q-16 -55 -57 -172q-23 -63 -25 -76l-90 -286h-207l-94 295q-8 25 -25 73q-39 115 -57 166q31 -193 27 -243v-291h-281z " />
<glyph unicode="&#x25fc;" horiz-adv-x="1013" d="M0 0v1014h1014v-1014h-1014z" />
<glyph unicode="&#xfb03;" horiz-adv-x="1918" d="M-45 778v205h162v111q0 297 370 297q86 0 205 -25v-272q-35 8 -61 8q-63 0 -90 -25.5t-29 -93.5h260v111q0 297 371 297q86 0 205 -25v-272q-35 8 -62 8q-63 0 -90 -25.5t-29 -93.5h193v-205h-193v-778h-395v778h-260v-778h-395v778h-162zM1427 0v1010h396v-1010h-396z M1427 1106v260h396v-260h-396z" />
<glyph unicode="&#xfb04;" horiz-adv-x="1918" d="M-45 778v205h162v111q0 297 370 297q86 0 205 -25v-272q-35 8 -61 8q-63 0 -90 -25.5t-29 -93.5h260v111q0 297 371 297q86 0 205 -25v-272q-35 8 -62 8q-63 0 -90 -25.5t-29 -93.5h193v-205h-193v-778h-395v778h-260v-778h-395v778h-162zM1427 0v1366h396v-1366h-396z " />
</font>
</defs>
</svg>
